<?xml version="1.0" encoding="utf-8"?>
<!-- Generator: Adobe Illustrator 26.0.3, SVG Export Plug-In . SVG Version: 6.00 Build 0)  -->
<svg version="1.1" id="Hauptanwendung" xmlns="http://www.w3.org/2000/svg" xmlns:xlink="http://www.w3.org/1999/xlink" x="0px"
	 y="0px" viewBox="0 0 238 70" style="enable-background:new 0 0 238 70;" xml:space="preserve">
<style type="text/css">
	.st0{fill:#E40146;}
	.st1{fill:#01A48B;}
	.st2{fill-rule:evenodd;clip-rule:evenodd;fill:#80CEF5;}
	.st3{fill:#014E66;}
</style>
<path class="st0" d="M31.7,53.5h-14l-1-35h14.9c1.9,0,3.4,1.5,3.4,3.4v28.3C35,52,33.5,53.5,31.7,53.5z"/>
<path class="st1" d="M17.8,53.5H3.4C1.5,53.5,0,52,0,50.2V21.8c0-1.9,1.5-3.4,3.4-3.4h13.6L17.8,53.5z"/>
<path class="st2" d="M20.9,36.3c-1.4-3-4.9-12.2,1.1-21.8c0.3-0.5,0.2-1.1-0.3-1.4c-1-0.6-2.4-1.4-3.4-2c-0.5-0.3-1.1-0.1-1.3,0.3
	c-7.1,11.7-3.7,21.9-2.8,24.3c1.4,3,4.9,12.2-1.1,21.8c-0.3,0.5-0.2,1.1,0.3,1.4c1,0.6,2.4,1.4,3.4,2c0.5,0.3,1.1,0.1,1.3-0.3
	C25.2,48.9,21.8,38.6,20.9,36.3z"/>
<path class="st3" d="M157.6,43.3h-3.5l-5.2,5.9V37.9h-2.9v18.6h2.9v-6.1l5.5,6.1h3.4l-6.1-6.8L157.6,43.3z M137.9,54.1
	c-2.3,0-4.1-1.8-4.1-4.2c0-2.4,1.8-4.2,4.1-4.2c1.6,0,2.9,0.8,3.5,2l2.5-1.4c-1.1-2.1-3.3-3.4-5.9-3.4c-4,0-7,3-7,7c0,3.9,3,7,7,7
	c2.6,0,4.9-1.4,6-3.5l-2.5-1.4C140.8,53.3,139.5,54.1,137.9,54.1z M122.4,42.9c-4.2,0-7,3.1-7,7c0,4,2.8,7,7.2,7
	c2.6,0,4.6-1.1,5.8-2.9l-2.4-1.4c-0.6,0.9-1.8,1.6-3.4,1.6c-2.1,0-3.8-1.1-4.3-3.1h10.6c0.1-0.4,0.1-0.8,0.1-1.2
	C129.1,46.1,126.3,42.9,122.4,42.9z M118.3,48.8c0.4-2,1.9-3.3,4-3.3c1.7,0,3.4,1,3.8,3.3H118.3z M109.5,50.6l-8.8-12.6h-2.4v18.6
	h3.1V43.9l8.8,12.6h2.4V37.9h-3.1V50.6z M169.4,45.2c-1-1.4-2.6-2.2-4.7-2.2c-3.6,0-6.6,3-6.6,7c0,3.9,3,7,6.6,7
	c2.1,0,3.6-0.9,4.7-2.3v1.9h2.9V43.3h-2.9V45.2z M165.2,54.2c-2.4,0-4.2-1.8-4.2-4.3c0-2.5,1.8-4.3,4.2-4.3c2.4,0,4.2,1.8,4.2,4.3
	C169.4,52.4,167.6,54.2,165.2,54.2z M178.6,45.5v-2.2h-2.9v13.3h2.9v-6.7c0-3,2.2-3.9,4.1-3.7V43C181,43,179.4,43.7,178.6,45.5z
	 M62.3,45.2c-1-1.4-2.6-2.2-4.7-2.2c-3.6,0-6.6,3-6.6,7c0,3.9,3,7,6.6,7c2.1,0,3.6-0.9,4.7-2.3v1.9h2.9V43.3h-2.9V45.2z M58.1,54.2
	c-2.4,0-4.2-1.8-4.2-4.3c0-2.5,1.8-4.3,4.2-4.3c2.4,0,4.2,1.8,4.2,4.3C62.3,52.4,60.5,54.2,58.1,54.2z M83.2,42.9
	c-1.8,0-3.2,0.7-4.1,2.1c-0.8-1.3-2-2.1-3.8-2.1c-1.6,0-3,0.6-3.8,1.9v-1.6h-2.9v13.3h2.9v-7.4c0-2.4,1.3-3.5,3-3.5
	c1.6,0,2.5,1,2.5,2.9v8.1h2.9v-7.4c0-2.4,1.2-3.5,2.9-3.5c1.6,0,2.6,1,2.6,2.9v8.1h2.9v-8.2C88.2,45,86.2,42.9,83.2,42.9z
	 M58.2,29.1c-2.5,0-4-1.2-4.6-3.1L51,27.5c1,2.8,3.5,4.6,7.2,4.6c3.9,0,6.6-2.1,6.6-5.5c0-3.7-3.1-4.7-6.2-5.6
	c-2.7-0.9-3.7-1.5-3.7-2.9c0-1.4,1.1-2.3,2.9-2.3c2.1,0,3.2,1.1,3.9,2.6l2.6-1.5c-1.2-2.5-3.4-4.1-6.5-4.1c-3.1,0-6,1.9-6,5.4
	c0,3.5,2.8,4.6,5.7,5.5c2.8,0.9,4.2,1.4,4.2,3.1C61.7,28,60.6,29.1,58.2,29.1z M74.3,31.8v-2.6c-2.2,0.1-3.3,0.1-3.3-1.6v-6.4h3.3
	v-2.8H71v-3.7l-2.9,0.9v2.9h-2.4v2.8h2.4v6.4C68.2,31.1,69.9,32.3,74.3,31.8z M87.1,20.4c-1-1.4-2.6-2.2-4.7-2.2c-3.6,0-6.6,3-6.6,7
	c0,3.9,3,7,6.6,7c2.1,0,3.6-0.9,4.7-2.3v1.9h2.9V18.5h-2.9V20.4z M82.9,29.4c-2.4,0-4.2-1.8-4.2-4.3s1.8-4.3,4.2-4.3
	c2.4,0,4.2,1.8,4.2,4.3S85.3,29.4,82.9,29.4z M104,29.8v1.9h2.9V13.1H104v7.2c-1-1.4-2.6-2.2-4.7-2.2c-3.6,0-6.6,3-6.6,7
	c0,3.9,3,7,6.6,7C101.4,32.1,102.9,31.3,104,29.8z M95.6,25.1c0-2.5,1.8-4.3,4.2-4.3c2.4,0,4.2,1.8,4.2,4.3s-1.8,4.3-4.2,4.3
	C97.4,29.4,95.6,27.6,95.6,25.1z M111.6,27.6c0,3.5,1.8,4.7,6.2,4.1v-2.6c-2.2,0.1-3.3,0.1-3.3-1.6v-6.4h3.3v-2.8h-3.3v-3.7
	l-2.9,0.9v2.9h-2.4v2.8h2.4V27.6z M138.9,28.8h-8.2v-5h7.4v-2.9h-7.4v-4.8h8.1v-2.9h-11.2v18.6h11.3V28.8z M146.2,29.5
	c-1.5,0-2.5-0.7-3-1.9l-2.5,1.4c0.9,1.9,2.8,3.1,5.4,3.1c2.9,0,5.2-1.4,5.2-4.1c0-4.9-7.2-3.5-7.2-5.9c0-1,0.9-1.4,1.9-1.4
	c1.1,0,2,0.5,2.5,1.5l2.4-1.4c-0.9-1.8-2.7-2.8-4.9-2.8c-2.7,0-4.9,1.6-4.9,4.1c0,4.8,7.2,3.4,7.2,5.8
	C148.4,29,147.4,29.5,146.2,29.5z M157.8,29.5c-1.5,0-2.5-0.7-3-1.9l-2.5,1.4c0.9,1.9,2.8,3.1,5.4,3.1c2.9,0,5.2-1.4,5.2-4.1
	c0-4.9-7.2-3.5-7.2-5.9c0-1,0.9-1.4,1.9-1.4c1.1,0,2,0.5,2.5,1.5l2.4-1.4c-0.9-1.8-2.7-2.8-4.9-2.8c-2.7,0-4.9,1.6-4.9,4.1
	c0,4.8,7.2,3.4,7.2,5.8C160,29,159,29.5,157.8,29.5z M168.3,12.3h-2.9v19.4h2.9V12.3z M171.8,31.8h2.9V18.5h-2.9V31.8z M173.2,12.8
	c-1,0-1.8,0.8-1.8,1.8c0,1,0.8,1.8,1.8,1.8c1,0,1.8-0.9,1.8-1.8C175,13.6,174.2,12.8,173.2,12.8z M185.1,18.1c-1.8,0-3.2,0.7-4.1,2
	v-1.7h-2.9v13.3h2.9v-7.1c0-2.7,1.5-3.8,3.4-3.8c1.8,0,3,1.1,3,3.1v7.9h2.9v-8.2C190.2,20.1,188.1,18.1,185.1,18.1z M204,20.4
	c-1-1.4-2.6-2.3-4.6-2.3c-3.7,0-6.7,3.1-6.7,6.9s3,6.9,6.7,6.9c2,0,3.6-0.9,4.6-2.3v1.6c0,2.3-1.5,3.7-4,3.7c-2.3,0-3.3-0.9-3.9-2
	l-2.5,1.4c1.1,2.1,3.4,3.2,6.3,3.2c3.5,0,6.8-2,6.8-6.3V18.5H204V20.4z M199.8,29.2c-2.4,0-4.2-1.8-4.2-4.2c0-2.4,1.8-4.2,4.2-4.2
	c2.4,0,4.2,1.8,4.2,4.2C204,27.4,202.2,29.2,199.8,29.2z M216.6,18.1c-4.2,0-7,3.1-7,7c0,4,2.8,7,7.2,7c2.6,0,4.6-1.1,5.8-2.9
	l-2.4-1.4c-0.6,0.9-1.8,1.6-3.4,1.6c-2.1,0-3.8-1.1-4.3-3.1h10.6c0.1-0.4,0.1-0.8,0.1-1.2C223.2,21.3,220.5,18.1,216.6,18.1z
	 M212.5,24c0.4-2,1.9-3.3,4-3.3c1.7,0,3.4,1,3.8,3.3H212.5z M232.9,18.1c-1.8,0-3.2,0.7-4.1,2v-1.7h-2.9v13.3h2.9v-7.1
	c0-2.7,1.5-3.8,3.4-3.8c1.8,0,3,1.1,3,3.1v7.9h2.9v-8.2C238,20.1,235.9,18.1,232.9,18.1z"/>
</svg>
