<svg width="32" height="32" viewBox="0 0 32 32" fill="none" xmlns="http://www.w3.org/2000/svg">
<path fill-rule="evenodd" clip-rule="evenodd" d="M26.6666 18.6667V2.66666H5.33331V18.6667C5.33331 18.6667 5.33332 29.3333 16 29.3333C26.6666 29.3333 26.6666 18.6667 26.6666 18.6667ZM7.99998 18.6555C8.00009 18.6617 8.00038 18.6759 8.0011 18.6976C8.00266 18.7443 8.00618 18.8251 8.01404 18.935C8.02981 19.1558 8.06264 19.4886 8.13036 19.8949C8.26792 20.7203 8.53807 21.78 9.05179 22.8074C9.56028 23.8244 10.2811 24.7603 11.3125 25.4479C12.1068 25.9774 13.1818 26.4247 14.6667 26.5941C15.5599 26.696 16.439 26.6428 17.3333 26.5941C18.8182 26.4247 19.8931 25.9774 20.6874 25.4479C21.7188 24.7603 22.4397 23.8244 22.9482 22.8074C23.4619 21.78 23.732 20.7203 23.8696 19.8949C23.9373 19.4886 23.9702 19.1558 23.9859 18.935C23.9938 18.8251 23.9973 18.7443 23.9989 18.6976C23.9992 18.688 23.9994 18.6798 23.9996 18.6732C23.9998 18.6649 23.9999 18.659 24 18.6555V5.33332H17.3333V26.5941C16.439 26.6428 15.5599 26.696 14.6667 26.5941L14.6666 5.33332H7.99998V18.6555ZM24 18.6555L24 18.6532Z" fill="#101F18"/>
</svg>
