<svg width="573" height="442" viewBox="0 0 573 442" fill="none" xmlns="http://www.w3.org/2000/svg">
<path fill-rule="evenodd" clip-rule="evenodd" d="M144.252 265.098C147.164 263.114 153.121 256.011 156.242 254.369C163.182 250.72 194.098 243.544 195.103 243.12C196.634 242.475 206.58 240.219 212.375 238.794C225.982 235.447 274.745 213.827 287.598 208.284C289.238 212.599 302.784 231.65 300.46 233.602C292.809 240.029 279.097 248.033 270.234 252.639C263.067 256.364 255.475 259.447 247.811 261.964C239.109 264.822 233.137 267.887 224.465 270.811C215.933 273.687 226.129 282.684 230.511 284.542C235.425 286.628 243.038 287.686 248.06 289.494C239.218 303.228 231.793 319.898 230.308 336.35C229.95 340.31 226.93 343.94 222.018 342.755C219.484 342.143 196.097 339.029 192.284 338.161C166.826 332.358 121.125 301.97 132.894 270.811C135.59 272.055 141.746 266.805 144.252 265.098Z" fill="#EADCB9"/>
<path fill-rule="evenodd" clip-rule="evenodd" d="M244.956 4.19084L247.817 4.97119C259.366 8.14326 272.076 11.9998 281.589 19.301C285.955 22.6511 290.102 26.46 293.975 30.3685C299.691 36.1352 302.855 43.6873 305.877 51.1415C313.545 47.3871 320.876 43.2959 329.266 41.4343C337.249 39.6636 345.427 37.2634 353.457 35.9257L353.994 35.8381C360.072 34.8725 368.572 34.3431 373.561 38.5267C379.141 43.2067 382.048 50.4895 385.38 56.7263C401.377 41.5546 419.22 30.4863 442.029 31.2223C464.347 31.9427 479.024 51.2064 481.73 72.0816C484.71 95.0833 474.459 119.119 460.563 136.931L459.731 137.995C453.755 145.602 447.512 152.9 439.497 158.594L437.096 160.305C433.661 162.748 430.082 165.225 426.391 167.092C424.117 168.242 421.631 169.281 419.243 170.166C418.166 170.565 417.057 170.966 415.936 171.237L415.613 171.312C412.778 171.945 413.316 171.075 412.168 173.777C411.203 176.049 411.321 179.96 410.908 182.454C410.436 185.306 410.155 188.196 409.465 191.008C408.27 195.883 407.026 200.638 405.529 205.399C402.695 214.408 398.882 223.488 394.211 231.706C397.841 233.282 402.802 233.559 406.863 233.996C406.631 233.886 406.4 233.726 406.169 233.513L409.288 233.556C408.898 233.853 408.508 234.055 408.119 234.142L407.953 234.12C412.28 234.653 416.613 235.739 421.09 236.978L426.284 238.426C434.094 240.609 441.356 242.737 449.007 246.103C458.118 250.112 466.269 256.033 475.001 260.873L475.876 261.353C484.212 265.879 492.638 271.549 500.38 276.983C502.119 278.204 503.233 279.275 504.586 280.769L504.828 281.037C506.328 282.71 506.806 283.037 508.598 284.487C509.406 285.14 511.757 288.435 512.68 288.556C514.332 288.776 514.078 287.543 515.375 285.821C518.084 282.228 521.863 279.444 524.553 275.76C526.796 272.688 529.136 269.577 531.534 266.935C537.151 260.748 541.835 253.912 545.871 246.53L546.273 245.791C548.205 242.2 550.23 238.764 552.316 235.368L553.013 234.237C554.963 231.088 558.187 227.093 561.909 226.026C561.788 225.964 561.66 225.892 561.523 225.811L563.274 225.121C563.347 225.375 563.387 225.591 563.394 225.767C563.623 225.752 563.854 225.75 564.086 225.761C563.714 223.852 562.533 223.534 564.571 222.367C564.634 222.331 564.7 222.299 564.768 222.272L564.019 222.277C565.056 221.502 566.097 221.601 567.139 222.26L566.606 222.263C567.71 222.528 568.852 223.138 569.452 223.591C572.129 225.613 572.248 229.537 572.079 232.485C571.644 240.081 570.054 247.579 567.837 254.762C565.386 262.705 562.364 269.789 559.059 277.288L557.333 281.195C554.565 287.432 550.994 294.788 544.467 297.497C549.205 304.258 547.089 309.797 543.966 316.902L543.746 317.4C541.378 322.77 538.25 328.32 533.485 331.873C528.178 335.831 522.429 332.562 516.874 329.929L516.459 329.735C512.868 328.082 502.945 324.36 505.013 319.536C502.421 319.191 500.791 317.309 498.432 316.73C495.935 316.117 496.364 317.131 493.722 317.511C491.695 317.802 488.665 315.989 486.758 315.339C483.571 314.256 480.394 313.145 477.212 312.05L472.482 310.425C465.14 307.913 457.854 305.495 450.405 303.461C433.577 298.865 416.54 296.257 399.77 292.153C396.409 291.331 393.066 290.537 389.566 289.878L389.409 289.853C388.414 289.715 385.067 289.488 384.638 288.76C383.84 287.405 386.293 279.822 386.504 278.276C387.886 268.132 387.434 257.026 385.487 246.997C384.679 242.828 381.067 237.429 381.098 233.359C381.119 230.629 383.54 227.648 384.961 225.175L385.843 223.637C389.082 217.961 392.376 211.924 394.763 206.091C398.642 196.62 401.059 185.962 402.808 175.789L403.513 171.634C404.264 167.167 404.987 162.516 405.187 158.117C405.377 153.927 405.033 149.531 405.642 145.239C403.321 145.458 400.037 146.66 397.947 145.374C395.307 143.75 394.599 139.115 394.936 136.347C385.898 137.924 386.198 129.357 386.758 122.658C370.586 122.658 390.927 98.8797 393.872 93.349L393.956 93.187C395.157 90.7921 395.121 93.4823 394.591 89.7781C394.358 88.1494 393.244 86.345 392.614 84.8479C391.241 81.5793 389.757 78.3608 388.172 75.19C384.822 68.4926 381.028 62.0211 376.888 55.7817C373.16 58.3775 369.801 61.4505 366.688 64.7477C368.684 59.5283 374.785 53.062 372.176 47.1351C369.757 41.6412 361.68 42.0222 356.909 43.0266C343.946 45.7584 331.514 49.7371 319.165 54.3435C322.923 56.4974 328.642 54.9004 332.446 53.2541L333.784 52.6662C338.164 50.7479 342.821 48.8231 347.487 47.8114L347.763 47.7537C352.148 46.8679 357.695 47.3021 356.443 53.1347C355.45 57.7591 351.071 62.2197 347.966 65.759L347.569 66.2153C340.704 74.1648 332.096 80.3186 323.64 86.4671C314.551 93.0771 305.793 100.259 296.589 106.676C279.951 118.279 262.062 128.363 244.872 139.193C236.227 144.639 226.469 149.055 217.069 153.115L216.13 153.52C205.473 158.108 195.256 163.02 184.2 166.644C178.469 168.522 172.786 170.091 167.149 172.153L165.941 172.603C162.16 174.038 155.574 176.914 153.076 172.653C148.001 163.998 166.365 152.617 171.398 147.325C174.869 150.695 157.749 163.253 159.089 168.16C160.142 172.015 164.214 167.037 166.181 165.985C169.359 164.287 173.122 163.433 176.316 161.495L178.261 160.311C184.322 156.591 190.779 152.134 192.129 144.719C191.088 143.621 191.101 142.608 192.168 141.679C192.642 141.114 193.019 140.494 193.297 139.818C193.763 138.527 193.95 136.91 194.2 135.541C194.937 131.494 193.086 127.705 194.816 123.744C185.599 130.725 176.707 138.532 167.936 146.136L165.434 148.303C156.951 155.629 148.104 165.192 144.837 176.089L144.71 176.526C144.305 177.945 143.633 179.555 143.706 181.053L143.732 181.519C143.89 183.927 144.278 183.413 146.514 184.305C148.79 185.213 152.062 185.174 154.576 185.259L154.886 185.27C156.34 185.326 162.83 183.789 161.539 186.976C160.796 188.813 156.296 188.744 154.685 188.914L154.086 188.973C150.431 189.308 148.547 189.124 150.365 193.283C151.224 195.246 152.963 196.576 154.328 198.095C158.126 202.322 160.188 208.806 163.175 213.773C166.367 219.077 169.854 224.137 173.553 229.091L174.296 230.08C175.936 232.254 178.129 236.34 180.403 237.892C182.526 239.341 180.027 239.221 183.554 238.632C185.092 238.377 186.485 237.377 187.956 237.019C196.162 235.021 204.582 232.785 213.062 230.348L214.88 229.822C226.51 226.442 238.716 223.559 249.813 218.692C259.754 214.329 269.621 209.137 279.666 204.719C282.599 203.43 285.529 202.575 287.809 200.202C290.562 197.338 292.84 193.589 295.378 190.511C299.695 185.275 303.674 179.949 308.32 174.987L310.076 173.106C313.62 169.326 318.653 164.206 322.788 162.958C332.06 160.158 327.097 174.274 325.898 177.841C328.078 178.335 329.224 175.541 331.782 176.345C334.844 177.308 335.162 181.379 335.545 183.93C335.646 184.609 334.726 185.88 335.006 186.486C335.101 186.693 337.099 187.874 337.485 188.421C338.885 190.41 338.609 192.828 338.079 194.973C335.335 206.082 325.582 214.194 318.409 222.389C321.618 221.782 323.997 219.954 327.026 219.048C329.869 218.198 332.727 218.242 335.593 217.999C338.593 217.743 341.476 216.621 344.545 216.564C347.766 216.504 350.851 217.421 354.045 217.785C362.043 220.584 369.375 224.323 375.262 230.67C380.351 236.158 382.743 245.828 383.984 253.021C387.058 270.823 381.127 287.323 377.216 304.352C375.233 312.991 372.27 321.304 369.497 329.72C367.076 337.068 365 344.764 361.657 351.752C358.823 357.677 355.203 363.518 352.709 369.665L352.628 369.873C351.28 373.42 349.092 384.252 344.102 380.758L343.946 381.16C342.689 384.37 342.431 384.177 343.86 386.603C344.903 388.374 348.363 390.811 350.141 392.313L350.303 392.451C354.889 396.415 360.698 399.681 366.078 402.456C375.932 407.539 386.495 411.342 396.643 415.976L397.494 416.369C401.719 418.345 405.931 420.818 404.987 426.315C404.144 431.232 401.297 434.961 396.857 437.149C392.689 439.204 386.725 440.79 382.139 441.434C379.418 441.817 378.794 440.686 376.576 440.294C374.107 439.859 371.225 440.7 368.678 440.679C357.244 440.579 347.233 437.703 337.994 431.076C334.692 428.708 329.831 422.283 325.51 422.284C323.301 422.284 323.767 423.625 321.825 424.412C320.247 425.051 317.918 424.476 315.839 423.886L314.507 423.505C313.933 423.344 313.402 423.205 312.938 423.121L311.842 422.919C307.183 422.051 302.566 420.959 299.465 416.95C295.85 412.278 297.135 406.491 298.689 401.302C300.44 395.454 303.387 389.52 304.639 383.583C304.944 382.138 305.225 379.446 304.915 377.977C304.434 375.697 302.131 374.337 302.062 371.868C302.04 371.118 303.115 370.127 303.303 369.352C303.719 367.65 303.654 365.883 303.825 364.151C304.103 361.341 304.711 358.639 305.184 355.876L305.322 355.045C306.385 348.362 308.442 342.374 310.475 335.969L310.719 335.199C312.716 328.862 314.618 324.106 318.382 318.656L319.037 317.716C321.418 314.249 327.405 304.781 324.233 301.95C319.752 310.747 314.529 317.651 307.743 324.649L307.278 325.126C301.913 330.605 296.669 337.971 289.955 341.872C282.573 346.162 273.553 348.686 265.402 350.955C261.525 352.033 258.308 354.425 254.128 354.868C249.598 355.347 244.988 354.782 240.552 353.773C239.303 353.489 235.701 351.571 234.571 351.693C232.907 351.874 230.512 354.839 228.685 355.384C224.318 356.686 221.311 354.266 218.01 351.962L217.13 351.353C214.007 349.213 212.78 348.644 208.838 348.359C203.871 348 199.035 346.306 194.154 345.184L193.544 345.046C184.597 343.084 176.992 339.108 168.86 334.946C159.538 330.176 151.565 323.597 144.538 315.826C134.209 304.401 119.824 272.742 136.697 261.658C126.764 260.309 117.666 255.974 116.456 244.737C115.823 238.857 117.014 232.344 118.493 226.676C119.168 224.088 119.973 221.516 120.745 218.955C121.325 218.09 121.633 217.143 121.665 216.115C122.021 214.782 121.507 214.118 120.123 214.124L119.726 213.656C117.309 210.786 115.513 208.145 115.011 204.026L114.976 203.721C114.829 202.354 114.766 200.458 115.675 199.372C116.128 198.901 116.675 198.587 117.314 198.429C118.847 198.517 119.28 197.762 118.614 196.165C119.358 193.903 118.254 192.14 121.059 191.195C121.959 191.387 122.854 191.596 123.746 191.822C124.884 192.341 125.624 191.965 125.968 190.698C128.611 189.664 127.391 188.136 130.983 189.466C133.156 190.271 135.224 191.658 136.806 193.346C138.792 192.072 134.277 184.199 134.126 181.687C133.769 175.766 136.218 170.871 139.404 166.007C145.598 156.556 154.243 148.429 162.768 141.117C179.097 127.113 196.252 113.782 214.69 102.625C207.084 97.3449 198.197 95.9137 189.147 98.3675C180.803 100.63 174.04 104.739 166.359 108.333L165.932 108.53C158.944 111.712 151.647 112.847 149.423 103.945C146.881 93.7715 154.991 89.9946 162.265 85.4324C160.526 84.1358 154.971 84.968 152.516 85.1818L152.208 85.2064C147.17 85.5622 142.353 86.6991 137.457 87.7044C135.109 88.1858 132.952 88.0776 130.626 88.5495C127.169 89.2508 123.558 90.037 120.06 91.0362C111.737 93.4156 103.476 97.0263 96.2838 101.892C90.0677 106.094 85.7554 112.029 80.7473 117.495L79.3903 118.975C74.148 124.677 68.8909 130.041 61.0954 132.141L60.5153 132.295C56.6848 133.293 52.3435 134.008 49.6683 130.64C47.0529 127.349 46.9073 123.382 46.9931 119.358C47.182 110.469 51.4786 100.863 56.4764 93.5992C61.9013 85.7146 69.1669 81.1991 76.0322 74.8523C66.1095 75.5615 56.5197 80.7896 47.3943 84.4028C45.4739 85.1639 43.5354 86.0185 41.6046 86.7225C39.5455 87.4732 38.1815 87.0134 36.2091 87.3572C31.7071 88.1425 27.8403 90.0388 23.4613 87.0152C15.1766 81.2961 23.4769 69.6615 29.1809 66.0915C37.1259 61.1197 45.2088 56.9333 53.9615 53.3867C49.2229 48.2495 53.2699 40.9182 57.6376 37.2738C62.9008 32.8818 69.534 30.2757 75.9061 27.905L76.8598 27.551C82.1261 25.5985 87.298 23.7239 92.7689 22.5489C98.3454 21.3516 104.838 19.5412 110.547 19.5976L111.08 19.6084C116.553 19.7781 121.406 18.8144 126.949 18.6603C131.561 18.5322 136.183 18.643 140.794 18.5235C151.13 18.2566 161.497 18.7925 171.68 19.4944L174.072 19.4907C173.933 19.5425 173.794 19.5908 173.655 19.633C175.034 19.7304 176.409 19.8306 177.78 19.9314C168.173 -8.1486 231.455 0.523034 244.956 4.19084ZM308.528 389.13C308.15 391.154 308.035 392.834 308.13 394.892C307.878 397.993 307.247 401.046 306.546 404.071C306.293 405.158 304.874 408.586 305.123 409.808L305.227 410.356C305.443 411.572 305.179 410.643 306.756 411.581C308.602 412.681 310.751 412.614 312.772 412.948C314.019 413.154 318.589 415.304 319.358 414.965C320.701 414.371 320.659 412.278 322.133 411.449C324.142 410.318 327.103 411.287 328.998 412.172C334.064 414.533 337.545 419.423 342.448 422.1C350.976 426.755 361.063 429.375 370.602 430.5L371.197 430.568C376.313 431.14 381.544 432.132 386.607 431.054L387.447 430.865C391.48 429.986 396.528 429.931 398.681 425.684L396.26 425.025C376.523 419.689 348.401 412.687 340.893 390.908C336.706 394.703 329.749 392.746 324.631 392.178L324.4 392.153C318.748 391.569 313.697 391.705 308.528 389.13ZM310.089 378.528L310.086 379.893C310.096 382.475 310.371 382.59 313.966 383.319C316.859 383.905 319.792 384.235 322.715 384.644C327.862 385.363 333.575 387.382 338.785 386.345L338.763 386.206C338.616 385.19 338.231 381.038 337.72 380.607C337.416 380.352 334.606 380.694 334.164 380.69C329.787 381.224 325.583 381.024 321.201 380.488C317.513 380.037 313.758 378.528 310.089 378.528ZM121.281 361.899L122.929 362.447C123.796 362.734 124.557 362.967 125.069 363.024L125.759 363.341C127.736 364.272 130.819 365.993 129.423 368.505C127.829 371.376 123.342 368.76 121.461 367.418L121.124 367.171C120.026 366.351 115.869 363.137 116.054 362.016C116.309 360.459 118.861 361.112 121.281 361.899ZM67.527 356.639C68.4659 357.345 71.6892 357.965 71.0408 359.462C69.3373 363.395 60.9795 354.411 61.1461 351.767C64.5446 351.222 65.3374 354.995 67.527 356.639ZM287.745 210.155C274.813 215.699 262.511 223.244 249.77 229.169C236.946 235.132 222.48 239.339 208.761 242.694C202.922 244.122 196.209 244.574 190.854 247.396C188.579 248.594 186.33 249.981 183.893 250.674C183.173 252.054 182.464 252.325 181.766 251.485C181.329 250.995 180.764 250.788 180.07 250.864C178.694 251.097 177.293 251.714 175.989 252.233L175.665 252.36C169.315 254.821 163.207 257.84 157.166 260.966L152.762 263.252C150.365 264.497 147.963 265.768 145.684 267.186C144.055 268.199 142.596 269.221 141.263 270.612C139.666 272.28 140.046 273.651 137.461 272.465C125.631 303.595 167.202 329.806 192.791 335.603C196.336 336.405 199.795 337.457 203.323 338.319C207.17 339.259 210.586 339.072 214.426 339.465C217.481 339.777 218.937 342.137 221.816 342.787C226.627 343.873 226.332 340.26 226.677 336.388C228.137 319.972 236.52 304.133 245.391 290.435C241.339 288.985 237.324 287.404 233.323 285.817C229.9 284.459 224.658 280.642 220.978 280.44C218.256 280.291 214.109 282.614 211.465 283.633C207.356 285.218 203.236 286.584 198.974 287.7L196.817 288.253C189.329 290.183 181.136 292.597 173.444 292.909L172.804 292.93C170.411 292.99 163.845 294.105 162.122 292.626C158.838 289.807 163.397 287.457 166.146 286.45C182.533 280.453 199.932 277.903 216.366 271.754C224.822 268.588 233.191 265.055 241.701 261.937C249.036 259.25 256.719 256.87 263.808 253.565C273.17 249.201 282.572 243.764 290.678 237.359C292.301 236.078 295.7 234.174 296.813 232.317C297.792 230.682 297.669 232.312 297.466 230.33C297.32 228.906 295.577 226.976 294.86 225.631C292.189 220.615 289.774 215.463 287.745 210.155ZM139.081 338.609C137.379 338.778 130.193 336.52 132.855 333.497C134.724 331.375 139.692 336.687 139.081 338.609ZM106.689 338.525C104.218 338.878 103.455 338.29 102.946 335.522C104.922 335.317 106.35 336.509 106.689 338.525ZM14.0504 317.771C17.8 318.959 32.2545 333.548 21.9243 332.989C17.4202 332.647 13.5661 329.244 11.5872 325.215L11.4847 325.002C9.84717 321.536 8.2972 315.949 14.0504 317.771ZM564.643 231.981C561.21 233.547 559.039 239.423 557.305 242.67L557.204 242.858C554.849 247.163 552.779 251.681 550.162 255.853L549.299 257.235C544.839 264.401 540.379 271.898 534.776 278.149L534.23 278.75C531.408 281.816 529.018 285.265 525.763 288.028C524.275 289.289 521.429 290.326 520.333 291.904C519.299 293.393 520.456 294.346 520.063 296.126C519.66 297.952 517.812 299.898 517.019 301.657C515.977 303.966 515.007 306.28 513.845 308.539C512.577 311.001 512.231 312.289 511.889 314.696C511.515 317.327 512.661 317.6 510.362 320.025L527.079 327.393L527.968 325.727C529.113 324.615 530.166 321.874 530.821 320.406C533.558 314.279 536.65 308.129 539.783 302.044C534.789 294.998 539.947 291.925 544.009 286.077C547.257 281.399 550.245 276.242 552.304 271.018L553.349 268.357C558.077 256.287 562.273 244.861 564.643 231.981ZM53.0328 324.105C51.3423 324.781 45.2455 323.391 47.1624 320.744C48.9884 318.225 53.0353 322.014 53.0328 324.105ZM71.9966 301.091L72.0372 301.138C73.8468 303.192 79.7635 307.119 77.4675 310.393C73.926 311.199 70.4223 308.868 68.2443 306.239C66.8893 304.601 63.7351 298.861 65.3242 296.498C67.5138 293.24 70.807 299.676 71.9966 301.091ZM507.981 292.471L499.755 308.01C501.707 308.839 503.744 309.646 505.873 309.932C506.928 306.403 507.984 302.894 509.218 299.419L509.472 298.719C510.669 295.476 511.075 295.019 507.981 292.471ZM248.541 268.612L248.442 268.65C245.681 269.694 243.076 270.744 240.375 271.991C237.831 273.165 232.811 274.214 230.848 276.078C234.811 278.027 238.857 279.518 242.999 281.042C244.839 281.718 247.706 283.491 249.736 283.046C251.398 282.68 251.931 280.15 252.805 278.456C255.998 272.258 259.811 267.259 264.539 262.149C262.37 260.568 251.457 267.445 248.541 268.612ZM96.9859 269.198C94.0921 272.591 90.0086 264.514 89.8437 262.658C92.1795 261.68 98.9217 266.93 96.9859 269.198ZM19.5446 251.739C22.1155 254.078 27.286 260.725 26.7953 264.35C26.1513 269.104 20.9128 267.755 18.1973 265.269C15.4138 262.721 14.185 258.073 13.7257 254.538L13.772 254.256C14.4236 250.45 15.8924 248.418 19.5446 251.739ZM18.3848 261.544C19.3899 262.825 20.4391 260.412 20.5888 259.891C19.4183 257.18 17.3221 260.19 18.3848 261.544ZM129.533 211.849L129.163 212.018C126.106 213.429 125.37 214.226 124.834 217.484L124.802 217.678C124.234 221.29 123.706 224.9 123.075 228.502C125.135 227.429 125.51 225.112 126.853 223.443L128.364 226.191C129.073 225.794 129.735 225.814 130.349 226.255C131.343 227.782 130.718 230.046 130.412 231.648C133.726 231.338 135.127 235.034 131.786 236.531C128.325 238.081 126.764 233.854 126.647 231.116C125.355 232.658 124.029 231.833 123.129 232.625C122.265 233.386 121.904 234.937 121.593 236.659L121.555 236.876C121.029 239.846 119.683 244.132 120.928 247.111C122.777 251.537 128.671 253.839 133.009 254.383C142.32 254.945 151.146 250.541 156.876 243.111L157.347 242.499C158.6 240.862 159.827 239.171 160.58 237.244L161.13 235.596C162.019 234.078 161.629 233.362 159.963 233.448C159.024 232.161 156.643 231.728 157.321 229.395C157.831 227.635 159.713 227.606 161.349 227.053L161.088 226.62C160.417 225.526 159.917 224.863 158.881 223.781L157.693 224.851C154.579 227.622 150.095 231.103 148.221 225.594C147.198 222.589 148.999 219.717 148.552 216.818C148.369 215.619 146.848 212.557 145.967 211.84C141.273 208.02 134.513 209.601 129.533 211.849ZM136.734 240.088C140.051 240.092 139.436 243.924 137.834 245.981C133.5 251.544 123.818 245.511 127.456 240.107C128.825 240.572 131.578 241.973 133.173 241.787C134.45 241.637 135.503 240.086 136.734 240.088ZM45.4319 212.071C47.8522 212.728 48.2521 218.451 49.238 220.443C52.9097 227.861 61.337 232.48 64.243 240.136C67.4868 248.686 57.6797 248.951 52.4759 245.489C46.3141 241.389 42.7488 231.351 42.5659 224.197C42.2026 222.413 42.3506 211.232 45.4319 212.071ZM165.502 234.475C166.45 238.926 164.311 242.885 162.841 246.948L173.448 242.2C171.534 239.023 168.091 237.186 165.502 234.475ZM54.999 238.841L54.9519 238.958C54.4399 240.289 53.4268 244.713 55.7072 243.673C57.7846 242.725 56.4388 239.581 54.999 238.841ZM140.99 220.133C145.513 221.299 143.26 231.242 139.459 231.925C134.983 232.73 134.203 224.646 135.087 221.724C137.391 223.092 135.964 227.973 138.867 226.624C140.713 225.765 140.433 221.795 140.99 220.133ZM299.662 194.937C298.147 196.688 294.566 199.018 293.711 201.06C293.203 202.275 293.13 206.132 293.376 207.251C293.888 209.589 296.483 212.389 297.639 214.566C299.101 217.322 300.374 220.186 301.016 223.251C306.791 220.639 312.266 216.006 317.002 211.859C322.441 207.096 327.317 202.106 331.298 195.943C328.902 196.066 323.612 203.768 323.554 195.383C323.523 191.104 329.389 186.891 331.209 182.923C326.68 180.367 322.53 195.637 317.334 191.936C312.328 188.369 320.226 176.107 321.748 172.238C318.812 170.286 302.083 192.141 299.662 194.937ZM76.034 207.037C79.6811 207.069 88.033 220.168 80.6576 220.756L80.2322 220.556C77.6209 219.306 75.2465 217.761 74.1875 214.843C73.4773 212.883 72.8811 207.01 76.034 207.037ZM5.8189 178.044L5.89323 178.239C7.10829 181.559 8.31775 191.66 1.93484 186.032C-0.0528114 184.279 -0.352766 182.09 0.332071 179.684C1.32228 176.196 2.76333 176.888 5.8189 178.044ZM40.1979 154.031C43.2298 153.983 42.3966 157.407 42.0696 158.682C41.0763 162.554 40.6613 165.814 40.8815 170.034L40.9085 170.507C41.206 175.271 43.463 186.582 35.9796 186.424C29.0083 187.204 28.6593 174.363 29.8533 169.954C30.7712 166.564 32.7084 162.93 34.7347 160.108L35.0152 159.724C35.6767 158.847 39.4376 154.043 40.1979 154.031ZM35.7222 173.986C34.7477 175.045 34.9208 176.559 35.012 178.351C36.3493 176.546 36.4845 175.582 35.7222 173.986ZM66.2505 164.259L66.3492 164.798C66.7736 167.038 68.2992 173.401 66.5927 174.741C64.0659 176.727 60.0464 172.177 59.2338 170.391C57.559 166.715 59.8747 163.098 61.193 159.645C64.7776 159.58 65.724 161.483 66.2505 164.259ZM431.388 41.1088C421.81 42.4684 413.259 46.7423 404.688 51.0811C400.368 53.2686 396.721 56.1061 392.763 58.8529C390.709 60.279 388.835 60.4639 388.701 62.9574C388.6 64.8364 391.85 69.0853 392.728 70.788L393.375 70.1319C403.956 59.4551 415.413 50.7259 431.34 50.1762C450.675 49.5089 462.109 67.8329 462.024 85.3799C461.941 102.588 454.515 119.141 442.678 131.508C437.456 136.964 432.471 141.373 426.142 145.378L425.563 145.741C422.27 147.786 419.841 149.621 416.159 150.979L415.721 151.137C413.584 151.89 413.786 151.578 413.162 153.844C412.598 155.888 413.174 158.973 413.191 161.097L412.586 162.13C416.668 162.324 420.475 158.806 423.966 156.974L424.193 156.856C428.617 154.621 432.565 151.605 436.446 148.529L436.952 148.128C444.085 142.46 451.311 136.073 456.62 128.632L457.333 127.626C468.95 111.106 479.269 90.3821 476.086 69.6575C472.586 46.8651 452.64 38.0916 431.388 41.1088ZM114.176 123.396L113.734 123.791C109.712 127.36 106.641 129.548 105.853 135.2C105.235 139.636 105.85 144.03 105.876 148.499C105.92 155.989 99.8683 163.864 93.3557 155.278C88.6053 149.015 90.3092 139.167 94.1829 132.872C96.2159 129.57 99.1178 126.303 102.47 124.245L102.67 124.125C105.347 122.546 112.137 119.744 114.176 123.396ZM93.5932 149.754C93.5932 154.521 97.465 151.294 97.3267 147.902C97.1243 142.909 93.4128 145.984 93.5932 149.754ZM428.888 57.0659C420.13 58.3559 412.193 62.0634 405.062 66.8363C403.451 67.9149 401.945 69.0704 400.441 70.2604L399.149 71.2878C396.597 73.3226 395.068 73.3762 395.707 76.5653C396.181 78.9362 397.473 81.3926 398.305 83.6676L398.492 84.1909C399.824 88.0177 399.479 88.9725 403.66 87.6353C406.65 87.6836 409.374 86.0653 412.492 86.1552C417.394 86.2969 421.275 90.096 424.12 93.7595C429.75 101.009 428.315 109.754 425.486 117.866C424.133 121.743 422.275 125.464 419.954 128.858C417.899 131.862 414.225 134.704 412.79 138.05C410.874 142.518 413.641 141.828 416.315 140.778L418.119 140.042C421.793 138.559 425.238 136.716 428.356 134.234C442.255 123.17 452.828 107.791 456.37 90.1297C458.098 81.5127 457.965 71.439 451.959 64.4058C446.469 57.9749 436.991 55.8735 428.888 57.0659ZM27.3055 97.3049C32.3139 98.3175 26.5276 104.969 25.6803 106.719C23.2257 111.786 23.2205 116.279 23.2943 121.62L23.3101 122.751C23.3698 127.195 24.2938 134.688 22.052 138.711C19.6904 142.944 14.6009 140.277 11.6892 137.767L11.5862 137.677C7.9348 134.477 5.17711 129.38 5.67251 124.505C6.4967 115.961 9.62416 107.273 16.9813 101.95C18.8007 100.633 20.859 100.68 22.8531 99.849C24.0515 99.35 25.9449 97.0303 27.3055 97.3049ZM363.176 124.113C366.699 124.895 352.708 137.127 350.976 138.44C349.558 135.545 352.975 133.66 354.899 131.794L354.997 131.697C356.239 130.457 361.463 123.733 363.176 124.113ZM405.055 95.6472L403.598 95.9891C402.454 96.2608 401.151 96.6076 400.284 97.1279C398.832 97.9987 398.634 100.038 397.267 98.3416L391.818 108.606C393.626 107.95 397.314 105.168 399.289 105.456C401.608 105.794 402.446 108.566 402.706 110.768L402.738 111.063C402.779 111.489 402.8 111.887 402.806 112.233C399.725 116.516 394.472 122.121 393.374 127.295C396.767 125.305 403.942 115.728 405.79 123.357C406.851 127.736 401.409 132.953 400.072 137.193C405.225 135.499 408.951 130.325 412.202 126.146L412.575 125.668C416.832 120.245 421.179 113.096 422.266 106.199C423.145 100.619 419.271 95.4174 413.516 94.8706C410.71 94.6034 407.786 95.0163 405.055 95.6472ZM352.713 105.389C357.196 109.222 345.98 119.722 343.422 122.102C341.347 124.033 339.111 125.803 336.854 127.529L334.821 129.074C333.788 129.857 328.154 135.097 326.724 134.674C324.074 133.89 327.182 130.842 328.367 129.741L328.57 129.553C331.296 127.041 334.073 124.594 336.765 122.046L337.913 120.948C340.66 118.291 343.635 115.831 346.292 113.088C348.444 110.867 350.252 107.101 352.713 105.389ZM205.268 127.043C205.201 129.47 210.107 134.137 211.936 131.337C213.474 128.985 205.394 122.211 205.268 127.043ZM14.8096 117.861C13.0408 119.017 12.5422 120.151 12.4812 122.817L12.4782 123.237C12.4873 124.698 12.6882 127.973 14.061 127.835C15.4957 127.69 14.8096 119.264 14.8096 117.861ZM220.865 120.356C219.173 121.351 217.077 121.821 215.874 123.424L220.206 125.345L220.729 122.237L220.865 120.356ZM211.642 111.54C206.942 114.55 202.36 117.788 197.781 120.979C199.534 120.979 201.126 120.355 202.87 120.342C204.941 120.324 206.427 121.174 208.446 120.689C212.785 119.648 217.822 114.842 221.489 112.383C221.049 111.339 220.171 107.572 218.867 107.275C217.596 106.986 212.584 110.937 211.642 111.54ZM56.2083 114.89L56.1684 115.606C56.0986 117.181 56.1243 120.554 58.9372 119.548C60.6426 118.938 59.5845 115.383 59.425 114.34C59.9221 114.252 59.705 111.533 58.9224 111.185C56.7032 110.201 56.3092 113.425 56.2083 114.89ZM352.512 75.218C342.544 83.5736 333.08 92.6196 322.241 99.9284C316.937 103.505 311.392 106.67 306.1 110.305C303.404 112.156 300.654 113.813 297.664 115.175L297.433 115.278C294.924 116.383 293.359 116.449 295.486 113.679C296.951 111.773 300.235 110.445 302.231 109.089C305.302 107.003 308.203 104.688 311.433 102.836C317.129 99.5703 322.789 96.934 328.039 92.9288C332.699 89.3753 337.506 85.9051 341.954 82.1283L342.097 82.003C344.159 80.1601 350.24 73.124 352.512 75.218ZM158.494 99.7768C160.396 99.6164 165.313 95.8193 162.733 93.899C160.13 91.9612 158.259 98.4546 158.494 99.7768ZM259.756 86.5235C258.625 87.0688 256.251 89.7842 257.325 90.9822C257.898 91.6226 261.911 90.2256 263.411 90.2215C264.635 91.0011 267.448 94.1095 268.907 94.1644L268.868 93.9233C268.209 90.2941 264.267 84.3483 259.756 86.5235ZM263.292 90.1036L260.172 90.1136C261.211 89.2293 262.251 89.3253 263.292 90.1036ZM99.632 80.0133C95.7629 81.8251 92.2743 83.8905 90.4673 87.9283C93.7409 87.6594 98.0485 83.4996 101.205 81.9454C103.342 80.8939 109.154 79.6404 109.786 77.2529C110.337 75.1781 100.474 79.6189 99.632 80.0133ZM31.8197 72.3036C33.2411 75.9274 40.2706 70.9884 40.5318 68.3302C41.0682 62.8862 31.7463 68.6814 31.8197 72.3036ZM203.576 59.1609C204.31 62.3128 208.493 58.9645 211.113 58.2299C213.714 57.5004 221.077 57.4034 222.113 54.4811C218.483 50.3914 201.47 50.1346 203.576 59.1609ZM333.794 56.1619L336.226 59.2425C338.835 57.226 342.007 55.9251 345.352 56.0103L345.531 56.0181C347.259 56.1202 350.511 56.9978 350.637 54.2102C350.851 49.5153 336.099 55.241 333.794 56.1619ZM428.629 49.594C427.432 50.6528 426.138 49.9482 424.886 50.0093L428.629 49.594ZM114.351 28.4641C106.505 28.6952 98.3145 30.3241 90.8438 32.7595L88.6515 33.4763C85.7091 34.4612 80.5822 36.4622 81.9642 39.145C83.0791 41.3093 89.0908 38.2509 90.9082 37.7408C98.6969 35.5546 106.717 34.1129 114.695 32.7971L114.899 32.7669C117.05 32.478 123.191 32.4272 123.518 29.9793C123.932 26.8911 116.632 28.4606 114.351 28.4641ZM439.86 30.993L436.74 30.9899C437.781 30.6007 438.821 30.7286 439.86 30.993ZM225.056 12.5013L224.24 12.5403C222.095 12.6664 212.745 13.42 216.947 17.4631C218.471 18.9288 223.935 18.4668 226.191 19.0638C226.595 17.2118 247.446 22.697 250.344 23.8046L250.516 23.8741C252.103 24.5417 258.974 28.017 257.46 22.5027C256.581 19.2978 248.277 16.8547 245.617 15.9764C239.021 13.8004 232.075 12.2368 225.056 12.5013Z" fill="#101F18"/>
<path fill-rule="evenodd" clip-rule="evenodd" d="M113.964 225.263C114.012 224.497 114.163 223.739 114.427 223.012C114.419 223.032 114.412 223.053 114.404 223.073C114.421 223.027 114.438 222.981 114.454 222.935C114.448 222.953 114.441 222.97 114.435 222.988C116.708 217.07 123.632 214.006 127.816 219.826C127.767 219.784 127.718 219.742 127.669 219.699C132.741 225.513 131.183 216.584 140.611 214.683C144.817 214.037 148.643 216.959 151.43 219.7C152.975 220.831 153.434 223.207 153.467 225.512C153.541 230.699 149.473 234.043 144.316 235.141C139.658 236.133 137.219 234.449 132.452 230.665C131.597 229.987 129.866 229.081 128.084 229.586C126.458 230.047 126.382 230.688 125.389 232.405C119.711 242.216 113.838 232.108 113.964 225.263Z" fill="#34654E"/>
<path d="M145.111 221.07C142.467 221.155 139.538 221.845 137.284 222.924L137.159 222.984L137.114 223.007L137.109 223.008C137.088 223.015 137.066 223.022 137.045 223.031L137.013 223.045L136.98 223.062L136.952 223.077L136.701 223.224L136.606 223.281C136.487 223.353 136.396 223.413 136.307 223.477L136.273 223.501L136.209 223.549C134.588 224.818 134.274 226.518 135.378 227.845C136.315 228.971 138.015 229.476 139.616 229.099L139.685 229.082L139.734 229.069L139.768 229.068C140.857 228.998 143.161 227.598 144.988 225.95L145.054 225.889L145.12 225.829L145.247 225.711L145.374 225.589C146.403 224.601 147.023 223.729 147.188 222.998C147.444 221.864 146.664 221.149 145.165 221.071L145.138 221.07L145.111 221.07Z" fill="#101F18"/>
<path fill-rule="evenodd" clip-rule="evenodd" d="M137.394 224.387C137.553 224.268 137.728 224.172 137.9 224.072C137.881 224.084 137.864 224.096 137.846 224.108C139.612 223.207 141.913 222.7 143.814 222.637C147.486 222.818 141.003 227.742 139.692 227.659C137.42 228.303 135.133 226.135 137.394 224.387Z" fill="white"/>
<path d="M118.901 224.277L118.788 224.294C117.748 224.458 117.082 224.823 116.81 225.453C116.779 225.526 116.764 225.604 116.765 225.683C116.794 226.94 117.431 227.856 119.071 229.128L119.147 229.187L119.721 229.618L120.089 229.896L120.199 229.98C120.269 230.035 120.332 230.085 120.392 230.133L120.477 230.204L120.561 230.274C120.583 230.293 120.606 230.31 120.631 230.325C122.066 231.199 123.42 231.38 124.499 230.843C125.448 230.372 126.058 229.386 126.14 228.235C126.222 227.082 125.762 225.958 124.88 225.196C124.208 224.615 122.786 224.288 120.613 224.215L120.45 224.207C120.346 224.204 120.237 224.201 120.125 224.201C119.777 224.199 119.444 224.215 119.131 224.248L119.015 224.262L118.901 224.277Z" fill="#101F18"/>
<path fill-rule="evenodd" clip-rule="evenodd" d="M119.499 225.686C119.879 225.606 121.801 225.658 122.098 225.68C125.768 225.955 124.607 231.297 121.149 229.139C120.264 228.365 118.765 227.578 118.732 226.27C118.881 225.916 119.167 225.756 119.499 225.686Z" fill="white"/>
<path fill-rule="evenodd" clip-rule="evenodd" d="M140.94 215.448C143.96 215.033 147.234 216.608 150.945 220.26C150.973 220.287 151.003 220.313 151.035 220.336C152.115 221.127 152.705 222.918 152.742 225.513C152.815 230.656 148.409 233.432 144.262 234.316C139.922 235.241 137.7 233.659 133.086 229.995C131.885 229.041 129.909 228.217 127.966 228.768C126.263 229.251 125.833 230.038 125.182 231.23C125.059 231.455 124.923 231.705 124.761 231.984C123.655 233.897 121.92 236.071 119.939 235.562C117.582 234.958 114.81 230.228 114.894 225.255C114.94 224.554 115.079 223.88 115.307 223.25L115.308 223.249C115.31 223.244 115.311 223.239 115.313 223.234C116.478 220.205 119.03 217.923 121.663 217.555L121.677 217.553C123.694 217.275 125.517 218.099 126.972 219.94C127.005 220.038 127.057 220.132 127.129 220.214C128.513 221.8 129.54 222.465 130.563 222.435C131.771 222.403 132.571 221.416 133.494 220.274C134.849 218.598 136.705 216.304 140.852 215.461C140.881 215.457 140.911 215.453 140.94 215.448ZM143.533 236.12C143.874 236.073 144.225 236.011 144.587 235.934C150.725 234.626 154.492 230.613 154.418 225.461C154.374 222.327 153.594 220.167 152.099 219.037C147.962 214.98 144.2 213.27 140.603 213.829C140.59 213.831 140.577 213.833 140.564 213.835C135.796 214.797 133.627 217.48 132.191 219.255C131.534 220.067 130.969 220.767 130.544 220.781C130.26 220.789 129.707 220.548 128.664 219.408C128.646 219.373 128.625 219.34 128.602 219.307C126.757 216.74 124.226 215.535 121.474 215.913L121.457 215.916C118.204 216.37 115.204 218.977 113.786 222.57C113.775 222.595 113.765 222.619 113.756 222.645L113.716 222.753C113.712 222.766 113.707 222.779 113.703 222.792C113.435 223.554 113.272 224.363 113.22 225.199C113.219 225.212 113.218 225.224 113.218 225.236C113.129 230.085 115.793 236.217 119.49 237.165C121.155 237.592 123.673 237.179 126.213 232.786C126.382 232.493 126.526 232.231 126.654 231.996C127.265 230.878 127.393 230.645 128.402 230.359C130.113 229.873 131.718 231.051 132.022 231.293C136.454 234.812 139.122 236.726 143.533 236.12Z" fill="#101F18"/>
</svg>
