<svg width="599" height="195" viewBox="0 0 599 195" fill="none" xmlns="http://www.w3.org/2000/svg">
<path fill-rule="evenodd" clip-rule="evenodd" d="M92.075 74.9961C93.6481 68.8794 95.1308 62.6295 97.4649 56.7513C98.9259 53.0727 100.474 49.4274 102.024 45.7861C102.239 45.2806 102.33 44.7934 102.749 44.5417C103.307 44.2054 104.463 44.2126 105.094 44.0972C114.05 42.4545 123.099 41.2008 132.178 40.4955C142.538 39.6908 152.639 40.0589 162.891 41.7472C171.658 43.191 180.339 45.181 188.925 47.4597C190.187 47.7944 191.448 48.1367 192.705 48.4882C193.291 48.6521 194.264 48.7357 194.775 49.0777C195.867 49.8085 196.238 52.8035 196.647 54.0723C197.195 55.773 197.515 58.1094 198.572 59.5562C200.146 61.7098 202.541 63.578 204.493 65.3683C211.302 71.6167 218.766 77.3165 227.56 80.4057C241.164 85.1847 255.51 88.1801 269.604 91.1414C269.932 91.2103 270.26 91.2789 270.588 91.3468C266.939 95.3869 263.291 99.427 259.643 103.467C257.586 105.745 255.529 108.022 253.472 110.3C252.415 111.471 252.531 111.68 251.035 111.353C243.541 109.718 236.06 107.936 228.702 105.763C225.095 104.698 221.426 103.592 218.07 101.867C213.451 99.4929 209.115 96.558 204.895 93.5434C201.123 90.8485 197.439 88.0294 193.822 85.1303C193.109 84.5589 190.536 81.8038 189.701 81.9834C188.981 82.1383 187.735 83.7761 187.208 84.253C185.814 85.5149 184.415 86.7708 183.006 88.0165C180.765 89.9983 178.476 92.4259 175.858 93.9175C173.099 95.4898 169.938 96.5607 167.026 97.8127C165.402 98.5107 163.776 99.2063 162.15 99.9001C161.725 100.081 161.132 100.475 160.674 100.485C159.319 100.514 157.351 99.412 156.094 98.9828C152.864 97.8803 149.658 96.7081 146.486 95.451C139.711 92.7669 132.266 89.8507 126.691 85.0205C125.718 84.1782 124.768 83.235 124.124 82.1094C123.901 81.719 123.569 81.1756 123.546 80.7149C123.51 79.9802 123.923 79.8358 124.537 79.3766C127.708 77.0065 131.128 74.9407 134.491 72.8578C135.281 72.3685 136.072 71.8813 136.867 71.399L97.5746 74.5543C95.7414 74.7016 93.9082 74.8487 92.075 74.9961Z" fill="#CAA038"/>
<path fill-rule="evenodd" clip-rule="evenodd" d="M150.584 0.18235C154.735 0.371688 158.991 0.564639 163.106 1.14891C167.208 1.73107 171.036 3.22019 174.743 5.02327C181.428 8.27423 188.26 12.226 192.559 18.4792C194.57 21.403 196.209 24.4643 198.984 26.7659C199.633 27.3041 200.341 27.951 201.202 28.1156C201.887 28.2466 202.491 27.9693 203.162 27.9362C204.442 27.8727 204.927 28.5476 204.927 29.8194C205.888 29.4359 206.935 29.0888 207.983 29.2297C208.859 29.3477 209.556 29.876 210.397 30.0981C211.915 30.4991 213.401 29.8994 214.844 29.4527C218.491 28.3245 222.496 27.4702 226.327 27.8727C228.851 28.1379 231.908 29.2321 230.602 32.4824C229.518 35.1786 225.466 36.5434 222.906 37.2141C220.729 37.7848 217.802 37.2755 217.986 40.2793C218.114 42.3759 218.432 44.6251 220.66 45.3054C221.882 45.6783 226.211 46.234 223.683 48.1259C221.816 49.5229 221.165 51.9819 219.745 53.8286C217.935 56.1825 215.481 58.0856 212.613 58.9447C209.404 59.9061 206.008 59.7216 202.712 60.0945C205.034 63.2985 208.386 65.5023 211.437 67.9387C214.646 70.5006 217.741 73.3004 221.454 75.1266C224.782 76.7635 228.378 77.9002 231.816 79.2881C235.426 80.746 239.062 82.1869 242.788 83.3226C250.305 85.6134 258.212 87.2136 265.94 88.6187C269.754 89.3122 273.493 89.2105 277.346 89.2722C281.297 89.3357 285.247 90.0286 289.126 90.7402C291.006 91.0855 292.905 91.3031 294.785 91.6469C295.687 91.8119 299.259 92.1755 299.387 93.4969C299.596 95.6492 297.268 96.8557 295.563 97.4559C294.835 97.7123 293.663 97.675 293.032 98.0275C292.35 98.4089 292.616 98.9703 292.538 99.7087C292.425 100.782 291.85 101.554 290.97 102.149C290.246 102.639 289.373 102.62 289.872 103.547C290.102 103.975 290.678 104.244 290.944 104.696C291.247 105.21 291.387 105.774 291.325 106.367C291.218 107.403 290.533 108.194 289.577 108.561C288.05 109.147 286.258 108.732 284.694 108.542C282.077 108.224 279.421 108.192 276.839 107.619C274.147 107.022 271.527 106.103 268.831 105.491C267.449 105.178 266.064 104.915 264.714 104.48C263.835 104.198 262.564 103.464 261.628 103.694C260.752 103.909 260.066 104.967 259.493 105.582C258.702 106.429 257.936 107.3 257.132 108.136C256.599 108.689 256.053 109.232 255.471 109.734C255.282 109.897 254.114 110.611 254.098 110.803C254.053 111.344 255.327 111.335 255.601 111.55C257.187 112.804 254.803 113.598 253.774 113.535C251.403 113.39 249.02 113.099 246.671 112.751C241.079 111.921 235.502 111.026 230.155 109.153C224.867 107.3 219.706 105.33 214.814 102.568C210.119 99.9176 205.577 96.921 201.142 93.8582C198.99 92.3717 196.823 90.8317 195.006 88.9384C193.229 87.0865 191.78 84.9605 190.306 82.8681C186.777 86.2765 183.381 89.8607 179.59 92.9852C175.983 95.9574 171.648 97.5453 167.453 99.4757C167.589 100.353 171.689 100.878 172.438 101.106C175.858 102.147 179.139 103.816 182.466 105.126C187.999 107.304 193.25 110.139 195.093 116.189C196.905 122.138 194.803 128.125 192.24 133.499C189.215 139.843 185.622 145.718 181.278 151.248C179.43 153.601 177.44 155.767 175.412 157.958C173.682 159.827 172.199 162.041 172.924 164.698C174.316 164.263 174.571 165.349 173.661 166.269C172.852 167.086 171.453 167.245 170.373 167.38C167.098 167.791 163.715 167.646 160.436 167.34C154.466 166.784 148.483 165.278 143.079 162.686C140.39 161.396 139.417 163.475 137.567 165.086C136.112 166.353 134.109 167.175 133.003 168.814C132.093 170.163 132.687 172.294 134.577 171.789C136.047 171.395 137.228 169.755 138.785 169.692C141.549 169.58 136.334 173.523 135.667 174.004C136.988 175.185 138.486 173.566 139.818 173.295C141.095 173.036 141.452 173.697 140.771 174.762C140.24 175.592 138.573 176.18 139.682 177.19C140.601 178.026 142.638 178.467 143.766 178.833C147.285 179.978 150.786 180.792 154.45 181.314C155.634 181.483 157.53 181.375 158.49 182.214C159.755 183.32 159.145 185.153 158.504 186.42C156.079 191.221 151.035 193.58 145.855 193.926C142.665 194.138 139.445 193.932 136.244 194.105C132.737 194.293 129.223 194.574 125.708 194.458C120.057 194.272 116.462 190.188 113.645 185.697C111.855 182.844 110.206 179.907 108.656 176.918C108.051 175.75 106.784 174.54 106.568 173.227C106.373 172.046 107.127 171.098 107.86 170.262C109.787 168.063 112.107 166.383 114.373 164.566C115.666 163.528 116.164 162.669 116.74 161.158C117.225 159.887 118.157 159.343 118.978 158.329C119.881 157.212 119.597 157.015 118.893 156.103C118.156 155.148 118.446 153.741 118.755 152.66C119.199 151.109 120.151 150.768 121.573 150.268C122.87 149.813 123.969 149.014 125.119 148.273C130.798 144.611 136.15 140.467 141.899 136.907C147.571 133.396 153.5 130.293 158.913 126.374C154.517 125.783 150.641 123.41 146.494 122.005C144.366 121.283 142.258 120.513 140.199 119.61C139.413 119.266 138.497 118.959 137.795 118.452C137.09 117.943 136.549 117.273 135.81 116.791C134.057 115.647 131.972 114.996 130.087 114.104C128.051 113.141 126.041 112.089 124.149 110.864C122.383 109.72 120.687 108.412 119.218 106.901C118.048 105.697 116.91 104.128 115.254 103.575C115.427 105.882 118.285 107.792 119.852 109.18C122.393 111.433 125.035 113.347 127.876 115.207C124.69 117.937 120.806 119.714 117.074 121.558C112.879 123.631 108.801 125.929 104.622 128.034C101.082 129.817 97.3582 131.191 93.7603 132.848C89.8785 134.635 85.8832 136.134 81.8331 137.494C78.1678 138.725 74.7171 140.038 71.2586 141.765C67.8965 143.445 64.2992 144.729 60.7025 145.807C56.6614 147.018 52.8061 148.17 48.9194 149.831C45.4149 151.328 41.8959 152.285 38.1869 153.098C36.9618 153.367 35.3887 153.861 34.5306 152.675C33.8803 151.776 33.7824 150.39 33.5957 149.333C32.8807 145.288 32.8241 141.178 32.181 137.127C29.7395 137.863 27.4272 138.77 24.8515 138.886C23.2323 138.96 22.2484 139.127 21.8449 140.894C22.7816 141 26.1284 141.046 26.2187 142.373C26.3006 143.57 24.2755 143.582 23.5575 143.615C22.2725 143.673 21.1079 143.462 20.422 144.72C21.4324 145.093 23.6728 144.413 24.1202 145.772C24.6967 147.525 22.0786 147.52 21.1365 147.662C19.4929 147.908 19.6618 149.198 19.7744 150.578C19.9225 152.393 20.0348 154.21 20.2799 156.016C20.8038 159.875 21.701 163.675 22.1258 167.548C22.4931 170.897 22.6991 174.113 20.3052 176.782C19.3427 177.855 18.0047 179.09 16.492 179.218C14.9568 179.347 14.9848 178.272 14.0292 177.481C13.4436 176.996 12.668 176.897 11.9783 176.635C11.1392 176.318 10.325 175.852 9.57114 175.369C8.18166 174.48 6.96711 173.376 5.98469 172.05C2.14262 166.859 0.769099 159.104 0.388535 152.811C0.146468 148.809 0.387933 144.801 0.755249 140.815C0.953058 138.668 1.15207 136.52 1.4119 134.379C1.49229 133.716 1.62687 133.052 1.67685 132.387C1.70546 132.006 1.5218 131.236 1.71629 130.871C1.4679 131.337 1.02803 130.992 0.591161 130.626C-0.31057 129.868 -0.0329752 128.414 0.449353 127.419C1.90266 124.418 6.25807 124.301 9.09152 124.068C16.7079 123.44 23.9437 121.399 31.2353 119.217C30.2062 117.677 31.8248 116.66 33.0794 116.13C35.0141 115.314 37.0121 114.596 38.9649 113.816C43.3748 112.055 47.6929 110.414 52.3108 109.29C56.4937 108.273 60.5411 106.583 64.668 105.345C68.9319 104.065 73.1187 102.603 77.3127 101.113C85.6192 98.1609 93.9332 95.145 101.994 91.5644C104.032 90.6593 105.978 89.6099 107.945 88.563C109.542 87.7126 111.417 87.0889 112.771 85.8605C114.065 84.6874 114.839 83.0562 116.245 81.9909C117.51 81.0316 119.242 81.0184 120.291 79.8267C121.709 78.2156 123.402 77.5076 125.327 76.5628C125.946 76.2593 130.017 74.726 129.934 73.8557C127.025 73.8557 124.038 74.7211 121.161 75.1242C118.117 75.5504 115.076 76.0245 112.011 76.2602C107.043 76.6419 102.078 76.5387 97.1318 76.0005C96.3927 75.9201 93.4274 75.3114 92.9161 76.104C92.5265 76.7081 93.4951 77.4273 93.5047 78.0763C93.5192 79.0287 92.7514 79.5395 91.8819 79.2087C90.1892 78.5651 90.4373 75.8379 90.5954 74.4538C90.898 71.8064 91.5712 69.1834 92.1595 66.5895C88.6673 68.3667 85.3512 70.6484 82.344 73.1562C80.0146 75.0983 77.9112 77.7319 75.1777 79.1166C72.5532 80.4464 70.9928 79.3119 71.1002 76.3843C71.1496 75.0429 71.4215 73.7699 71.8861 72.5207C72.1055 71.9304 73.0073 70.2598 72.5849 69.631C70.1862 71.5433 67.8034 73.4608 65.2855 75.2163C63.5055 76.4574 60.925 78.3929 58.6009 77.9005C56.5485 77.4655 56.7493 75.2073 57.3999 73.686C57.9642 72.3663 58.9782 71.1939 59.9832 70.1861C60.8142 69.3531 61.9956 68.6066 62.4117 67.4519C59.655 68.6906 56.8168 69.628 53.9288 70.4985C51.8751 71.1174 50.4396 73.6881 48.0514 73.3082C45.6609 72.928 46.6129 69.9741 47.567 68.6897C48.2348 67.7912 49.1585 66.9998 50.0545 66.3358C50.9282 65.688 52.2575 65.1236 52.6875 64.0457C49.8946 64.5697 47.0868 65.4809 44.213 65.3129C42.5065 65.213 39.6577 64.468 39.9946 62.1742C40.3357 59.8516 43.429 59.6737 45.1683 59.2406C47.5399 58.6497 49.8094 57.5404 52.0979 56.6946C56.7144 54.9878 61.4208 53.6188 66.1442 52.2584L67.6363 51.8287C72.9678 50.2923 78.3294 48.9838 83.7272 47.7075C86.3951 47.0765 89.0536 46.3884 91.7425 45.8502C94.3438 45.3295 96.987 45.0278 99.5685 44.4053C97.3929 41.1219 100.027 38.4236 102.872 36.861C101.068 36.4962 99.2331 36.2767 97.4444 35.8345C95.9167 35.4571 94.4444 34.877 92.9056 34.5429C90.2609 33.9689 87.6195 33.6669 85.362 32.0294C81.0955 28.935 80.7327 24.0107 84.3275 20.2844C87.9555 16.5235 93.2804 14.7626 98.4051 14.5877C104.141 14.3921 110.667 15.5037 116.034 17.5343C118.671 18.5319 121.416 19.8001 123.676 21.499C125.214 22.6546 127.645 24.8689 129.709 24.8689C127.237 21.8804 124.204 18.7899 123.758 14.7424C123.335 10.9105 125.073 6.83749 127.991 4.35893C133.819 -0.592161 143.438 -0.14395 150.584 0.18235ZM117.354 164.42C115.832 166.785 113.728 168.706 111.742 170.67C111.057 171.347 109.681 172.208 109.615 173.269C109.561 174.135 110.624 175.109 111.088 175.79C113.542 179.389 115.563 183.365 118.561 186.562C121.949 190.174 125.816 190.877 130.614 190.887C135.941 190.899 141.339 191.565 146.657 191.284C151.162 191.046 155.603 189.04 157.843 184.963C156.383 184.211 154.307 184.57 152.725 184.587C150.568 184.609 148.463 184.57 146.333 184.196C144.402 183.856 142.493 183.346 140.677 182.601C139.737 182.216 138.808 181.775 137.942 181.24C137.309 180.848 136.832 180.248 136.21 179.864C133.914 178.446 131.263 182.953 128.809 182.867C127.306 182.814 127.85 181.336 128.475 180.509C129.604 179.015 131.574 178.094 133.061 177.005C131.676 175.731 130.112 177.067 128.794 177.733C127.146 178.565 125.434 179.587 123.593 179.9C123.731 177.527 126.958 176.256 128.739 175.29C129.532 174.861 130.525 174.463 130.72 173.518C130.867 172.808 130.615 171.798 130.541 171.08C130.447 170.168 130.377 169.877 129.406 169.62C128.228 169.308 127.042 169.398 125.862 169.009C122.633 167.943 120.121 166.36 117.354 164.42ZM12.4128 127.03C11.6243 127.249 10.8276 127.438 10.0267 127.607C8.44156 127.941 6.85427 128.289 5.26366 128.592C4.4658 128.744 3.57992 128.648 3.34481 129.409C3.22393 129.799 3.52807 130.501 3.58022 130.906C3.67396 131.637 3.67999 132.378 3.68873 133.115C3.77192 139.899 2.35342 146.643 2.97797 153.427C3.50546 159.16 4.74009 166.409 8.95187 170.679C10.7698 172.521 13.0063 174.523 15.2953 175.782C17.0897 176.769 19.5963 174.292 19.9628 172.577C20.2254 171.348 19.7874 170.051 19.5023 168.866C19.1366 167.348 18.7662 165.831 18.4042 164.312C17.631 161.07 16.9281 157.798 16.706 154.465C16.633 153.371 16.6487 152.316 16.7105 151.226C16.744 150.633 17.0228 149.207 16.6086 148.7C16.073 148.044 14.8492 148.473 14.1246 148.529C13.33 148.59 12.5545 148.543 11.7783 148.34C9.93059 147.857 9.60686 146.389 11.6243 145.709C13.0328 145.234 15.6076 145.922 16.791 145.008C18.1814 143.934 15.3713 143.787 14.7151 143.759C13.8413 143.722 10.9431 143.95 11.0911 142.322C11.2005 141.115 13.6954 141.034 14.5683 140.983C16.4332 140.874 18.7927 141.572 19.5987 139.324C19.9219 138.423 17.9768 137.966 17.4888 137.519C16.3027 136.434 15.9138 134.573 15.812 133.048C15.7116 131.549 17.1876 126.351 14.9387 126.213C14.2482 126.171 13.1004 126.84 12.4128 127.03ZM123.022 157.026C121.698 158.602 120.554 160.328 119.322 161.975C122.213 163.57 125.17 164.853 128.16 166.225C129.519 166.849 130.472 167.343 131.788 166.397C132.732 165.719 133.44 164.755 134.361 164.049C135.685 163.036 137.068 162.107 138.426 161.14C134.421 159.679 130.355 158.397 126.352 156.933C124.854 156.386 124.103 155.739 123.022 157.026ZM90.0474 152.021C90.9037 152.889 89.255 155.295 88.9304 156.118C91.5858 155.907 94.2189 155.489 96.8265 154.95C97.7145 154.767 97.3871 155.848 97.0549 156.204C96.6441 156.645 95.8222 156.779 95.2729 156.936C93.2518 157.515 91.1786 157.794 89.1046 158.103C90.0538 159.271 92.3376 161.098 91.6022 162.854C90.2758 161.711 89.322 160.19 87.8549 159.202C87.431 159.834 86.5515 162.065 85.5877 161.928C84.0746 161.714 85.6075 159.107 85.9239 158.479C84.905 158.479 81.0763 159.373 80.5422 158.119C79.9956 156.837 83.6903 156.878 84.3733 156.575L84.246 156.42L84.1181 156.265C83.6074 155.65 83.117 155.043 83.0478 154.198C84.1903 154.591 84.9531 156.381 86.2086 156.407C87.3993 156.432 87.9307 154.643 88.3549 153.796C88.596 153.315 89.4152 151.38 90.0474 152.021ZM218.881 135.15C221.441 137.309 219.702 141.664 217.765 143.621C215.594 145.814 210.763 147.829 208.012 145.593C206.506 144.37 207.049 142.503 207.42 140.876C207.832 139.067 208.089 137.542 209.587 136.301C211.918 134.37 216.284 132.96 218.881 135.15ZM213.684 136.405C211.187 136.936 208.656 139.431 208.062 142.002C207.284 145.374 210.785 145.62 213.091 145.114C215.992 144.476 219.075 142.349 219.223 139.013C219.35 136.133 215.625 135.992 213.684 136.405ZM31.9444 121.827C28.2044 123.219 24.6889 125.123 20.7649 125.949C19.5674 126.201 19.0756 126.477 18.7795 127.592C18.3647 129.153 17.9717 130.735 18.2678 132.366C18.8825 135.752 23.5959 135.338 26.2133 135.205C27.557 135.136 30.1414 135.382 31.3072 134.544C32.1589 133.932 31.8015 132.783 31.6689 131.89C31.1725 128.548 31.7139 125.166 31.9444 121.827ZM235.855 89.5569C234.478 89.8165 232.097 90.9386 234.071 92.3454C235.388 93.2835 237.349 93.3974 238.896 93.6292C241.919 94.0819 245.145 94.473 247.768 96.1777C252.628 99.3364 252.033 105.297 250.579 110.175C251.626 110.792 254.701 106.761 255.281 106.106C257.631 103.446 259.99 100.795 262.359 98.1533C263.373 97.0233 255.061 93.12 254.314 92.7685C250.365 90.9111 246.679 89.6881 242.25 89.3692C240.149 89.2181 237.934 89.1653 235.855 89.5569ZM218.71 79.6698C218.333 80.6209 218.994 81.0521 219.601 81.7091C222.997 85.3818 225.388 90.5801 227.279 95.1394C228.221 97.413 228.882 99.7056 229.465 102.088C230.038 104.425 231.858 105.049 234.037 105.713C239.059 107.241 244.345 107.753 249.383 109.262C250.734 109.667 250.998 106.699 251.083 105.946C251.324 103.805 251.1 101.57 249.975 99.6825C247.847 96.1142 243.582 95.3557 239.778 94.7479C237.602 94.4004 234.735 94.0416 233.014 92.5543C232.149 91.8079 232.027 90.9516 232.701 90.0242C233.93 88.3326 236.094 88.1154 238.027 87.9774C238.969 87.9102 244.799 88.4994 244.989 87.8097C242.086 86.864 239.107 86.2402 236.247 85.1586C234.015 84.3148 231.766 83.5178 229.515 82.728L227.263 81.939C224.973 81.1361 222.877 80.1595 220.679 79.1928C219.854 78.83 219.097 78.6953 218.71 79.6698ZM267.95 95.1444C267.223 96.122 266.502 96.9427 265.957 98.041C265.321 99.3223 264.266 100.14 263.384 101.24C267.965 102.048 272.334 103.074 276.746 104.554C279.012 105.314 281.352 105.69 283.67 106.234C285.614 106.691 287.685 107.399 289.698 106.98C287.406 103.821 281.291 104.694 279.681 100.869C278.585 98.2658 281.278 96.1899 283.479 95.738C287.324 94.9492 291.423 94.8884 295.329 94.6073C295.37 93.1133 281.193 92.3398 279.791 92.2188C277.302 92.0034 274.705 91.5369 272.22 91.4507C269.915 91.3707 269.161 93.5172 267.95 95.1444ZM213.852 84.2176C212.487 85.5374 211.15 86.886 209.786 88.2075C208.889 89.0763 207.674 90.0017 206.967 91.0368C206.064 92.3584 207.645 92.9937 208.699 93.6191C211.358 95.1982 214.106 96.6722 216.812 98.1743C219.243 99.5238 221.771 101.242 224.455 102.031C225.89 102.453 227.237 103.108 228.621 103.663C227.954 97.6707 224.513 92.2284 221.34 87.2331C220.611 86.0861 219.858 84.9549 219.13 83.8082C218.763 83.2309 218.082 81.8684 217.312 81.7508C216.175 81.5766 214.542 83.551 213.852 84.2176ZM283.428 99.4679C285.091 100.421 286.759 100.905 288.635 100.185C289.096 99.9968 289.553 99.7976 290.005 99.588C288.755 97.8833 285.057 98.9222 283.428 99.4679ZM145.662 78.6155C142.713 79.9446 139.559 81.2686 136.995 83.274C136.049 84.0143 133.933 85.5694 134.428 86.9798C134.852 88.1875 137.193 89.216 138.305 89.584C144.154 91.5199 150.811 90.1116 156.197 93.6642C157.655 94.6256 158.13 95.8823 159.212 97.1465C160.192 98.2898 161.431 98.1478 162.747 97.6734C164.475 97.0504 166.067 96.0962 167.802 95.4846C168.689 95.1719 170.196 94.9647 170.288 93.7678C170.722 88.1265 169.518 80.9393 164.545 77.4876C158.962 73.6129 151.26 76.0923 145.662 78.6155ZM142.5 91.7618C142.357 92.477 147.891 93.772 148.492 93.9376C151.834 94.858 154.956 97.0461 158.417 97.399C159.019 96.0569 154.224 93.9201 153.466 93.6446C150.006 92.388 146.134 92.1602 142.5 91.7618ZM251.17 89.2563C255.366 90.9754 259.432 93.0803 262.949 96.0072C264.162 97.0165 267.109 92.2264 267.769 91.492C262.181 91.2598 256.674 90.1937 251.17 89.2563ZM172.756 55.5603C168.866 58.1295 165.479 61.4887 161.209 63.4582C162.545 63.6685 164.004 62.8036 165.28 62.5002C166.523 62.2049 167.779 62.0099 168.989 61.5917C169.732 61.3349 172.801 59.6763 173.377 60.8004C174.277 62.5564 167.939 63.7713 167.038 64.0708C163.995 65.082 160.971 66.1412 157.959 67.2417C155.042 68.3075 152.127 69.4545 149.112 70.22C146.05 70.9975 142.804 71.1978 139.86 72.4052C137.257 73.4729 135.02 75.2399 132.509 76.487C129.991 77.7376 127.129 78.5111 124.959 80.3722C127.319 82.8906 130.11 84.9995 133.163 86.6049C133.653 82.7644 138.155 80.5777 141.234 79.1015C147.949 75.8831 158.033 71.0302 164.877 76.4839C169.879 80.4699 170.557 88.0331 170.557 93.954C171.911 93.5226 173.149 92.8365 174.407 92.1888C175.279 91.74 175.289 90.4902 175.398 89.6557C175.578 88.2888 175.947 86.9651 176.372 85.6538C177.311 82.7533 178.487 79.9234 179.607 77.0899C181.42 72.5061 183.654 67.9855 184.769 63.1632C185.496 60.0161 186.361 54.6068 182.566 53.0446C179.283 51.6933 175.422 53.7996 172.756 55.5603ZM155.771 42.7506C155.136 43.1756 155.373 44.4505 155.416 45.0902C155.574 47.4162 155.475 49.7518 155.553 52.082C155.647 54.9211 155.668 60.1276 158.596 61.7196C160.599 62.8083 163.09 61.1769 164.688 60.0658C167.392 58.1868 169.873 56.0045 172.615 54.17C175.865 51.9952 182.023 48.9868 185.134 53.0779C186.817 55.2922 186.581 58.5916 186.161 61.1678C185.606 64.5669 184.312 67.7907 183.025 70.9672C180.368 77.5265 177.595 84.1924 176.118 91.1354C179.487 89.1335 182.106 86.2482 185.046 83.7135C187.226 81.8348 190.462 79.6772 190.965 76.6154C191.079 75.9239 191.748 75.4312 192.209 74.9686C192.808 74.3665 193.23 73.7567 193.61 72.9887C194.448 71.2921 194.993 69.4598 195.336 67.6033C196.056 63.7085 195.713 59.8318 195.049 55.9599C194.749 54.2089 195.19 52.3301 194.781 50.6234C194.498 49.4382 193.661 49.5084 192.549 49.2389C188.541 48.2682 184.527 47.327 180.517 46.3653C178.888 45.9744 177.118 45.2414 175.427 45.2658C174.039 45.2859 172.873 46.1133 171.675 46.7126C169.708 47.6965 166.582 49.4181 164.324 48.4395C161.692 47.2993 164.759 44.7248 163.439 43.5069C162.535 42.6717 159.83 43.1726 158.604 42.9651C157.931 42.8515 156.387 42.3374 155.771 42.7506ZM197.18 76.3854C195.266 76.687 194.158 77.5171 193.104 79.1457C192.033 80.8009 191.905 81.6206 193.433 82.916C195.08 84.3128 196.803 85.6925 198.552 86.9505C200.768 88.5451 203.227 89.7522 205.418 91.3857C206.377 92.1011 210.731 86.4926 211.487 85.7235C212.529 84.6626 213.599 83.5986 214.717 82.622C215.126 82.2652 216.407 81.4376 216.407 80.8307C216.409 79.2965 213.006 77.9239 211.912 77.5015C209.459 76.5555 206.887 76.1736 204.273 76.134C201.956 76.0991 199.475 76.0234 197.18 76.3854ZM205.708 69.6366C203.912 70.5905 202.035 71.3944 200.227 72.3285C199.585 72.6597 195.541 74.3585 195.745 75.374C200.296 75.0856 204.828 74.3154 209.365 75.1964C211.402 75.5923 213.344 76.2556 215.047 77.4796C216.336 78.4062 217.319 80.1866 218.6 78.602C215.986 77.1208 213.632 75.1575 211.313 73.2514C210.299 72.4168 209.255 71.6321 208.225 70.8203C207.613 70.3376 206.603 69.1621 205.708 69.6366ZM98.0502 47.4593C96.6264 47.6592 95.2386 48.0364 93.8403 48.3602C88.1755 49.6721 82.4893 50.85 76.8395 52.2384C65.5704 55.0074 53.9642 57.6774 43.2188 62.1136C44.1223 63.1122 46.5164 62.3888 47.6376 62.193C49.8325 61.8096 51.9625 61.1395 54.1309 60.6337C56.2518 60.1394 58.3806 59.5497 60.5189 59.1374C61.5039 58.9477 63.2412 58.6976 63.281 60.1741C63.3372 62.2674 59.2702 63.8326 57.7774 64.5977C56.1811 65.4159 54.6357 66.3201 53.1162 67.2713C51.9149 68.0235 49.6995 69.0261 49.31 70.5209C53.2082 68.8696 57.1089 67.2249 60.9831 65.5178C62.4425 64.8747 63.9211 64.2688 65.3104 63.4842C66.2367 62.9611 67.4289 62.0431 68.5258 61.9607C70.011 61.8488 70.2571 63.1973 69.6314 64.2853C68.8483 65.6473 67.2322 66.4157 66.0436 67.3688C64.5282 68.5842 63.1871 70.0178 61.8228 71.3936C60.6901 72.5356 59.2317 73.6598 58.6405 75.2038C60.6766 75.8846 62.99 73.7021 64.4861 72.6234C66.8372 70.928 69.027 69.0839 71.2701 67.2518C72.4175 66.3147 73.7854 64.7968 75.2956 64.5171C77.2095 64.1621 77.051 66.3501 76.5868 67.5562C75.5495 70.252 73.1208 72.4996 72.9472 75.5387C72.8404 77.4097 74.4253 76.6974 75.4827 75.947C77.2634 74.683 78.4686 72.7571 80.0847 71.3076C83.9763 67.8164 88.4312 64.8382 93.2452 62.7701C94.1068 62.3999 94.4167 61.0711 94.6787 60.2725C95.0695 59.0805 95.5193 57.9247 95.9892 56.7597C97.0186 54.2078 97.8628 51.4496 99.3053 49.0923C99.7076 48.4348 100.745 47.7648 99.8869 47.378C99.4202 47.1682 98.5322 47.3915 98.0502 47.4593ZM139.146 43.1424C137.688 43.3126 136.212 43.297 134.751 43.4511C132.366 43.7024 133.406 46.6027 133.022 48.3502C131.891 53.4947 126.438 54.4661 122.306 52.0392C119.981 50.6734 118.585 48.7161 117.335 46.4265C116.622 45.1212 116.091 44.9111 114.617 45.2378C113.605 45.4622 112.684 45.4146 111.655 45.4891C110.359 45.5831 110.246 45.8577 110.22 47.0904C110.197 48.1851 110.039 48.9435 109.31 49.8303C107.921 51.5195 105.591 52.6315 103.607 53.4803C101.619 54.3309 99.3671 54.9631 98.2752 56.9733C97.7249 57.9869 97.1351 59.1968 96.9757 60.349C96.8016 61.6076 97.2288 62.3885 96.4947 63.5496C94.9687 65.9634 94.2693 68.6013 93.4979 71.3445C93.2463 72.2382 93.1469 72.6059 94.1226 72.8515C95.5223 73.2042 97.5104 72.669 98.9469 72.6127C99.9717 72.5727 100.57 70.7659 100.903 70.0338C101.551 68.6103 102.345 67.2625 103.14 65.9152C104.942 62.8633 106.869 59.8317 109.223 57.165C111 55.1524 113.623 52.6471 115.898 55.4753C118.116 58.2313 119.714 61.4595 122.38 63.862C124.726 65.9751 127.142 66.0089 129.575 64.0062C131.969 62.0345 133.789 59.3446 135.278 56.6606C136.887 53.7583 138.101 50.6596 139.67 47.7399C140.162 46.8247 142.432 44.349 141.741 43.2887C141.273 42.5724 139.802 43.0661 139.146 43.1424ZM151.358 42.5093C150.074 42.57 148.783 42.4258 147.499 42.4001C145.176 42.3543 143.233 42.4354 142.067 44.6614C141.037 46.6259 140.16 48.7158 139.22 50.7273C137.178 55.0972 135.175 59.5686 132.041 63.2871C129.264 66.5815 125.676 68.2412 122.064 65.0941C120.462 63.6987 119.245 61.8984 118.096 60.1288C117.174 58.7102 116.123 56.2136 114.579 55.3866C112.858 54.4646 110.887 56.5795 109.835 57.7272C108.066 59.6567 106.587 61.9258 105.167 64.1168C104.137 65.7059 103.151 67.3285 102.15 68.9363C101.745 69.5883 100.092 71.7208 100.642 72.533C101.193 73.3473 103.886 72.7907 104.665 72.7161C106.525 72.5387 108.382 72.4748 110.243 72.3146C116.032 71.8167 121.735 70.545 127.538 70.2056C131.361 69.9818 135.128 69.2429 138.89 68.5716C142.549 67.919 146.232 67.4736 149.852 66.6111C151.98 66.1039 154.112 65.5961 156.236 65.0699C156.971 64.888 160.445 64.3917 160.661 63.4365C158.269 63.0189 157.013 62.0912 156.165 59.7574C155.103 56.8348 154.979 53.5775 154.889 50.498C154.854 49.3133 154.848 48.1281 154.847 46.943L154.847 45.521C154.847 44.6711 155.214 43.1287 154.448 42.5392C153.739 41.9937 152.18 42.4701 151.358 42.5093ZM198.847 61.3833C198.948 65.2345 198.259 69.116 196.677 72.6345C198.332 72.8997 200.3 70.8235 201.689 70.1281C202.223 69.86 205.764 68.5735 204.578 67.5899C202.397 65.7809 200.967 63.2535 198.847 61.3833ZM246.304 64.5151C246.79 65.4727 246.19 66.6882 245.865 67.5966C248.391 68.2033 250.906 68.7994 253.45 69.3144C255.367 69.7025 254.699 70.8525 253.034 70.7733C250.719 70.6631 248.565 69.6825 246.262 69.5552C244.068 69.4338 243.809 71.3493 241.939 71.7182C242.002 70.6643 242.855 69.9323 243.467 69.1418C242.458 68.6238 241.426 68.1423 240.447 67.5716C239.94 67.276 238.538 66.0364 239.078 65.3778C239.623 64.7131 241.051 65.9589 241.559 66.2332C242.282 66.6234 243.724 67.4832 244.574 67.2365C245.738 66.8986 245.496 65.2273 246.304 64.5151ZM209.918 39.4222C208.894 39.4933 207.779 39.1487 206.809 39.5995C205.841 40.0491 204.687 41.0334 203.878 41.716C203.094 42.3768 202.705 43.1792 201.731 43.5692C200.758 43.9592 199.761 43.9247 199.386 45.1141C200.269 45.3562 202.001 45.0352 202.693 45.6839C203.698 46.6279 201.944 47.6666 201.216 47.9637C200.172 48.3898 199.319 48.2515 198.251 48.1716C197.787 48.1371 197.791 47.9943 197.411 48.2243C196 49.0769 196.976 52.1102 197.434 53.2167C199.673 58.6327 207.323 56.8088 211.735 56.2542C210.331 54.8399 208.032 53.2799 207.916 51.0587C207.881 50.3973 208.045 49.2152 208.895 49.1601C209.574 49.1162 210.388 50.1419 210.811 50.5462C212.065 51.7444 213.686 53.7313 215.499 53.9032C217.923 54.1331 219.787 50.2085 220.792 48.4969C219.557 48.2648 218.203 48.2784 217.486 47.0666C216.632 45.6264 216.617 43.4197 216.632 41.7983C216.645 40.4176 217.085 38.9072 215.239 38.8394C213.539 38.7771 211.635 39.3033 209.918 39.4222ZM47.1986 42.9634C46.8455 43.7335 45.3113 44.0353 44.6377 44.2412C42.0756 45.0238 39.5738 46.0178 37.0759 46.9925C32.0329 48.961 27.0452 51.135 22.4404 54.0277C21.5798 54.5687 22.0014 53.5253 22.2249 53.1491C22.726 52.3057 23.7789 51.7089 24.5653 51.1923C26.6933 49.7938 28.9472 48.8114 31.3002 47.8759C36.0086 46.0044 40.7887 44.0198 45.6174 42.5037C46.1775 42.328 47.673 41.9286 47.1986 42.9634ZM105.685 46.777C104.749 46.8737 103.652 46.6609 102.752 46.9664C101.579 47.3645 101.772 48.1697 101.425 49.16C100.836 50.841 100.206 52.5079 99.5913 54.1802C101.866 54.0741 104.045 52.2735 105.972 51.2371C107.064 50.6504 110.858 48.7032 109.714 46.9205C108.989 45.7922 106.724 46.6691 105.685 46.777ZM131.572 43.8463C130.164 43.8209 128.615 44.2472 127.19 44.3181C125.278 44.4131 123.396 44.7767 121.487 44.8645C120.231 44.9225 118.998 45.1806 117.756 45.3497C118.992 48.2134 121.405 50.7182 124.436 51.7555C126.828 52.5738 130.176 52.7128 131.81 50.4484C132.75 49.1458 134.286 43.8953 131.572 43.8463ZM204.917 32.0174C203.381 33.0376 202.15 34.4996 200.867 35.8039C197.653 39.0707 194.327 42.5683 192.936 47.0464C192.745 47.6598 194.194 48.2019 194.586 48.2257C195.415 48.2757 195.584 47.8578 195.909 47.1576C196.714 45.4238 197.023 43.487 198.311 42.0088C199.881 40.2064 201.771 38.4491 203.593 36.9007C204.831 35.8485 207.866 34.367 208.222 32.6275C208.643 30.5711 205.847 31.3997 204.917 32.0174ZM165.298 43.917C164.429 44.1696 164.36 44.9733 164.162 45.8391C163.363 49.318 171.438 45.5224 172.562 44.9537C172.188 43.8368 168.508 44.0404 167.656 43.9966C166.992 43.9628 165.939 43.7304 165.298 43.917ZM212.994 45.724C211.798 45.7701 212.349 40.883 213.71 41.3745C214.876 41.7965 213.761 45.694 212.994 45.724ZM44.7847 40.1048C42.9527 41.6862 40.0762 41.8983 37.7983 42.4058C34.4416 43.1538 31.1143 44.1071 27.7848 44.9673C25.6823 45.5105 26.8659 44.2152 27.9186 43.7285C29.7286 42.8916 31.7777 42.4456 33.7122 41.9852C35.8066 41.4867 37.9468 41.1539 40.0292 40.6101C41.4712 40.2333 43.3308 39.2697 44.7847 40.1048ZM101.783 6.11781C103.819 6.49169 105.852 7.14284 107.637 8.20945C109.114 9.09241 109.056 10.4662 107.182 9.66909C98.4446 5.95002 87.6022 8.20287 79.0696 11.496C78.1282 11.8591 78.1982 11.0668 78.4828 10.456C78.8745 9.61465 79.7118 9.12621 80.5156 8.73558C82.9304 7.56129 85.7143 6.89728 88.3401 6.40944C92.7162 5.59647 97.3865 5.31083 101.783 6.11781ZM103.06 0.775983C104.17 1.07713 105.446 1.82406 106.125 2.77155C106.92 3.88039 106.288 4.44713 105.185 3.795C103.954 3.06722 102.829 2.34156 101.416 1.95715C100.67 1.75447 100.701 1.2868 101.236 0.876263C101.737 0.491858 102.516 0.628298 103.06 0.775983Z" fill="black"/>
<path fill-rule="evenodd" clip-rule="evenodd" d="M506.325 74.9961C504.752 68.8794 503.27 62.6295 500.935 56.7513C499.475 53.0727 497.927 49.4274 496.376 45.7861C496.161 45.2806 496.07 44.7934 495.652 44.5417C495.093 44.2054 493.937 44.2126 493.306 44.0972C484.351 42.4545 475.302 41.2008 466.223 40.4955C455.862 39.6908 445.761 40.0589 435.51 41.7472C426.742 43.191 418.062 45.181 409.476 47.4597C408.213 47.7944 406.953 48.1367 405.695 48.4882C405.109 48.6521 404.136 48.7357 403.625 49.0777C402.533 49.8085 402.163 52.8035 401.754 54.0723C401.205 55.773 400.886 58.1094 399.829 59.5562C398.255 61.7098 395.859 63.578 393.908 65.3683C387.099 71.6167 379.635 77.3165 370.841 80.4057C357.236 85.1847 342.89 88.1801 328.797 91.1414C328.469 91.2103 328.141 91.2789 327.813 91.3468C331.461 95.3869 335.109 99.427 338.758 103.467C340.815 105.745 342.871 108.022 344.928 110.3C345.985 111.471 345.87 111.68 347.365 111.353C354.859 109.718 362.34 107.936 369.698 105.763C373.305 104.698 376.974 103.592 380.331 101.867C384.95 99.4929 389.286 96.558 393.506 93.5434C397.278 90.8485 400.961 88.0294 404.578 85.1303C405.292 84.5589 407.865 81.8038 408.699 81.9834C409.419 82.1383 410.665 83.7761 411.192 84.253C412.586 85.5149 413.986 86.7708 415.394 88.0165C417.635 89.9983 419.924 92.4259 422.542 93.9175C425.301 95.4898 428.463 96.5607 431.375 97.8127C432.999 98.5107 434.625 99.2063 436.251 99.9001C436.675 100.081 437.268 100.475 437.726 100.485C439.081 100.514 441.05 99.412 442.307 98.9828C445.536 97.8803 448.742 96.7081 451.915 95.451C458.689 92.7669 466.134 89.8507 471.709 85.0205C472.682 84.1782 473.632 83.235 474.276 82.1094C474.499 81.719 474.831 81.1756 474.854 80.7149C474.89 79.9802 474.477 79.8358 473.863 79.3766C470.692 77.0065 467.273 74.9407 463.91 72.8578C463.12 72.3685 462.328 71.8813 461.534 71.399L500.826 74.5543C502.659 74.7016 504.492 74.8487 506.325 74.9961Z" fill="#CAA038"/>
<path fill-rule="evenodd" clip-rule="evenodd" d="M447.817 0.18235C443.666 0.371688 439.41 0.564639 435.295 1.14891C431.193 1.73107 427.365 3.22019 423.657 5.02327C416.973 8.27423 410.14 12.226 405.841 18.4792C403.831 21.403 402.191 24.4643 399.416 26.7659C398.767 27.3041 398.06 27.951 397.198 28.1156C396.513 28.2466 395.909 27.9693 395.238 27.9362C393.958 27.8727 393.473 28.5476 393.473 29.8194C392.512 29.4359 391.466 29.0888 390.418 29.2297C389.541 29.3477 388.845 29.876 388.004 30.0981C386.486 30.4991 385 29.8994 383.556 29.4527C379.91 28.3245 375.904 27.4702 372.073 27.8727C369.55 28.1379 366.492 29.2321 367.799 32.4824C368.882 35.1786 372.935 36.5434 375.494 37.2141C377.671 37.7848 380.598 37.2755 380.414 40.2793C380.286 42.3759 379.969 44.6251 377.74 45.3054C376.518 45.6783 372.189 46.234 374.717 48.1259C376.584 49.5229 377.236 51.9819 378.656 53.8286C380.465 56.1825 382.919 58.0856 385.787 58.9447C388.996 59.9061 392.392 59.7216 395.689 60.0945C393.367 63.2985 390.014 65.5023 386.963 67.9387C383.755 70.5006 380.659 73.3004 376.946 75.1266C373.618 76.7635 370.022 77.9002 366.585 79.2881C362.975 80.746 359.339 82.1869 355.612 83.3226C348.095 85.6134 340.188 87.2136 332.46 88.6187C328.646 89.3122 324.907 89.2105 321.055 89.2722C317.103 89.3357 313.154 90.0286 309.275 90.7402C307.394 91.0855 305.496 91.3031 303.615 91.6469C302.713 91.8119 299.141 92.1755 299.013 93.4969C298.805 95.6492 301.133 96.8557 302.837 97.4559C303.565 97.7123 304.738 97.675 305.368 98.0275C306.05 98.4089 305.784 98.9703 305.862 99.7087C305.976 100.782 306.55 101.554 307.43 102.149C308.154 102.639 309.027 102.62 308.528 103.547C308.298 103.975 307.722 104.244 307.457 104.696C307.153 105.21 307.013 105.774 307.075 106.367C307.183 107.403 307.868 108.194 308.823 108.561C310.35 109.147 312.142 108.732 313.706 108.542C316.324 108.224 318.979 108.192 321.561 107.619C324.254 107.022 326.874 106.103 329.569 105.491C330.951 105.178 332.336 104.915 333.687 104.48C334.566 104.198 335.836 103.464 336.772 103.694C337.649 103.909 338.334 104.967 338.907 105.582C339.698 106.429 340.464 107.3 341.268 108.136C341.801 108.689 342.347 109.232 342.929 109.734C343.118 109.897 344.286 110.611 344.302 110.803C344.348 111.344 343.073 111.335 342.8 111.55C341.213 112.804 343.597 113.598 344.626 113.535C346.998 113.39 349.381 113.099 351.73 112.751C357.322 111.921 362.898 111.026 368.245 109.153C373.534 107.3 378.695 105.33 383.586 102.568C388.281 99.9176 392.823 96.921 397.258 93.8582C399.41 92.3717 401.577 90.8317 403.394 88.9384C405.171 87.0865 406.62 84.9605 408.094 82.8681C411.623 86.2765 415.02 89.8607 418.811 92.9852C422.417 95.9574 426.753 97.5453 430.947 99.4757C430.812 100.353 426.711 100.878 425.963 101.106C422.543 102.147 419.261 103.816 415.935 105.126C410.401 107.304 405.151 110.139 403.308 116.189C401.496 122.138 403.597 128.125 406.16 133.499C409.186 139.843 412.779 145.718 417.123 151.248C418.97 153.601 420.961 155.767 422.989 157.958C424.719 159.827 426.202 162.041 425.477 164.698C424.085 164.263 423.829 165.349 424.74 166.269C425.549 167.086 426.947 167.245 428.027 167.38C431.303 167.791 434.686 167.646 437.964 167.34C443.934 166.784 449.917 165.278 455.322 162.686C458.011 161.396 458.984 163.475 460.833 165.086C462.288 166.353 464.292 167.175 465.397 168.814C466.307 170.163 465.713 172.294 463.824 171.789C462.354 171.395 461.172 169.755 459.615 169.692C456.851 169.58 462.066 173.523 462.733 174.004C461.412 175.185 459.915 173.566 458.583 173.295C457.305 173.036 456.949 173.697 457.629 174.762C458.16 175.592 459.827 176.18 458.719 177.19C457.8 178.026 455.763 178.467 454.634 178.833C451.115 179.978 447.614 180.792 443.95 181.314C442.767 181.483 440.87 181.375 439.911 182.214C438.646 183.32 439.256 185.153 439.896 186.42C442.322 191.221 447.365 193.58 452.546 193.926C455.735 194.138 458.956 193.932 462.156 194.105C465.663 194.293 469.178 194.574 472.693 194.458C478.344 194.272 481.938 190.188 484.756 185.697C486.545 182.844 488.195 179.907 489.744 176.918C490.349 175.75 491.617 174.54 491.832 173.227C492.027 172.046 491.273 171.098 490.541 170.262C488.613 168.063 486.294 166.383 484.028 164.566C482.734 163.528 482.237 162.669 481.661 161.158C481.176 159.887 480.243 159.343 479.422 158.329C478.519 157.212 478.803 157.015 479.507 156.103C480.244 155.148 479.955 153.741 479.645 152.66C479.201 151.109 478.249 150.768 476.827 150.268C475.53 149.813 474.431 149.014 473.281 148.273C467.602 144.611 462.251 140.467 456.501 136.907C450.829 133.396 444.901 130.293 439.487 126.374C443.883 125.783 447.759 123.41 451.906 122.005C454.034 121.283 456.142 120.513 458.201 119.61C458.987 119.266 459.904 118.959 460.605 118.452C461.31 117.943 461.852 117.273 462.59 116.791C464.344 115.647 466.428 114.996 468.313 114.104C470.35 113.141 472.359 112.089 474.251 110.864C476.018 109.72 477.714 108.412 479.182 106.901C480.352 105.697 481.49 104.128 483.147 103.575C482.973 105.882 480.115 107.792 478.549 109.18C476.007 111.433 473.365 113.347 470.524 115.207C473.711 117.937 477.595 119.714 481.326 121.558C485.522 123.631 489.6 125.929 493.778 128.034C497.318 129.817 501.042 131.191 504.64 132.848C508.522 134.635 512.517 136.134 516.567 137.494C520.233 138.725 523.683 140.038 527.142 141.765C530.504 143.445 534.101 144.729 537.698 145.807C541.739 147.018 545.594 148.17 549.481 149.831C552.986 151.328 556.505 152.285 560.214 153.098C561.439 153.367 563.012 153.861 563.87 152.675C564.52 151.776 564.618 150.39 564.805 149.333C565.52 145.288 565.576 141.178 566.219 137.127C568.661 137.863 570.973 138.77 573.549 138.886C575.168 138.96 576.152 139.127 576.555 140.894C575.619 141 572.272 141.046 572.182 142.373C572.1 143.57 574.125 143.582 574.843 143.615C576.128 143.673 577.293 143.462 577.978 144.72C576.968 145.093 574.728 144.413 574.28 145.772C573.704 147.525 576.322 147.52 577.264 147.662C578.907 147.908 578.739 149.198 578.626 150.578C578.478 152.393 578.366 154.21 578.12 156.016C577.597 159.875 576.699 163.675 576.275 167.548C575.907 170.897 575.701 174.113 578.095 176.782C579.058 177.855 580.396 179.09 581.908 179.218C583.444 179.347 583.416 178.272 584.371 177.481C584.957 176.996 585.732 176.897 586.422 176.635C587.261 176.318 588.075 175.852 588.829 175.369C590.219 174.48 591.433 173.376 592.416 172.05C596.258 166.859 597.631 159.104 598.012 152.811C598.254 148.809 598.012 144.801 597.645 140.815C597.447 138.668 597.248 136.52 596.988 134.379C596.908 133.716 596.774 133.052 596.724 132.387C596.695 132.006 596.879 131.236 596.684 130.871C596.932 131.337 597.372 130.992 597.809 130.626C598.711 129.868 598.433 128.414 597.951 127.419C596.498 124.418 592.142 124.301 589.309 124.068C581.692 123.44 574.457 121.399 567.165 119.217C568.194 117.677 566.576 116.66 565.321 116.13C563.386 115.314 561.388 114.596 559.436 113.816C555.026 112.055 550.708 110.414 546.09 109.29C541.907 108.273 537.859 106.583 533.732 105.345C529.469 104.065 525.282 102.603 521.088 101.113C512.781 98.1609 504.467 95.145 496.406 91.5644C494.368 90.6593 492.422 89.6099 490.456 88.563C488.858 87.7126 486.983 87.0889 485.629 85.8605C484.336 84.6874 483.562 83.0562 482.156 81.9909C480.89 81.0316 479.158 81.0184 478.11 79.8267C476.691 78.2156 474.998 77.5076 473.073 76.5628C472.455 76.2593 468.383 74.726 468.466 73.8557C471.376 73.8557 474.362 74.7211 477.24 75.1242C480.283 75.5504 483.324 76.0245 486.39 76.2602C491.357 76.6419 496.322 76.5387 501.269 76.0005C502.008 75.9201 504.973 75.3114 505.484 76.104C505.874 76.7081 504.905 77.4273 504.896 78.0763C504.881 79.0287 505.649 79.5395 506.518 79.2087C508.211 78.5651 507.963 75.8379 507.805 74.4538C507.502 71.8064 506.829 69.1834 506.241 66.5895C509.733 68.3667 513.049 70.6484 516.056 73.1562C518.386 75.0983 520.489 77.7319 523.223 79.1166C525.847 80.4464 527.408 79.3119 527.3 76.3843C527.251 75.0429 526.979 73.7699 526.514 72.5207C526.295 71.9304 525.393 70.2598 525.816 69.631C528.214 71.5433 530.597 73.4608 533.115 75.2163C534.895 76.4574 537.475 78.3929 539.799 77.9005C541.852 77.4655 541.651 75.2073 541 73.686C540.436 72.3663 539.422 71.1939 538.417 70.1861C537.586 69.3531 536.405 68.6066 535.989 67.4519C538.745 68.6906 541.584 69.628 544.472 70.4985C546.525 71.1174 547.961 73.6881 550.349 73.3082C552.74 72.928 551.788 69.9741 550.833 68.6897C550.166 67.7912 549.242 66.9998 548.346 66.3358C547.472 65.688 546.143 65.1236 545.713 64.0457C548.506 64.5697 551.314 65.4809 554.187 65.3129C555.894 65.213 558.743 64.468 558.406 62.1742C558.065 59.8516 554.971 59.6737 553.232 59.2406C550.86 58.6497 548.591 57.5404 546.302 56.6946C541.686 54.9878 536.98 53.6188 532.256 52.2584L530.764 51.8287C525.433 50.2923 520.071 48.9838 514.673 47.7075C512.005 47.0765 509.347 46.3884 506.658 45.8502C504.057 45.3295 501.413 45.0278 498.832 44.4053C501.008 41.1219 498.373 38.4236 495.528 36.861C497.333 36.4962 499.167 36.2767 500.956 35.8345C502.484 35.4571 503.956 34.877 505.495 34.5429C508.139 33.9689 510.781 33.6669 513.038 32.0294C517.305 28.935 517.668 24.0107 514.073 20.2844C510.445 16.5235 505.12 14.7626 499.995 14.5877C494.259 14.3921 487.733 15.5037 482.366 17.5343C479.729 18.5319 476.984 19.8001 474.724 21.499C473.187 22.6546 470.755 24.8689 468.692 24.8689C471.163 21.8804 474.196 18.7899 474.643 14.7424C475.065 10.9105 473.327 6.83749 470.41 4.35893C464.581 -0.592161 454.963 -0.14395 447.817 0.18235ZM481.047 164.42C482.568 166.785 484.672 168.706 486.659 170.67C487.344 171.347 488.719 172.208 488.785 173.269C488.839 174.135 487.776 175.109 487.312 175.79C484.858 179.389 482.837 183.365 479.84 186.562C476.451 190.174 472.584 190.877 467.786 190.887C462.459 190.899 457.061 191.565 451.743 191.284C447.238 191.046 442.798 189.04 440.558 184.963C442.017 184.211 444.094 184.57 445.675 184.587C447.832 184.609 449.937 184.57 452.068 184.196C453.999 183.856 455.907 183.346 457.723 182.601C458.663 182.216 459.593 181.775 460.458 181.24C461.092 180.848 461.568 180.248 462.191 179.864C464.486 178.446 467.138 182.953 469.592 182.867C471.095 182.814 470.551 181.336 469.925 180.509C468.796 179.015 466.827 178.094 465.34 177.005C466.724 175.731 468.288 177.067 469.606 177.733C471.254 178.565 472.966 179.587 474.808 179.9C474.67 177.527 471.442 176.256 469.661 175.29C468.869 174.861 467.876 174.463 467.68 173.518C467.534 172.808 467.785 171.798 467.859 171.08C467.954 170.168 468.024 169.877 468.995 169.62C470.172 169.308 471.359 169.398 472.538 169.009C475.767 167.943 478.279 166.36 481.047 164.42ZM585.988 127.03C586.776 127.249 587.573 127.438 588.374 127.607C589.959 127.941 591.546 128.289 593.137 128.592C593.935 128.744 594.82 128.648 595.056 129.409C595.176 129.799 594.872 130.501 594.82 130.906C594.726 131.637 594.72 132.378 594.712 133.115C594.628 139.899 596.047 146.643 595.422 153.427C594.895 159.16 593.66 166.409 589.449 170.679C587.631 172.521 585.394 174.523 583.105 175.782C581.311 176.769 578.804 174.292 578.438 172.577C578.175 171.348 578.613 170.051 578.898 168.866C579.264 167.348 579.634 165.831 579.996 164.312C580.769 161.07 581.472 157.798 581.694 154.465C581.767 153.371 581.752 152.316 581.69 151.226C581.656 150.633 581.378 149.207 581.792 148.7C582.327 148.044 583.551 148.473 584.276 148.529C585.07 148.59 585.846 148.543 586.622 148.34C588.47 147.857 588.794 146.389 586.776 145.709C585.368 145.234 582.793 145.922 581.609 145.008C580.219 143.934 583.029 143.787 583.685 143.759C584.559 143.722 587.457 143.95 587.309 142.322C587.2 141.115 584.705 141.034 583.832 140.983C581.967 140.874 579.608 141.572 578.802 139.324C578.479 138.423 580.424 137.966 580.912 137.519C582.098 136.434 582.487 134.573 582.588 133.048C582.689 131.549 581.213 126.351 583.462 126.213C584.152 126.171 585.3 126.84 585.988 127.03ZM475.378 157.026C476.702 158.602 477.846 160.328 479.079 161.975C476.188 163.57 473.23 164.853 470.241 166.225C468.881 166.849 467.928 167.343 466.612 166.397C465.668 165.719 464.961 164.755 464.039 164.049C462.716 163.036 461.332 162.107 459.975 161.14C463.979 159.679 468.045 158.397 472.049 156.933C473.546 156.386 474.297 155.739 475.378 157.026ZM508.353 152.021C507.497 152.889 509.145 155.295 509.47 156.118C506.815 155.907 504.181 155.489 501.574 154.95C500.686 154.767 501.013 155.848 501.346 156.204C501.756 156.645 502.578 156.779 503.128 156.936C505.149 157.515 507.222 157.794 509.296 158.103C508.347 159.271 506.063 161.098 506.798 162.854C508.125 161.711 509.078 160.19 510.546 159.202C510.969 159.834 511.849 162.065 512.813 161.928C514.326 161.714 512.793 159.107 512.476 158.479C513.495 158.479 517.324 159.373 517.858 158.119C518.405 156.837 514.71 156.878 514.027 156.575L514.154 156.42L514.282 156.265C514.793 155.65 515.283 155.043 515.353 154.198C514.21 154.591 513.447 156.381 512.192 156.407C511.001 156.432 510.47 154.643 510.046 153.796C509.804 153.315 508.985 151.38 508.353 152.021ZM379.52 135.15C376.959 137.309 378.699 141.664 380.636 143.621C382.806 145.814 387.638 147.829 390.389 145.593C391.895 144.37 391.351 142.503 390.98 140.876C390.568 139.067 390.312 137.542 388.813 136.301C386.483 134.37 382.117 132.96 379.52 135.15ZM384.716 136.405C387.214 136.936 389.744 139.431 390.338 142.002C391.117 145.374 387.616 145.62 385.309 145.114C382.408 144.476 379.326 142.349 379.178 139.013C379.05 136.133 382.775 135.992 384.716 136.405ZM566.456 121.827C570.196 123.219 573.712 125.123 577.635 125.949C578.833 126.201 579.325 126.477 579.621 127.592C580.036 129.153 580.429 130.735 580.133 132.366C579.518 135.752 574.805 135.338 572.187 135.205C570.843 135.136 568.259 135.382 567.093 134.544C566.242 133.932 566.599 132.783 566.732 131.89C567.228 128.548 566.687 125.166 566.456 121.827ZM362.546 89.5569C363.923 89.8165 366.303 90.9386 364.329 92.3454C363.012 93.2835 361.052 93.3974 359.504 93.6292C356.482 94.0819 353.255 94.473 350.633 96.1777C345.772 99.3364 346.368 105.297 347.822 110.175C346.775 110.792 343.699 106.761 343.12 106.106C340.77 103.446 338.41 100.795 336.041 98.1533C335.027 97.0233 343.34 93.12 344.087 92.7685C348.035 90.9111 351.721 89.6881 356.151 89.3692C358.251 89.2181 360.467 89.1653 362.546 89.5569ZM379.69 79.6698C380.068 80.6209 379.406 81.0521 378.799 81.7091C375.404 85.3818 373.013 90.5801 371.122 95.1394C370.179 97.413 369.519 99.7056 368.935 102.088C368.362 104.425 366.543 105.049 364.363 105.713C359.342 107.241 354.056 107.753 349.017 109.262C347.667 109.667 347.402 106.699 347.317 105.946C347.076 103.805 347.3 101.57 348.426 99.6825C350.553 96.1142 354.818 95.3557 358.623 94.7479C360.798 94.4004 363.665 94.0416 365.387 92.5543C366.251 91.8079 366.373 90.9516 365.699 90.0242C364.47 88.3326 362.307 88.1154 360.373 87.9774C359.432 87.9102 353.602 88.4994 353.411 87.8097C356.314 86.864 359.294 86.2402 362.154 85.1586C364.385 84.3148 366.634 83.5178 368.886 82.728L371.138 81.939C373.427 81.1361 375.524 80.1595 377.721 79.1928C378.546 78.83 379.303 78.6953 379.69 79.6698ZM330.45 95.1444C331.177 96.122 331.898 96.9427 332.443 98.041C333.079 99.3223 334.134 100.14 335.016 101.24C330.436 102.048 326.067 103.074 321.654 104.554C319.388 105.314 317.048 105.69 314.731 106.234C312.787 106.691 310.715 107.399 308.702 106.98C310.995 103.821 317.11 104.694 318.719 100.869C319.815 98.2658 317.123 96.1899 314.921 95.738C311.076 94.9492 306.977 94.8884 303.072 94.6073C303.031 93.1133 317.207 92.3398 318.609 92.2188C321.098 92.0034 323.696 91.5369 326.18 91.4507C328.486 91.3707 329.24 93.5172 330.45 95.1444ZM384.548 84.2176C385.914 85.5374 387.25 86.886 388.615 88.2075C389.512 89.0763 390.727 90.0017 391.434 91.0368C392.336 92.3584 390.755 92.9937 389.702 93.6191C387.042 95.1982 384.294 96.6722 381.588 98.1743C379.157 99.5238 376.629 101.242 373.946 102.031C372.511 102.453 371.163 103.108 369.779 103.663C370.447 97.6707 373.888 92.2284 377.061 87.2331C377.789 86.0861 378.542 84.9549 379.27 83.8082C379.638 83.2309 380.319 81.8684 381.088 81.7508C382.226 81.5766 383.859 83.551 384.548 84.2176ZM314.972 99.4679C313.309 100.421 311.642 100.905 309.765 100.185C309.304 99.9968 308.847 99.7976 308.396 99.588C309.646 97.8833 313.343 98.9222 314.972 99.4679ZM452.739 78.6155C455.687 79.9446 458.841 81.2686 461.405 83.274C462.352 84.0143 464.467 85.5694 463.972 86.9798C463.549 88.1875 461.207 89.216 460.095 89.584C454.246 91.5199 447.589 90.1116 442.203 93.6642C440.746 94.6256 440.271 95.8823 439.188 97.1465C438.209 98.2898 436.97 98.1478 435.654 97.6734C433.926 97.0504 432.333 96.0962 430.599 95.4846C429.712 95.1719 428.204 94.9647 428.112 93.7678C427.678 88.1265 428.882 80.9393 433.856 77.4876C439.439 73.6129 447.141 76.0923 452.739 78.6155ZM455.901 91.7618C456.043 92.477 450.509 93.772 449.908 93.9376C446.567 94.858 443.445 97.0461 439.983 97.399C439.381 96.0569 444.176 93.9201 444.934 93.6446C448.395 92.388 452.267 92.1602 455.901 91.7618ZM347.23 89.2563C343.035 90.9754 338.968 93.0803 335.451 96.0072C334.238 97.0165 331.291 92.2264 330.631 91.492C336.219 91.2598 341.726 90.1937 347.23 89.2563ZM425.645 55.5603C429.534 58.1295 432.921 61.4887 437.191 63.4582C435.855 63.6685 434.397 62.8036 433.121 62.5002C431.878 62.2049 430.621 62.0099 429.411 61.5917C428.668 61.3349 425.599 59.6763 425.024 60.8004C424.124 62.5564 430.461 63.7713 431.363 64.0708C434.406 65.082 437.429 66.1412 440.441 67.2417C443.358 68.3075 446.274 69.4545 449.288 70.22C452.35 70.9975 455.597 71.1978 458.54 72.4052C461.143 73.4729 463.381 75.2399 465.891 76.487C468.409 77.7376 471.271 78.5111 473.442 80.3722C471.081 82.8906 468.29 84.9995 465.237 86.6049C464.748 82.7644 460.246 80.5777 457.166 79.1015C450.451 75.8831 440.367 71.0302 433.523 76.4839C428.521 80.4699 427.844 88.0331 427.844 93.954C426.489 93.5226 425.252 92.8365 423.993 92.1888C423.122 91.74 423.112 90.4902 423.002 89.6557C422.823 88.2888 422.453 86.9651 422.028 85.6538C421.089 82.7533 419.914 79.9234 418.794 77.0899C416.981 72.5061 414.746 67.9855 413.632 63.1632C412.904 60.0161 412.039 54.6068 415.834 53.0446C419.117 51.6933 422.979 53.7996 425.645 55.5603ZM442.63 42.7506C443.264 43.1756 443.027 44.4505 442.984 45.0902C442.827 47.4162 442.925 49.7518 442.848 52.082C442.753 54.9211 442.732 60.1276 439.804 61.7196C437.801 62.8083 435.311 61.1769 433.712 60.0658C431.008 58.1868 428.527 56.0045 425.786 54.17C422.536 51.9952 416.377 48.9868 413.267 53.0779C411.584 55.2922 411.82 58.5916 412.24 61.1678C412.794 64.5669 414.089 67.7907 415.375 70.9672C418.032 77.5265 420.805 84.1924 422.283 91.1354C418.914 89.1335 416.294 86.2482 413.354 83.7135C411.175 81.8348 407.938 79.6772 407.435 76.6154C407.321 75.9239 406.652 75.4312 406.191 74.9686C405.592 74.3665 405.17 73.7567 404.79 72.9887C403.952 71.2921 403.408 69.4598 403.064 67.6033C402.344 63.7085 402.687 59.8318 403.351 55.9599C403.652 54.2089 403.211 52.3301 403.619 50.6234C403.903 49.4382 404.739 49.5084 405.852 49.2389C409.859 48.2682 413.874 47.327 417.883 46.3653C419.512 45.9744 421.283 45.2414 422.974 45.2658C424.362 45.2859 425.528 46.1133 426.725 46.7126C428.692 47.6965 431.818 49.4181 434.076 48.4395C436.708 47.2993 433.641 44.7248 434.961 43.5069C435.866 42.6717 438.57 43.1726 439.797 42.9651C440.469 42.8515 442.013 42.3374 442.63 42.7506ZM401.22 76.3854C403.134 76.687 404.242 77.5171 405.296 79.1457C406.367 80.8009 406.495 81.6206 404.968 82.916C403.32 84.3128 401.597 85.6925 399.848 86.9505C397.632 88.5451 395.173 89.7522 392.983 91.3857C392.023 92.1011 387.669 86.4926 386.914 85.7235C385.871 84.6626 384.802 83.5986 383.683 82.622C383.275 82.2652 381.994 81.4376 381.993 80.8307C381.991 79.2965 385.394 77.9239 386.489 77.5015C388.942 76.5555 391.513 76.1736 394.127 76.134C396.444 76.0991 398.925 76.0234 401.22 76.3854ZM392.692 69.6366C394.489 70.5905 396.366 71.3944 398.174 72.3285C398.815 72.6597 402.86 74.3585 402.655 75.374C398.104 75.0856 393.573 74.3154 389.035 75.1964C386.998 75.5923 385.056 76.2556 383.354 77.4796C382.064 78.4062 381.081 80.1866 379.801 78.602C382.415 77.1208 384.769 75.1575 387.087 73.2514C388.101 72.4168 389.145 71.6321 390.175 70.8203C390.788 70.3376 391.798 69.1621 392.692 69.6366ZM500.35 47.4593C501.774 47.6592 503.162 48.0364 504.56 48.3602C510.225 49.6721 515.911 50.85 521.561 52.2384C532.83 55.0074 544.436 57.6774 555.182 62.1136C554.278 63.1122 551.884 62.3888 550.763 62.193C548.568 61.8096 546.438 61.1395 544.269 60.6337C542.149 60.1394 540.02 59.5497 537.881 59.1374C536.896 58.9477 535.159 58.6976 535.119 60.1741C535.063 62.2674 539.13 63.8326 540.623 64.5977C542.219 65.4159 543.765 66.3201 545.284 67.2713C546.485 68.0235 548.701 69.0261 549.09 70.5209C545.192 68.8696 541.291 67.2249 537.417 65.5178C535.958 64.8747 534.479 64.2688 533.09 63.4842C532.164 62.9611 530.971 62.0431 529.875 61.9607C528.389 61.8488 528.143 63.1973 528.769 64.2853C529.552 65.6473 531.168 66.4157 532.357 67.3688C533.872 68.5842 535.213 70.0178 536.578 71.3936C537.71 72.5356 539.169 73.6598 539.76 75.2038C537.724 75.8846 535.41 73.7021 533.914 72.6234C531.563 70.928 529.373 69.0839 527.13 67.2518C525.983 66.3147 524.615 64.7968 523.105 64.5171C521.191 64.1621 521.349 66.3501 521.814 67.5562C522.851 70.252 525.28 72.4996 525.453 75.5387C525.56 77.4097 523.975 76.6974 522.918 75.947C521.137 74.683 519.932 72.7571 518.316 71.3076C514.424 67.8164 509.969 64.8382 505.155 62.7701C504.294 62.3999 503.984 61.0711 503.722 60.2725C503.331 59.0805 502.881 57.9247 502.411 56.7597C501.382 54.2078 500.538 51.4496 499.095 49.0923C498.693 48.4348 497.655 47.7648 498.514 47.378C498.98 47.1682 499.868 47.3915 500.35 47.4593ZM459.255 43.1424C460.713 43.3126 462.189 43.297 463.65 43.4511C466.034 43.7024 464.994 46.6027 465.378 48.3502C466.509 53.4947 471.962 54.4661 476.095 52.0392C478.42 50.6734 479.815 48.7161 481.066 46.4265C481.778 45.1212 482.309 44.9111 483.784 45.2378C484.796 45.4622 485.716 45.4146 486.746 45.4891C488.041 45.5831 488.154 45.8577 488.181 47.0904C488.204 48.1851 488.361 48.9435 489.09 49.8303C490.48 51.5195 492.809 52.6315 494.793 53.4803C496.781 54.3309 499.033 54.9631 500.125 56.9733C500.676 57.9869 501.265 59.1968 501.425 60.349C501.599 61.6076 501.172 62.3885 501.906 63.5496C503.432 65.9634 504.131 68.6013 504.903 71.3445C505.154 72.2382 505.253 72.6059 504.278 72.8515C502.878 73.2042 500.89 72.669 499.453 72.6127C498.429 72.5727 497.83 70.7659 497.497 70.0338C496.849 68.6103 496.055 67.2625 495.26 65.9152C493.458 62.8633 491.531 59.8317 489.177 57.165C487.4 55.1524 484.777 52.6471 482.502 55.4753C480.285 58.2313 478.687 61.4595 476.02 63.862C473.675 65.9751 471.258 66.0089 468.826 64.0062C466.431 62.0345 464.611 59.3446 463.123 56.6606C461.513 53.7583 460.299 50.6596 458.73 47.7399C458.239 46.8247 455.968 44.349 456.66 43.2887C457.127 42.5724 458.599 43.0661 459.255 43.1424ZM447.042 42.5093C448.326 42.57 449.617 42.4258 450.901 42.4001C453.224 42.3543 455.167 42.4354 456.334 44.6614C457.364 46.6259 458.241 48.7158 459.181 50.7273C461.222 55.0972 463.225 59.5686 466.36 63.2871C469.137 66.5815 472.724 68.2412 476.337 65.0941C477.939 63.6987 479.155 61.8984 480.305 60.1288C481.226 58.7102 482.278 56.2136 483.822 55.3866C485.543 54.4646 487.513 56.5795 488.566 57.7272C490.335 59.6567 491.813 61.9258 493.233 64.1168C494.263 65.7059 495.249 67.3285 496.25 68.9363C496.656 69.5883 498.309 71.7208 497.759 72.533C497.207 73.3473 494.515 72.7907 493.736 72.7161C491.876 72.5387 490.018 72.4748 488.157 72.3146C482.368 71.8167 476.666 70.545 470.862 70.2056C467.04 69.9818 463.273 69.2429 459.51 68.5716C455.851 67.919 452.169 67.4736 448.549 66.6111C446.42 66.1039 444.288 65.5961 442.164 65.0699C441.429 64.888 437.955 64.3917 437.739 63.4365C440.131 63.0189 441.387 62.0912 442.235 59.7574C443.298 56.8348 443.421 53.5775 443.512 50.498C443.547 49.3133 443.552 48.1281 443.553 46.943L443.553 45.521C443.553 44.6711 443.186 43.1287 443.952 42.5392C444.662 41.9937 446.221 42.4701 447.042 42.5093ZM399.553 61.3833C399.453 65.2345 400.141 69.116 401.723 72.6345C400.069 72.8997 398.1 70.8235 396.712 70.1281C396.177 69.86 392.636 68.5735 393.822 67.5899C396.003 65.7809 397.433 63.2535 399.553 61.3833ZM352.096 64.5151C351.611 65.4727 352.21 66.6882 352.535 67.5966C350.01 68.2033 347.495 68.7994 344.95 69.3144C343.033 69.7025 343.702 70.8525 345.366 70.7733C347.681 70.6631 349.835 69.6825 352.138 69.5552C354.333 69.4338 354.591 71.3493 356.462 71.7182C356.398 70.6643 355.545 69.9323 354.933 69.1418C355.943 68.6238 356.974 68.1423 357.953 67.5716C358.461 67.276 359.862 66.0364 359.322 65.3778C358.778 64.7131 357.349 65.9589 356.841 66.2332C356.119 66.6234 354.676 67.4832 353.826 67.2365C352.662 66.8986 352.904 65.2273 352.096 64.5151ZM388.482 39.4222C389.507 39.4933 390.621 39.1487 391.592 39.5995C392.559 40.0491 393.714 41.0334 394.523 41.716C395.306 42.3768 395.696 43.1792 396.67 43.5692C397.642 43.9592 398.639 43.9247 399.014 45.1141C398.131 45.3562 396.399 45.0352 395.708 45.6839C394.702 46.6279 396.457 47.6666 397.184 47.9637C398.228 48.3898 399.082 48.2515 400.149 48.1716C400.613 48.1371 400.609 47.9943 400.989 48.2243C402.4 49.0769 401.424 52.1102 400.966 53.2167C398.727 58.6327 391.077 56.8088 386.665 56.2542C388.069 54.8399 390.369 53.2799 390.485 51.0587C390.519 50.3973 390.355 49.2152 389.506 49.1601C388.827 49.1162 388.012 50.1419 387.589 50.5462C386.336 51.7444 384.714 53.7313 382.901 53.9032C380.478 54.1331 378.613 50.2085 377.608 48.4969C378.844 48.2648 380.197 48.2784 380.915 47.0666C381.768 45.6264 381.783 43.4197 381.768 41.7983C381.756 40.4176 381.316 38.9072 383.161 38.8394C384.862 38.7771 386.766 39.3033 388.482 39.4222ZM551.202 42.9634C551.555 43.7335 553.089 44.0353 553.763 44.2412C556.325 45.0238 558.827 46.0178 561.325 46.9925C566.367 48.961 571.355 51.135 575.96 54.0277C576.821 54.5687 576.399 53.5253 576.175 53.1491C575.674 52.3057 574.621 51.7089 573.835 51.1923C571.707 49.7938 569.453 48.8114 567.1 47.8759C562.392 46.0044 557.612 44.0198 552.783 42.5037C552.223 42.328 550.727 41.9286 551.202 42.9634ZM492.716 46.777C493.652 46.8737 494.748 46.6609 495.649 46.9664C496.822 47.3645 496.628 48.1697 496.975 49.16C497.564 50.841 498.195 52.5079 498.809 54.1802C496.534 54.0741 494.356 52.2735 492.428 51.2371C491.337 50.6504 487.543 48.7032 488.687 46.9205C489.411 45.7922 491.676 46.6691 492.716 46.777ZM466.828 43.8463C468.236 43.8209 469.785 44.2472 471.211 44.3181C473.122 44.4131 475.004 44.7767 476.913 44.8645C478.169 44.9225 479.402 45.1806 480.645 45.3497C479.409 48.2134 476.996 50.7182 473.964 51.7555C471.572 52.5738 468.225 52.7128 466.591 50.4484C465.65 49.1458 464.115 43.8953 466.828 43.8463ZM393.484 32.0174C395.02 33.0376 396.251 34.4996 397.534 35.8039C400.747 39.0707 404.073 42.5683 405.464 47.0464C405.655 47.6598 404.206 48.2019 403.814 48.2257C402.985 48.2757 402.817 47.8578 402.491 47.1576C401.686 45.4238 401.378 43.487 400.089 42.0088C398.52 40.2064 396.629 38.4491 394.807 36.9007C393.569 35.8485 390.534 34.367 390.178 32.6275C389.758 30.5711 392.554 31.3997 393.484 32.0174ZM433.103 43.917C433.971 44.1696 434.04 44.9733 434.239 45.8391C435.037 49.318 426.962 45.5224 425.838 44.9537C426.212 43.8368 429.892 44.0404 430.744 43.9966C431.408 43.9628 432.461 43.7304 433.103 43.917ZM385.406 45.724C386.603 45.7701 386.051 40.883 384.691 41.3745C383.524 41.7965 384.639 45.694 385.406 45.724ZM553.616 40.1048C555.448 41.6862 558.324 41.8983 560.602 42.4058C563.959 43.1538 567.286 44.1071 570.616 44.9673C572.718 45.5105 571.534 44.2152 570.482 43.7285C568.672 42.8916 566.623 42.4456 564.688 41.9852C562.594 41.4867 560.454 41.1539 558.371 40.6101C556.929 40.2333 555.07 39.2697 553.616 40.1048ZM496.617 6.11781C494.581 6.49169 492.549 7.14284 490.764 8.20945C489.286 9.09241 489.345 10.4662 491.218 9.66909C499.956 5.95002 510.798 8.20287 519.331 11.496C520.272 11.8591 520.202 11.0668 519.918 10.456C519.526 9.61465 518.689 9.12621 517.885 8.73558C515.47 7.56129 512.686 6.89728 510.06 6.40944C505.684 5.59647 501.014 5.31083 496.617 6.11781ZM495.34 0.775983C494.23 1.07713 492.954 1.82406 492.276 2.77155C491.481 3.88039 492.113 4.44713 493.215 3.795C494.446 3.06722 495.572 2.34156 496.984 1.95715C497.73 1.75447 497.7 1.2868 497.164 0.876263C496.663 0.491858 495.885 0.628298 495.34 0.775983Z" fill="black"/>
</svg>
