<svg width="306" height="219" viewBox="0 0 306 219" fill="none" xmlns="http://www.w3.org/2000/svg">
<path fill-rule="evenodd" clip-rule="evenodd" d="M130.114 91.8688C126.816 94.2598 127.341 98.9645 128.334 102.383C129.796 107.416 132.708 112.075 136.03 116.091C141.924 123.216 151.929 131.216 161.152 124.961C169.365 119.391 174.545 108.15 176.334 98.6822C176.886 95.7562 177.623 91.3967 175.026 89.1968C171.187 85.9453 164.415 86.5368 159.78 86.9555C156.728 87.2309 153.783 88.1666 150.767 87.7274C143.759 86.7061 135.959 87.6312 130.114 91.8688Z" fill="#CF87F0"/>
<path fill-rule="evenodd" clip-rule="evenodd" d="M120.983 50.438C123.27 50.1852 125.597 50.1186 127.899 50.1558L128.581 50.1679C130.158 50.1791 135.069 50.0368 135.546 51.8046C135.876 53.0293 134.226 52.6933 133.407 52.725C132.168 52.773 130.927 52.7833 129.691 52.873L129.162 52.9166C127.825 53.0409 124.906 52.9222 124.008 54.1139C123.044 55.3942 124.881 57.6386 125.55 58.7954L125.585 58.8563C128.159 63.4577 129.764 68.3994 134.376 71.4541C138.735 74.3405 144.436 75.5912 149.46 76.922L150.626 77.2322C152.297 77.6857 152.719 77.9362 153.371 79.7771L153.447 79.9967C154.115 81.951 154.361 80.579 154.859 79.2819L154.881 79.2255C155.622 77.3355 157.053 78.1851 158.888 78.3176C161.679 78.5196 164.745 78.179 167.517 77.7195L167.848 77.6639C173.119 76.7654 178.707 75.5509 182.883 72.008C187.16 68.3793 189.859 63.0911 191.518 57.821L191.17 57.7792C189.876 57.6304 188.413 57.515 187.273 56.9161C185.52 55.9949 186.419 54.591 188.029 54.092C190.592 53.2981 193.84 53.7036 196.432 54.0329C199.683 54.4459 202.947 54.7133 206.216 54.935L207.107 54.9944C219.049 55.778 230.448 57.2008 241.773 61.2886C252.452 65.1432 262.533 70.6431 271.637 77.4105C280.859 84.2659 288.496 92.5328 295.078 101.918C298.573 106.902 301.043 112.014 303.2 117.692C304.173 120.258 304.852 122.759 305.229 125.481C305.604 128.192 305.117 131.114 305.717 133.78L305.786 134.065C306.57 137.115 305.017 141.208 304.116 144.113C302.962 147.833 301.135 151.339 298.868 154.504C290.534 166.14 275.841 172.003 261.979 173.475C258.057 173.892 254.124 173.965 250.182 173.992C248.725 174.002 247.236 174.16 245.785 173.972C244.359 173.787 243.718 173.101 242.569 172.462C241.253 171.731 239.317 171.64 237.859 171.339L236.101 170.981C234.735 170.701 233.374 170.411 232.026 170.04C230.497 169.619 228.983 169.219 227.441 168.874L226.778 168.73C225.319 168.421 223.693 167.77 222.185 168.162C225.52 173.395 229.298 178.7 233.724 183.079C237.643 186.958 242.435 190.16 245.927 194.453C246.793 195.517 248.024 198.264 249.599 198.352C250.374 198.396 250.791 197.441 251.609 197.688C252.497 197.957 252.496 199.343 252.289 200.016C250.908 204.506 242.628 205.514 238.804 205.264L238.689 205.256C235.652 205.032 232.474 204.947 229.487 204.345C226.767 203.797 224.221 202.45 221.428 202.253C215.989 201.87 211.235 206.465 207.39 209.811L206.551 210.535C202.721 213.827 197.855 217.904 192.659 218.118C186.466 218.375 180.3 215.429 174.589 213.435C169.106 211.52 163.44 209.961 157.836 208.378L155.861 207.818C149.959 206.135 143.935 204.155 137.752 205.509C132.702 206.615 127.233 209.686 123.921 213.694L123.737 213.919C122.312 215.696 121.079 217.791 118.701 218.33C116.52 218.824 114.446 218.116 112.926 216.545C109.637 213.144 107.986 208.38 106.233 204.048L105.922 203.289C103.574 197.62 102.169 191.852 101.079 185.826C100.475 182.486 99.8859 179.142 99.3937 175.784C99.1703 174.259 98.9659 172.731 98.7919 171.199C98.6927 170.324 98.8662 168.713 98.4586 167.878C97.5763 166.073 94.4732 168.485 93.0724 169.141L91.9992 169.623C89.6283 170.682 87.2721 171.708 84.7939 172.527C82.0548 173.432 79.3416 174.536 76.5394 175.216C75.5313 175.461 74.3995 175.637 73.4661 176.122C72.6887 176.527 72.4121 177.476 71.776 177.807C70.8796 178.273 69.9617 177.396 69.006 177.318C67.7437 177.215 66.3451 177.623 65.1163 177.879C62.2982 178.465 59.5566 179.243 56.6672 179.415C50.7577 179.767 44.8705 178.341 39.2993 176.49L38.9843 176.385C28.2458 172.779 17.1681 168.315 12.0637 157.448C2.24142 136.537 7.30331 109.285 23.2806 92.9083C39.9254 75.8476 62.0147 64.0051 84.8222 57.5784C96.5778 54.2656 108.835 51.7815 120.983 50.438ZM125.45 119.629C119.292 121.563 113.204 123.829 107.684 127.214C103.107 130.021 98.5982 133.031 94.132 136.046L90.3581 138.597C86.0941 141.473 81.4776 144.492 76.6944 146.321C75.0356 146.955 72.3541 147.447 71.3937 149.132C70.5334 150.641 71.0162 152.984 71.0372 154.633C71.0849 158.41 70.6726 162.235 70.4886 166.024L70.4569 166.733C70.417 167.714 69.9767 170.307 70.8426 171.044C71.6454 171.727 73.9829 170.81 74.7942 170.583L75.6848 170.332C85.1857 167.647 94.7133 164.532 102.964 158.978C107.725 155.771 111.839 151.708 116.133 147.928C118.469 145.871 121.075 144.032 123.24 141.793C124.028 140.978 124.674 140.077 125.576 139.382C126.437 138.72 127.457 138.379 128.175 137.516C128.79 136.778 129.539 136.111 129.837 135.165C128.019 135.165 122.737 138.33 121.824 135.618C120.883 132.823 126.055 129.805 127.581 128.125C125.806 128.392 124.058 128.803 122.361 129.389C121.333 129.743 119.658 130.839 118.525 130.805C116.187 130.735 117.056 127.993 117.902 126.781C118.859 125.411 120.172 124.277 121.483 123.214L122.461 122.428C122.797 122.158 125.735 120.228 125.45 119.629ZM186.905 117.387L186.464 116.982C184.594 115.273 182.063 113.291 179.384 113.912C180.473 116.596 182.657 118.937 184.716 120.952L184.893 121.124C185.752 121.96 188.508 123.859 187.926 125.371C186.98 127.827 182.915 125.251 181.729 124.541C179.059 122.942 176.204 121.793 173.137 121.198C174.923 123.324 176.845 125.349 179.092 126.99L179.837 127.523C181.074 128.425 182.542 129.707 181.01 130.943C177.735 133.586 171.9 128.352 168.74 127.519C168.345 129.332 169.315 130.278 170.579 131.491C171.985 132.837 173.708 132.653 174.968 134.245C177.483 137.421 180.112 140.404 183.035 143.236C189.304 149.313 196.324 153.226 204.292 156.646C212.638 160.228 221.639 162.516 230.488 164.512L231.239 164.682C233.087 165.119 242.942 167.684 242.994 166.799L243.102 164.947C243.466 158.548 243.659 151.964 241.159 145.932C240.163 143.528 239.011 142.72 236.451 142.609L236.317 142.604C232.903 142.489 229.621 142.179 226.257 141.504C219.399 140.129 212.503 138.168 206.069 135.398C203.254 134.186 200.511 132.72 198.166 130.73L197.847 130.456C196.731 129.487 195.606 128.378 194.879 127.104C194.171 125.863 193.974 124.504 193.068 123.353C191.383 121.212 188.95 119.253 186.905 117.387ZM96.7917 90.7392C95.8887 89.7059 93.2512 90.9107 92.2239 91.2974L92.1674 91.3184C86.9973 93.2187 81.475 94.7563 76.5853 97.2885C70.158 100.617 64.0231 104.56 58.3393 109.032C52.649 113.509 47.3986 118.453 42.7228 123.983L42.4819 124.269C38.6966 128.771 34.4212 134.482 35.1139 140.686C35.7105 146.033 40.918 147.982 45.6238 148.574C48.9318 148.99 51.9266 148.482 55.1424 147.783L56.4321 147.501C59.5861 146.817 62.7157 146.161 65.776 145.085C69.658 143.719 73.2424 141.765 76.9238 139.958C80.2758 138.312 83.7892 137.029 87.1073 135.308L87.3197 135.2C89.2159 134.241 92.4861 132.844 93.2215 130.772C93.6188 129.652 93.0222 128.192 92.9556 127.046C92.843 125.114 93.0158 123.101 93.135 121.159L93.1596 120.745C93.5819 113.323 94.4993 105.936 95.2617 98.5467L95.3683 97.4812C95.4988 96.218 95.667 95.0056 96.1843 93.7995L96.2357 93.6853C96.6135 92.8783 97.5006 91.551 96.7917 90.7392ZM167.302 147.655C168.618 147.246 167.006 142.131 165.677 142.825C164.283 143.552 165.848 148.107 167.302 147.655ZM144.426 142.371L144.472 142.209C145.023 140.329 143.004 141.318 142.38 142.102C141.287 143.477 141.398 145.945 142.525 147.282C143.718 145.926 143.955 144.051 144.426 142.371ZM217.564 96.5349L217.01 96.3736C215.355 95.8992 214.307 95.7412 213.46 97.6319C212.692 99.3471 212.529 101.363 212.253 103.212L212.218 103.442C211.751 106.427 211.39 109.428 210.909 112.41L210.794 113.111C209.838 118.844 208.367 125.748 210.571 131.298C211.425 133.449 214.377 133.824 216.418 134.501L216.526 134.537C219.62 135.596 222.801 136.478 226.003 137.144C231.942 138.378 238.012 138.835 244.071 138.885C254.16 138.968 265.519 137.629 272.201 129.153C274.305 126.483 271.73 123.28 270.004 121.228C267.77 118.573 265.372 116.311 262.589 114.227C257.096 110.115 251.123 107.196 244.965 104.239C238.737 101.249 232.759 99.1387 225.906 98.0923C223.098 97.6636 220.295 97.3322 217.564 96.5349ZM163.516 89.8446C159.822 89.7868 156.086 92.1556 153.776 94.8878L153.54 95.17C152.349 96.5886 151.856 96.7734 150.636 95.2133L150.425 94.9451C149.395 93.6497 148.234 92.378 146.653 91.7809C143.657 90.6497 139.586 91.4007 136.785 92.754C133.701 94.2445 132.002 97.4767 131.502 100.762C130.32 108.512 138.063 116.953 144.393 120.398C146.223 121.394 148.267 121.845 150.044 122.957L150.396 123.176C151.758 124.01 152.946 124.559 154.496 123.593C156.071 122.611 157.699 121.315 159.11 120.1C160.714 118.72 162.708 117.819 164.242 116.384L164.686 115.966C167.481 113.314 169.964 110.57 171.673 107.059C172.272 105.829 172.738 104.718 172.883 103.373L172.887 103.314C172.902 102.878 172.818 100.861 172.82 100.86C174.754 99.2982 173.079 95.792 171.923 93.7271L171.697 93.3293C171.414 92.8359 170.923 91.8632 170.431 91.552C170.236 91.4285 169.775 91.7033 169.495 91.5713C169.266 91.4637 169.14 91.1461 168.912 91.041C167.233 90.2673 165.38 89.8742 163.516 89.8446ZM117.83 114.181C119.211 111.88 114.781 111.922 114.576 113.918C114.337 116.25 117.079 115.431 117.83 114.181ZM190.986 112.061L190.97 112.157C190.856 112.893 190.761 115.061 191.878 113.864C192.735 112.944 190.978 112.104 190.986 112.061ZM115.834 97.2915C115.007 96.6901 113.616 96.943 112.687 97.0703C111.125 97.2855 110.901 99.206 112.226 99.9008C113.004 100.309 114.847 100.186 115.634 99.7362C116.631 99.1674 116.914 98.076 115.834 97.2915ZM34.4124 68.4469C33.741 70.6151 30.3428 72.0532 28.6482 73.3712C22.7207 77.9825 16.9285 82.7837 11.5698 88.0466C8.89537 90.6732 6.84607 93.8291 4.54816 96.7689L4.18613 97.2297C3.58544 98.0124 2.58644 99.5154 1.4859 99.3666C0.219563 99.196 -0.0364546 97.015 0.00392392 96.0625C0.142242 92.8144 3.10877 89.6775 5.22435 87.4408C7.6041 84.9259 10.1484 82.4751 12.7468 80.185C15.6076 77.6641 18.7121 75.4971 21.8758 73.3755C24.9823 71.2923 27.9609 68.8855 31.1916 66.9985L31.2981 66.9381C32.8279 66.0958 35.2216 65.8331 34.4124 68.4469ZM198.248 98.037C198.269 96.1928 194.603 95.4534 194.571 97.607C194.544 99.3569 198.228 99.7769 198.248 98.037ZM200.448 82.4637C200.622 79.6876 194.216 81.9034 193.851 83.4964C193.078 86.8829 200.36 83.8556 200.448 82.4637ZM116.812 78.9778C114.139 78.9531 117.655 81.9584 118.515 82.3366L118.541 82.3475C119.529 82.7449 120.897 82.8405 120.564 81.3963C120.207 79.845 118.018 79.445 116.812 78.9778ZM241.611 47.8552C244.085 47.9332 246.499 48.7447 248.832 49.4981C253.965 51.1556 258.854 53.4549 263.674 55.858C272.125 60.0704 280.258 65.1671 287.713 70.962C289.16 72.0866 290.641 73.0131 292.202 73.9326L292.766 74.2618C293.832 74.8749 295.22 75.6316 295.612 76.8462C296.674 80.1328 291.317 76.8341 290.556 76.3622L287.883 74.7061C272.555 65.229 257.177 56.127 239.84 50.6794C238.884 50.379 238.587 49.5265 239.089 48.6814C239.632 47.7655 240.691 47.8263 241.611 47.8552ZM33.6906 54.7338C33.5792 55.705 32.5082 55.948 31.7463 56.2552L31.678 56.2833C28.8255 57.4815 25.9019 58.5033 23.0572 59.7213C17.7773 61.9818 12.9286 65.2625 7.41771 66.978C6.15833 67.3708 5.9725 66.0997 6.30966 65.2349C6.68519 64.2695 7.81307 63.5917 8.6288 63.0334C10.982 61.4213 13.6508 60.2624 16.264 59.1427C18.8548 58.0316 21.5223 57.1913 24.1786 56.26C26.6473 55.3943 29.5127 53.7831 32.1639 53.6641L32.5608 53.6452C33.272 53.6188 33.809 53.6923 33.6906 54.7338ZM143.83 40.3539L144.037 39.8766C144.573 38.6222 146.67 33.0418 148.248 33.3573C149.759 33.6593 145.952 43.5738 145.569 44.6697L145.559 44.7002C143.307 51.3051 142.247 58.2608 142.247 65.2392C140.683 63.8313 139.734 63.4836 139.583 61.1861C139.395 58.3073 139.844 55.4229 140.377 52.6021L140.439 52.2769C141.216 48.2174 142.2 44.1566 143.83 40.3539ZM175.779 0.00302005C179.208 0.0515462 182.434 1.01122 185.631 2.14772L187.851 2.94345C190.333 3.83828 192.831 4.82822 194.811 6.59656C199.152 10.4734 200.283 16.8925 200.993 22.3844C201.879 29.2374 198.931 34.9871 196.449 41.1871C194.127 46.9858 189.867 51.6832 184.803 55.2627C182.238 57.0752 179.413 58.1932 176.456 59.1622L176.15 59.262C173.034 60.2699 170.016 61.6199 166.682 61.6148C161.618 61.6075 155.136 59.2027 152.979 54.2143C152.011 51.9734 152.929 51.5466 154.841 52.7213L154.919 52.7698C157.769 54.5606 160.517 56.4932 163.848 57.2877C170.308 58.8289 178.046 56.4413 183.71 53.291C189.373 50.1416 193.174 45.4106 195.715 39.5196C198.278 33.5765 199.274 27.7203 198.286 21.3132C197.448 15.8836 195.782 10.9241 190.889 7.97662C180.326 1.61467 166.095 2.12725 156.702 10.3952C155.628 11.3397 154.565 12.2631 153.472 13.1709L152.587 13.8993C151.802 14.5502 150.986 15.3321 151.098 16.4168L151.107 16.4828C151.289 17.5937 153.322 21.3389 150.759 20.157C148.639 19.1787 147.487 17.2663 144.918 17.0295C142.184 16.7773 138.923 18.8775 138.105 21.5208C137.325 24.0428 138.716 27.4934 140.895 28.9401C142.118 29.752 143.452 29.7144 144.831 29.6734L145.261 29.6615C146.021 29.6434 148.138 29.3964 148.641 30.2003C149.532 31.622 146.391 33.1164 145.377 33.4309C142.91 34.1961 139.995 33.2956 138.577 31.0936C137.135 28.855 136.149 26.2642 135.95 23.5973C135.76 21.0421 136.34 18.4551 137.847 16.3571C139.451 14.1259 142.719 11.6244 145.649 12.3995C146.921 12.736 147.942 14.0498 149.19 14.2995C149.978 14.4567 149.647 14.5693 150.299 13.9854C150.714 13.615 151.105 12.9314 151.488 12.4923L152.903 10.8543C154.642 8.84386 156.438 6.84027 158.552 5.25259C163.378 1.62928 169.792 -0.0820524 175.779 0.00302005ZM164.364 51.5054C164.977 52.2949 166.42 52.9091 166.358 54.0735C166.255 55.9959 163.635 55.6393 162.761 54.6365C161.767 53.4948 161.871 51.3788 162.434 50.0575C163.005 48.7196 164.054 51.1063 164.364 51.5054ZM181.05 40.9557C182.463 43.1586 180.741 45.5364 179.623 47.4861C178.554 49.3502 177.562 51.4575 176.318 53.2101C174.253 56.1198 169.76 52.9721 169.627 49.9816C169.527 47.7551 171.059 48.6368 172.1 49.4734L172.33 49.6598C173.306 50.442 173.817 50.6001 174.889 49.682C177.148 47.7462 178.163 44.5094 179.725 42.0587C180.035 41.5728 180.596 41.2805 181.05 40.9557ZM185.079 41.664C185.444 42.7293 184.679 45.5521 186.805 45.2699C187.98 45.114 188.23 43.4285 188.848 42.6929C190.924 40.22 190.288 44.8972 189.745 46.0678C188.549 48.6479 185.201 50.4255 183.541 47.1524C182.945 45.9768 182.927 44.5037 183.209 43.2254L183.24 43.0892C183.411 42.3764 184.407 39.6968 185.079 41.664ZM247.474 37.3369C249.146 37.4622 250.763 38.2518 252.348 38.7281C257.03 40.1338 261.382 41.6666 265.753 43.8046L266.308 44.0799C267.116 44.4937 269.799 45.9998 267.905 46.6812C266.54 47.1718 263.354 45.0665 262.183 44.5615C257.035 42.3418 251.503 41.0468 246.114 39.5312C243.591 38.8216 245.975 37.2247 247.474 37.3369ZM166.123 36.6187C165.935 37.8616 164.767 40.338 166.193 41.2272C167.286 41.9085 169.083 40.7092 170.168 39.9188L170.709 39.5195C171.759 38.7227 173.884 36.8381 173.97 39.3802C174.016 40.7222 172.672 42.3324 171.714 43.1056L171.58 43.2106C169.489 44.8154 165.387 46.1675 163.911 43.13C163.09 41.4393 163.54 39.0325 164.082 37.3288L164.112 37.2413C164.607 35.8532 166.568 33.6789 166.123 36.6187ZM192.592 29.4006L193.332 30.2594C194.253 31.3435 195.611 33.1291 194.681 34.322C193.444 35.9092 191.444 33.058 190.619 32.1919L190.586 32.1574C189.862 31.4173 188.34 29.3097 188.989 28.1918C189.922 26.5853 191.669 28.3521 192.592 29.4006ZM179.866 25.6517C182.56 27.4063 179.081 28.6747 177.508 28.8539L177.134 28.8909C175.313 29.0613 173.089 29.1246 171.464 28.2569C169.023 26.9523 169.836 24.9818 172.203 24.5101C174.63 24.0268 177.755 24.276 179.866 25.6517ZM144.498 20.0094L144.93 20.0952C146.817 20.4796 148.832 21.0612 149.465 23.0865C150.158 25.3066 149.188 26.0659 147.206 25.6036L146.644 25.4679C144.783 25.0273 142.314 24.4913 141.33 22.7922C140.053 20.5857 142.642 19.6489 144.498 20.0094Z" fill="#101F18"/>
<path fill-rule="evenodd" clip-rule="evenodd" d="M194.03 46.7284C194.253 46.0791 194.388 45.4018 194.417 44.7106C194.416 44.7298 194.416 44.7493 194.415 44.7686C194.417 44.7247 194.418 44.6812 194.421 44.6373C194.42 44.6543 194.419 44.671 194.418 44.6874C194.551 39.0178 189.811 34.0907 184.308 37.443C184.364 37.4256 184.418 37.4074 184.474 37.3897C178.231 40.43 182.605 33.6022 175.369 28.7671C172.071 26.777 167.865 27.8627 164.59 29.1587C162.909 29.5569 161.707 31.3586 160.887 33.2493C159.042 37.5032 161.296 41.6719 165.234 44.3644C168.791 46.7961 171.411 46.2519 176.702 44.7809C177.649 44.5174 179.41 44.3694 180.728 45.4033C181.93 46.3471 181.773 46.9022 182.014 48.6631C183.391 58.7256 191.782 52.4199 194.03 46.7284Z" fill="#34654E"/>
<path d="M169.449 32.4816C171.633 33.4678 173.847 35.0517 175.363 36.723L175.446 36.816L175.476 36.8502L175.48 36.8531C175.496 36.8658 175.511 36.8793 175.526 36.8941L175.548 36.9171L175.57 36.9422L175.588 36.9645L175.747 37.172L175.807 37.2523C175.882 37.3536 175.937 37.4337 175.99 37.5176L176.01 37.5493L176.047 37.6109C176.968 39.2195 176.646 40.7314 175.265 41.4436C174.094 42.0479 172.498 41.8758 171.288 41.0097L171.236 40.9716L171.2 40.9443L171.171 40.9313C170.284 40.4959 168.837 38.5429 167.875 36.55L167.84 36.477L167.806 36.4049L167.74 36.2632L167.675 36.1187C167.154 34.9468 166.934 34.0125 167.048 33.352C167.223 32.3281 168.122 32.008 169.403 32.4633L169.426 32.472L169.449 32.4816Z" fill="#101F18"/>
<path fill-rule="evenodd" clip-rule="evenodd" d="M174.765 37.8909C174.673 37.7374 174.56 37.5978 174.45 37.4563C174.461 37.4725 174.472 37.4885 174.483 37.5045C173.315 36.1496 171.564 34.934 169.995 34.2233C166.86 33.1014 170.591 39.4093 171.717 39.7948C173.396 41.1136 176.056 40.1166 174.765 37.8909Z" fill="white"/>
<path d="M190.167 44.2067L190.255 44.2595C191.07 44.7564 191.502 45.2883 191.514 45.9016C191.515 45.9726 191.501 46.0427 191.473 46.1069C191.017 47.1336 190.169 47.6685 188.358 48.1487L188.274 48.1709L187.645 48.3276L187.241 48.4287L187.12 48.4604C187.043 48.4811 186.972 48.5007 186.906 48.5198L186.81 48.5482L186.716 48.5771C186.692 48.585 186.666 48.5909 186.64 48.5948C185.138 48.8176 183.941 48.4969 183.222 47.68C182.589 46.9621 182.416 45.937 182.743 44.9594C183.071 43.98 183.842 43.2128 184.843 42.8899C185.605 42.644 186.908 42.8677 188.754 43.5612L188.893 43.6117C188.982 43.6447 189.073 43.6806 189.167 43.719C189.459 43.8386 189.733 43.9669 189.983 44.1031L190.076 44.1545L190.167 44.2067Z" fill="#101F18"/>
<path fill-rule="evenodd" clip-rule="evenodd" d="M189.182 45.1608C188.891 44.9627 187.264 44.3392 187.008 44.2545C183.839 43.2078 182.976 48.0166 186.614 47.4369C187.621 47.1056 189.147 46.9759 189.624 45.9089C189.621 45.5655 189.436 45.3335 189.182 45.1608Z" fill="white"/>
<path fill-rule="evenodd" clip-rule="evenodd" d="M174.83 29.285C172.446 27.8962 169.164 28.0611 164.803 29.7884C164.77 29.8011 164.736 29.8118 164.701 29.82C163.526 30.0987 162.416 31.3714 161.493 33.4998C159.664 37.7178 162.396 41.5352 165.564 43.701C168.877 45.9676 171.281 45.4325 176.402 44.0081C177.736 43.6369 179.672 43.6423 181.109 44.7698C182.368 45.7583 182.457 46.5566 182.592 47.7652C182.618 47.9934 182.646 48.2472 182.685 48.5336C182.954 50.4953 183.658 52.8899 185.491 53.1566C187.671 53.4747 191.617 50.5327 193.256 46.4005C193.459 45.8062 193.574 45.2015 193.6 44.6027L193.6 44.6021C193.6 44.5974 193.6 44.5924 193.601 44.5877C193.667 41.6848 192.316 38.918 190.239 37.7016L190.228 37.6955C188.635 36.7674 186.826 36.8155 184.975 37.8304C184.914 37.9002 184.838 37.9588 184.75 38.0018C183.047 38.8315 181.959 39.024 181.112 38.6452C180.112 38.1997 179.783 37.1082 179.403 35.8467C178.845 33.9943 178.08 31.4583 174.9 29.3263C174.877 29.3123 174.853 29.2985 174.83 29.285ZM165.553 45.4416C165.284 45.285 165.012 45.1124 164.735 44.923C160.048 41.7179 158.275 37.1019 160.108 32.8758C161.222 30.3063 162.618 28.794 164.257 28.3801C169.115 26.4657 172.851 26.3582 175.669 28.0655C175.679 28.0716 175.69 28.078 175.699 28.0846C179.359 30.5301 180.252 33.4952 180.843 35.4574C181.114 36.3546 181.346 37.1281 181.697 37.2865C181.932 37.3918 182.478 37.3847 183.743 36.8051C183.77 36.7828 183.798 36.7622 183.829 36.7434C186.256 35.2645 188.788 35.1473 190.961 36.413L190.975 36.4207C193.54 37.9231 195.155 41.1132 195.107 44.569C195.108 44.5933 195.108 44.6172 195.106 44.6417L195.102 44.7441C195.102 44.7563 195.101 44.769 195.1 44.7811C195.062 45.5024 194.92 46.2266 194.677 46.9345C194.673 46.945 194.67 46.9553 194.666 46.9653C193.073 50.9969 188.736 55.1331 185.315 54.6343C183.775 54.41 181.81 53.1965 181.195 48.6918C181.153 48.3918 181.124 48.1263 181.097 47.8873C180.97 46.7532 180.943 46.5172 180.197 45.931C178.932 44.9375 177.184 45.3535 176.847 45.4474C171.927 46.8155 169.036 47.4705 165.553 45.4416Z" fill="#101F18"/>
</svg>
