<svg width="211" height="151" viewBox="0 0 211 151" fill="none" xmlns="http://www.w3.org/2000/svg">
<path fill-rule="evenodd" clip-rule="evenodd" d="M89.3851 63.1112C87.1191 64.7537 87.4799 67.9857 88.1619 70.3339C89.1664 73.7915 91.1671 76.9923 93.4492 79.7513C97.498 84.6458 104.371 90.1417 110.707 85.8448C116.349 82.0179 119.908 74.296 121.136 67.7918C121.516 65.7817 122.022 62.7868 120.238 61.2756C117.601 59.0419 112.948 59.4482 109.765 59.7358C107.668 59.925 105.645 60.5678 103.573 60.2661C98.7586 59.5646 93.4006 60.2 89.3851 63.1112Z" fill="#3AB1C7"/>
<path fill-rule="evenodd" clip-rule="evenodd" d="M83.1119 34.6495C84.6828 34.4758 86.2814 34.4301 87.8629 34.4556L88.3311 34.4639C89.4148 34.4716 92.7887 34.3738 93.1162 35.5883C93.3428 36.4296 92.2097 36.1988 91.6465 36.2206C90.7957 36.2535 89.943 36.2606 89.0939 36.3222L88.7303 36.3522C87.812 36.4376 85.8068 36.356 85.1901 37.1747C84.5277 38.0542 85.7897 39.596 86.2491 40.3907L86.273 40.4326C88.0419 43.5936 89.144 46.9884 92.3127 49.0869C95.3071 51.0698 99.2234 51.929 102.675 52.8432L103.476 53.0563C104.624 53.3678 104.913 53.5399 105.361 54.8046L105.414 54.9555C105.872 56.298 106.041 55.3555 106.384 54.4644L106.399 54.4257C106.908 53.1273 107.891 53.7109 109.152 53.8019C111.069 53.9407 113.175 53.7067 115.079 53.3911L115.307 53.3529C118.928 52.7356 122.766 51.9013 125.635 49.4674C128.574 46.9746 130.428 43.3418 131.567 39.7214L131.328 39.6927C130.439 39.5905 129.435 39.5111 128.652 39.0997C127.447 38.4669 128.065 37.5025 129.171 37.1597C130.931 36.6143 133.163 36.8929 134.943 37.119C137.176 37.4027 139.419 37.5865 141.664 37.7388L142.277 37.7796C150.481 38.3179 158.311 39.2953 166.091 42.1035C173.427 44.7515 180.353 48.5298 186.607 53.1788C192.942 57.8882 198.188 63.5674 202.71 70.0149C205.111 73.4386 206.808 76.9503 208.289 80.8514C208.958 82.6136 209.425 84.3319 209.684 86.2016C209.941 88.0639 209.607 90.0718 210.019 91.9031L210.066 92.0987C210.605 94.1939 209.538 97.006 208.919 99.0014C208.126 101.557 206.871 103.966 205.314 106.14C199.588 114.133 189.495 118.161 179.972 119.173C177.278 119.459 174.576 119.509 171.868 119.527C170.867 119.534 169.844 119.643 168.847 119.514C167.868 119.387 167.427 118.915 166.638 118.477C165.734 117.974 164.404 117.912 163.402 117.705L162.195 117.459C161.256 117.267 160.321 117.068 159.395 116.813C158.345 116.524 157.305 116.249 156.245 116.012L155.79 115.913C154.788 115.7 153.67 115.253 152.635 115.522C154.926 119.117 157.521 122.762 160.562 125.77C163.254 128.435 166.546 130.634 168.945 133.584C169.54 134.314 170.385 136.201 171.468 136.262C172 136.292 172.286 135.636 172.848 135.806C173.458 135.991 173.458 136.943 173.315 137.405C172.367 140.49 166.678 141.182 164.051 141.011L163.973 141.005C161.886 140.851 159.703 140.792 157.651 140.379C155.782 140.003 154.034 139.077 152.115 138.942C148.378 138.679 145.112 141.835 142.471 144.134L141.895 144.631C139.264 146.893 135.921 149.694 132.351 149.841C128.097 150.017 123.861 147.994 119.938 146.624C116.171 145.308 112.279 144.237 108.429 143.15L107.072 142.765C103.017 141.609 98.8795 140.249 94.6314 141.179C91.1622 141.938 87.4054 144.048 85.1299 146.801L85.0041 146.956C84.025 148.177 83.1781 149.616 81.5439 149.986C80.0462 150.326 78.6213 149.84 77.577 148.76C75.3178 146.424 74.1835 143.151 72.9791 140.175L72.7656 139.653C71.1522 135.759 70.1873 131.797 69.4385 127.657C69.0236 125.363 68.6188 123.066 68.2806 120.759C68.1272 119.711 67.9867 118.661 67.8672 117.609C67.7991 117.007 67.9183 115.901 67.6383 115.327C67.0321 114.087 64.9004 115.744 63.9381 116.195L63.2008 116.526C61.5721 117.254 59.9534 117.958 58.251 118.521C56.3693 119.143 54.5054 119.901 52.5803 120.369C51.8878 120.537 51.1103 120.657 50.4691 120.991C49.9351 121.269 49.745 121.921 49.308 122.148C48.6922 122.468 48.0617 121.866 47.4052 121.812C46.5379 121.742 45.5772 122.022 44.733 122.197C42.7971 122.6 40.9137 123.135 38.9287 123.253C34.8691 123.495 30.8248 122.515 26.9975 121.243L26.7811 121.171C19.4041 118.694 11.794 115.627 8.2874 108.162C1.53979 93.7972 5.01717 75.0756 15.9931 63.8254C27.4276 52.1051 42.6023 43.9697 58.2704 39.5547C66.3462 37.2789 74.7665 35.5724 83.1119 34.6495ZM86.1803 82.1818C81.9505 83.51 77.7679 85.0669 73.976 87.3922C70.8313 89.3207 67.7341 91.3886 64.666 93.4601L62.0734 95.2124C59.1442 97.1879 55.9728 99.2622 52.6869 100.518C51.5473 100.954 49.7052 101.292 49.0454 102.45C48.4544 103.486 48.7861 105.096 48.8005 106.228C48.8333 108.823 48.5501 111.451 48.4236 114.053L48.4019 114.541C48.3744 115.215 48.072 116.996 48.6669 117.502C49.2183 117.972 50.8241 117.341 51.3815 117.185L51.9933 117.013C58.5201 115.169 65.0653 113.029 70.7332 109.213C74.004 107.011 76.8299 104.219 79.78 101.622C81.3846 100.209 83.1751 98.9457 84.6625 97.4079C85.2039 96.8478 85.6471 96.2288 86.2674 95.7518C86.8587 95.2965 87.5595 95.0627 88.0528 94.4696C88.4748 93.9625 88.9894 93.5042 89.1941 92.8546C87.9451 92.8546 84.3167 95.0285 83.6894 93.1656C83.0429 91.2458 86.5964 89.1723 87.6447 88.018C86.4252 88.2017 85.224 88.4841 84.0582 88.8864C83.3524 89.1299 82.2016 89.8829 81.4232 89.8594C79.8175 89.8111 80.4138 87.9273 80.9954 87.0947C81.6526 86.154 82.5545 85.3749 83.4555 84.6447L84.1272 84.1045C84.358 83.9187 86.3762 82.5935 86.1803 82.1818ZM128.398 80.6417L128.095 80.3631C126.811 79.1894 125.072 77.8276 123.232 78.2546C123.98 80.0984 125.48 81.7062 126.895 83.0903L127.016 83.2084C127.606 83.783 129.5 85.0878 129.1 86.1265C128.45 87.8133 125.657 86.0437 124.842 85.5558C123.009 84.4573 121.047 83.6681 118.94 83.2597C120.167 84.7197 121.488 86.1109 123.031 87.2385L123.543 87.6048C124.392 88.2246 125.401 89.1048 124.349 89.9539C122.099 91.7694 118.09 88.174 115.92 87.6021C115.648 88.8472 116.314 89.4975 117.183 90.3303C118.149 91.2555 119.332 91.1286 120.198 92.2223C121.926 94.4045 123.732 96.4535 125.739 98.3992C130.047 102.574 134.869 105.262 140.343 107.611C146.076 110.072 152.26 111.644 158.338 113.015L158.854 113.132C160.124 113.432 166.894 115.194 166.93 114.586L167.004 113.314C167.254 108.918 167.387 104.395 165.669 100.251C164.985 98.5996 164.194 98.0449 162.435 97.9683L162.343 97.9648C159.997 97.8862 157.743 97.6727 155.432 97.2092C150.721 96.2645 145.984 94.9178 141.564 93.0148C139.63 92.182 137.745 91.1751 136.134 89.8076L135.915 89.6198C135.148 88.9538 134.375 88.1922 133.876 87.3165C133.39 86.464 133.255 85.5304 132.632 84.74C131.474 83.2688 129.803 81.9236 128.398 80.6417ZM66.4931 62.3353C65.8728 61.6254 64.0609 62.4531 63.3551 62.7187L63.3164 62.7331C59.7647 64.0386 55.971 65.0949 52.6119 66.8344C48.1965 69.1211 43.9821 71.8298 40.0774 74.9022C36.1684 77.9775 32.5615 81.3738 29.3494 85.1729L29.1839 85.3692C26.5834 88.4622 23.6464 92.3855 24.1222 96.647C24.5321 100.32 28.1095 101.659 31.3422 102.066C33.6147 102.352 35.6721 102.003 37.8812 101.522L38.7672 101.329C40.9339 100.859 43.0839 100.408 45.1862 99.669C47.8531 98.7308 50.3154 97.3888 52.8444 96.1472C55.1471 95.0167 57.5608 94.1347 59.8402 92.953L59.9862 92.8783C61.2888 92.2196 63.5353 91.2597 64.0405 89.8364C64.3134 89.0675 63.9036 88.0645 63.8578 87.277C63.7805 85.95 63.8992 84.5669 63.9811 83.2331L63.998 82.9481C64.2881 77.85 64.9183 72.7751 65.4421 67.6987L65.5153 66.9668C65.6049 66.099 65.7205 65.2661 66.0759 64.4376L66.1112 64.3591C66.3707 63.8048 66.9801 62.8929 66.4931 62.3353ZM114.931 101.435C115.836 101.154 114.728 97.64 113.815 98.1165C112.857 98.6159 113.933 101.745 114.931 101.435ZM99.2164 97.8046L99.2483 97.6933C99.6266 96.4017 98.2397 97.0814 97.811 97.6203C97.0601 98.5647 97.1365 100.26 97.9108 101.179C98.73 100.247 98.8927 98.9588 99.2164 97.8046ZM149.46 66.3167L149.08 66.2059C147.942 65.88 147.223 65.7715 146.641 67.0703C146.113 68.2486 146.002 69.6338 145.812 70.9034L145.788 71.0615C145.467 73.1123 145.219 75.1737 144.889 77.2227L144.809 77.7041C144.152 81.6426 143.142 86.3853 144.656 90.1978C145.243 91.6756 147.271 91.9335 148.673 92.3981L148.747 92.4232C150.873 93.1508 153.058 93.7566 155.258 94.214C159.338 95.0621 163.508 95.3754 167.67 95.4099C174.6 95.467 182.404 94.547 186.994 88.7244C188.44 86.8901 186.67 84.6897 185.485 83.2803C183.95 81.4559 182.303 79.9022 180.391 78.4707C176.618 75.646 172.514 73.6409 168.284 71.6095C164.006 69.5549 159.899 68.1054 155.191 67.3866C153.262 67.0921 151.336 66.8645 149.46 66.3167ZM112.331 61.7207C109.793 61.681 107.227 63.3082 105.639 65.1852L105.478 65.3791C104.659 66.3536 104.321 66.4805 103.483 65.4088L103.337 65.2246C102.63 64.3346 101.833 63.4611 100.747 63.0509C98.6882 62.2737 95.8913 62.7897 93.9672 63.7193C91.8486 64.7433 90.6819 66.9637 90.3378 69.2203C89.5261 74.5446 94.8456 80.3434 99.1937 82.7099C100.451 83.3939 101.855 83.7038 103.076 84.4682L103.318 84.6183C104.253 85.1916 105.07 85.5682 106.134 84.9047C107.216 84.23 108.335 83.3398 109.304 82.5055C110.406 81.5572 111.776 80.9385 112.83 79.9523L113.135 79.6651C115.055 77.8433 116.76 75.9584 117.935 73.5463C118.346 72.7012 118.666 71.9382 118.766 71.0141L118.768 70.9738C118.779 70.6744 118.721 69.2883 118.722 69.2878C120.051 68.215 118.9 65.8064 118.106 64.3878L117.951 64.1145C117.756 63.7756 117.419 63.1074 117.081 62.8936C116.947 62.8088 116.631 62.9976 116.438 62.9069C116.281 62.8329 116.194 62.6147 116.038 62.5426C114.884 62.011 113.612 61.741 112.331 61.7207ZM80.9455 78.4392C81.8948 76.8584 78.8511 76.887 78.7104 78.2587C78.5463 79.8607 80.43 79.2977 80.9455 78.4392ZM131.202 76.9824L131.191 77.0486C131.112 77.5545 131.047 79.0435 131.815 78.221C132.404 77.5896 131.196 77.0124 131.202 76.9824ZM79.5749 66.8365C79.0063 66.4233 78.0509 66.5971 77.413 66.6845C76.3398 66.8324 76.1858 68.1516 77.0961 68.629C77.6304 68.9094 78.8963 68.8249 79.4371 68.5159C80.122 68.1252 80.3164 67.3754 79.5749 66.8365ZM23.6403 47.021C23.1791 48.5106 20.8446 49.4985 19.6805 50.4039C15.6085 53.5718 11.6294 56.8701 7.94811 60.4855C6.11087 62.2899 4.70306 64.4579 3.12445 66.4774L2.87575 66.794C2.4631 67.3317 1.77681 68.3642 1.02077 68.262C0.150833 68.1449 -0.0250432 66.6465 0.00269562 65.9922C0.097716 63.7609 2.13564 61.6059 3.58898 60.0694C5.2238 58.3417 6.97164 56.658 8.75667 55.0848C10.722 53.353 12.8546 51.8643 15.028 50.4068C17.1621 48.9758 19.2083 47.3224 21.4277 46.0261L21.5009 45.9846C22.5518 45.4059 24.1962 45.2255 23.6403 47.021ZM136.191 67.3486C136.205 66.0817 133.687 65.5737 133.664 67.0532C133.646 68.2553 136.177 68.5439 136.191 67.3486ZM137.702 56.6502C137.822 54.7431 133.421 56.2653 133.17 57.3596C132.639 59.6861 137.642 57.6064 137.702 56.6502ZM80.2462 54.2555C78.41 54.2386 80.8257 56.3031 81.4166 56.5629L81.4344 56.5704C82.1128 56.8434 83.0529 56.9091 82.8242 55.9169C82.5784 54.8512 81.0748 54.5765 80.2462 54.2555ZM165.98 32.8751C167.679 32.9287 169.338 33.4862 170.941 34.0037C174.467 35.1424 177.825 36.722 181.137 38.3728C186.942 41.2666 192.529 44.7679 197.651 48.7489C198.645 49.5214 199.662 50.1579 200.734 50.7896L201.122 51.0157C201.854 51.4369 202.808 51.9568 203.077 52.7911C203.806 55.049 200.126 52.7828 199.604 52.4586L197.767 51.3209C187.237 44.8105 176.673 38.5576 164.763 34.8153C164.107 34.6089 163.903 34.0233 164.247 33.4427C164.62 32.8135 165.348 32.8553 165.98 32.8751ZM23.1444 37.6005C23.068 38.2678 22.3322 38.4347 21.8088 38.6457L21.7619 38.665C19.8023 39.4881 17.7938 40.1901 15.8396 41.0268C12.2125 42.5797 8.88161 44.8334 5.09575 46.012C4.23059 46.2818 4.10294 45.4086 4.33456 44.8145C4.59253 44.1513 5.36736 43.6857 5.92774 43.3021C7.54432 42.1947 9.37772 41.3985 11.1729 40.6293C12.9527 39.8661 14.7852 39.2888 16.61 38.649C18.306 38.0543 20.2744 36.9474 22.0956 36.8657L22.3684 36.8527C22.8569 36.8346 23.2258 36.8851 23.1444 37.6005ZM98.8068 27.7219L98.9495 27.3941C99.3177 26.5323 100.758 22.6987 101.842 22.9155C102.88 23.1229 100.265 29.9339 100.002 30.6868L99.9947 30.7077C98.4479 35.2451 97.7194 40.0235 97.7194 44.8175C96.6451 43.8503 95.9933 43.6114 95.8898 42.0331C95.7601 40.0554 96.0686 38.0739 96.435 36.1361L96.4775 35.9128C97.0112 33.124 97.6874 30.3343 98.8068 27.7219ZM120.755 0.00207469C123.111 0.0354108 125.327 0.694682 127.523 1.47542L129.048 2.02206C130.753 2.63679 132.469 3.31685 133.83 4.53165C136.812 7.19491 137.589 11.6046 138.077 15.3774C138.685 20.0853 136.66 24.0351 134.955 28.2944C133.36 32.2779 130.433 35.5049 126.954 37.9639C125.193 39.2091 123.252 39.9771 121.22 40.6428L121.01 40.7113C118.869 41.4037 116.796 42.3311 114.505 42.3276C111.027 42.3226 106.574 40.6705 105.093 37.2437C104.427 35.7043 105.058 35.4111 106.371 36.218L106.425 36.2514C108.383 37.4816 110.271 38.8092 112.559 39.355C116.997 40.4138 122.312 38.7735 126.204 36.6094C130.094 34.4458 132.705 31.1958 134.451 27.1488C136.212 23.0661 136.896 19.0431 136.217 14.6416C135.641 10.9116 134.496 7.50453 131.135 5.47971C123.879 1.10923 114.103 1.46136 107.65 7.14119C106.912 7.79005 106.182 8.42437 105.431 9.04806L104.823 9.54843C104.284 9.99559 103.723 10.5327 103.8 11.2779L103.806 11.3232C103.931 12.0864 105.327 14.6592 103.567 13.8473C102.111 13.1752 101.319 11.8614 99.5545 11.6988C97.6765 11.5255 95.4363 12.9683 94.8745 14.7841C94.3386 16.5167 95.2941 18.8872 96.7908 19.881C97.6309 20.4387 98.5472 20.413 99.495 20.3848L99.7902 20.3766C100.312 20.3642 101.767 20.1945 102.112 20.7467C102.724 21.7234 100.566 22.75 99.8698 22.9661C98.1752 23.4918 96.1724 22.8731 95.1983 21.3604C94.2079 19.8226 93.5302 18.0427 93.3937 16.2107C93.2633 14.4553 93.6617 12.6782 94.6972 11.2369C95.7987 9.70409 98.044 7.98565 100.057 8.51812C100.93 8.74924 101.632 9.65184 102.49 9.82333C103.031 9.93136 102.803 10.0087 103.251 9.60757C103.536 9.35314 103.805 8.88354 104.068 8.58188L105.04 7.45656C106.235 6.07548 107.468 4.69907 108.921 3.60838C112.236 1.11927 116.642 -0.0563676 120.755 0.00207469ZM112.913 35.3827C113.335 35.9251 114.326 36.347 114.283 37.147C114.213 38.4676 112.413 38.2226 111.812 37.5337C111.129 36.7494 111.201 35.2958 111.588 34.3881C111.98 33.4689 112.7 35.1086 112.913 35.3827ZM124.376 28.1354C125.347 29.6487 124.164 31.2822 123.396 32.6216C122.662 33.9022 121.98 35.3499 121.125 36.5538C119.707 38.5527 116.62 36.3903 116.529 34.3359C116.46 32.8064 117.512 33.4121 118.228 33.9868L118.386 34.1149C119.056 34.6522 119.407 34.7608 120.144 34.1301C121.696 32.8003 122.393 30.5767 123.466 28.8931C123.679 28.5593 124.064 28.3585 124.376 28.1354ZM127.144 28.622C127.395 29.3538 126.869 31.293 128.33 31.0991C129.137 30.9921 129.309 29.8342 129.733 29.3288C131.16 27.63 130.722 30.8431 130.349 31.6473C129.528 33.4197 127.228 34.6409 126.088 32.3924C125.678 31.5848 125.665 30.5728 125.859 29.6946L125.881 29.6011C125.998 29.1114 126.682 27.2705 127.144 28.622ZM170.007 25.6494C171.156 25.7355 172.267 26.2779 173.356 26.6051C176.572 27.5708 179.562 28.6237 182.565 30.0925L182.946 30.2816C183.501 30.5659 185.344 31.6006 184.043 32.0686C183.106 32.4057 180.917 30.9594 180.112 30.6124C176.576 29.0876 172.776 28.198 169.073 27.1568C167.34 26.6694 168.978 25.5723 170.007 25.6494ZM114.122 25.156C113.993 26.0099 113.19 27.7111 114.17 28.3219C114.92 28.7899 116.155 27.966 116.901 27.4231L117.272 27.1488C117.994 26.6014 119.453 25.3067 119.512 27.053C119.544 27.975 118.621 29.0812 117.962 29.6123L117.871 29.6844C116.434 30.7869 113.616 31.7157 112.602 29.629C112.038 28.4676 112.347 26.8142 112.72 25.6438L112.74 25.5837C113.08 24.6301 114.428 23.1365 114.122 25.156ZM132.305 20.1974L132.814 20.7873C133.446 21.5321 134.379 22.7587 133.74 23.5783C132.89 24.6686 131.517 22.7099 130.95 22.1149L130.927 22.0912C130.43 21.5828 129.384 20.1349 129.83 19.367C130.471 18.2634 131.671 19.4771 132.305 20.1974ZM123.563 17.622C125.413 18.8274 123.023 19.6987 121.943 19.8218L121.686 19.8472C120.435 19.9643 118.907 20.0077 117.791 19.4117C116.114 18.5155 116.673 17.1618 118.299 16.8377C119.966 16.5057 122.113 16.6769 123.563 17.622ZM99.2658 13.7459L99.5628 13.8048C100.859 14.0689 102.243 14.4684 102.678 15.8598C103.154 17.3849 102.488 17.9065 101.126 17.5889L100.74 17.4957C99.4616 17.1931 97.7654 16.8248 97.0898 15.6576C96.2124 14.1418 97.9913 13.4982 99.2658 13.7459Z" fill="#101F18"/>
</svg>
