<svg width="236" height="336" viewBox="0 0 236 336" fill="none" xmlns="http://www.w3.org/2000/svg">
<path fill-rule="evenodd" clip-rule="evenodd" d="M126.461 167.25L126.532 167.259C127.567 167.459 129.282 170.413 129.984 171.252C132.247 173.96 134.512 176.667 136.776 179.375C137.682 180.458 138.988 181.596 139.634 182.85C140.13 183.815 140.301 185.146 140.597 186.18C144.279 199.025 147.879 211.953 150.561 225.049C151.138 227.868 151.685 230.706 152.006 233.567C152.165 234.982 152.581 237.06 151.964 238.427C151.268 239.967 149.029 240.607 147.575 241.085C144.746 242.014 141.783 242.567 138.852 243.064C131.79 244.261 124.639 244.956 117.502 245.518C115.321 245.69 113.077 245.687 110.91 245.979C109.875 246.119 110.185 245.842 109.859 246.535C109.405 247.5 109.706 249.513 109.652 250.565C109.525 253.039 109.399 255.513 109.271 257.987L108.233 278.233C107.882 285.075 107.531 291.916 107.179 298.758C107.047 301.351 106.914 303.943 106.781 306.536C106.71 307.921 106.921 309.711 106.549 311.052C106.267 312.067 106.73 311.768 105.484 311.828C102.597 311.967 99.6066 311.618 96.7191 311.515C93.4443 311.398 90.1691 311.281 86.8935 311.164C85.9582 311.131 84.913 311.396 84.536 310.726C84.0771 309.911 84.4265 307.67 84.3942 306.76C84.3033 304.224 84.2124 301.687 84.1215 299.151C83.8721 292.189 83.6226 285.226 83.3731 278.264C83.0328 268.768 82.692 259.273 82.3516 249.777C78.7098 250.509 75.0675 251.24 71.4252 251.971C66.0437 253.052 60.6617 254.134 55.2797 255.214C52.8115 255.71 49.88 256.842 47.3312 256.476C44.7996 256.114 43.7532 255.035 43.611 252.636C43.4585 250.065 43.5179 247.474 43.5524 244.9C43.6093 240.691 43.7303 236.483 43.8897 232.276C51.0804 231.63 58.2714 230.983 65.4621 230.337C69.2909 229.992 73.1201 229.648 76.9485 229.304C77.8175 229.226 79.9597 229.393 80.3474 228.739C80.9506 227.723 80.2793 224.381 80.2612 223.232L80.0898 212.364L79.4612 172.379C81.1828 172.435 82.9044 172.486 84.626 172.535C92.1161 172.746 99.6432 173.051 107.135 172.821C110.893 172.706 114.453 171.695 118 170.501C119.886 169.866 121.753 169.175 123.605 168.448C124.188 168.22 125.903 167.138 126.532 167.259L126.461 167.25ZM116.377 204.458L112.551 223.138L125.645 222.272L116.377 204.458Z" fill="#EADCB9"/>
<path fill-rule="evenodd" clip-rule="evenodd" d="M168.34 2.74093C170.377 1.41135 170.681 2.51646 172.295 3.66705L172.386 3.73101C174.154 4.95538 175.564 6.18792 176.967 7.8293C178.748 4.73269 183.167 6.18964 185.915 6.80397C189.494 7.60406 192.856 8.96283 196.498 9.42051L196.974 9.47498C198.893 9.67188 200.617 10.2406 202.463 10.7376C204.753 11.3528 207.107 11.6911 209.392 12.3257C213.313 13.4146 216.541 15.6712 219.413 18.5155C225.181 24.2293 227.682 31.5807 228.413 39.5159C228.818 43.8993 229.144 48.4352 228.863 52.8353C228.817 53.567 227.919 56.9766 228.438 57.4275C228.874 57.8063 230.689 57.7096 231.271 57.7792C232.387 57.9121 233.504 58.0389 234.61 58.2414C236.696 58.6235 235.896 61.1514 234.694 61.9067C233.84 62.4437 233.022 62.4703 232.572 63.4896C232.174 64.3924 232.172 65.6095 231.86 66.5652C230.312 71.3191 228.354 75.8864 225.893 80.2323L224.825 82.1238C222.951 85.4327 221.029 88.7158 218.602 91.6618C215.79 95.0761 212.467 98.119 209.211 101.105C202.912 106.879 195.193 110.86 187.586 114.498C179.815 118.213 171.774 120.157 163.415 121.829L162.273 122.055C157.458 123.002 152.593 124.152 147.735 124.834C143.271 125.461 138.699 124.909 134.207 124.899C134.461 129.001 134.967 132.62 136.513 136.463L137.109 137.934C139.905 144.802 142.967 151.73 146.753 158.092C148.642 161.266 151.108 164.014 153.148 167.084L153.525 167.664C154.833 169.716 157.406 172.358 157.206 174.972C157.003 177.615 152.727 179.606 150.557 180.847L150.341 180.973C148.778 181.895 147.08 182.631 145.385 183.278C144.599 183.578 142.661 183.745 142.123 184.402C141.14 185.602 144.241 190.407 144.88 191.929L144.91 192.001C146.303 195.539 147.777 198.839 148.686 202.566C149.677 206.628 150.254 210.775 151.171 214.851L151.357 215.663C152.147 219.048 153.085 222.458 153.196 225.942L153.205 226.36C153.25 230.021 154.603 234.421 153.566 238.001C152.681 241.061 149.175 242.433 146.475 243.428L146.331 243.481C139.742 245.906 131.987 246.359 125.019 246.974C122.09 247.233 119.271 247.609 116.309 248.038C115.21 248.197 112.854 248.084 112.142 248.99C111.331 250.023 111.55 252.235 111.511 253.455C111.396 257.048 110.908 260.551 110.87 264.122C110.829 267.972 110.583 271.88 110.339 275.726C110.074 279.891 109.729 284.051 109.576 288.222C109.436 292.033 109.536 295.848 109.173 299.643L109.099 300.354C108.648 304.377 108.942 308.447 108.07 312.428C107.859 313.391 107.36 314.353 107.87 315.028C108.37 315.688 109.824 316.163 110.541 316.583C112.195 317.551 113.851 318.517 115.567 319.37C118.679 320.916 122.22 321.647 125.151 323.541L125.359 323.673C127.694 325.131 131.723 326.939 131.292 330.265C131.116 331.622 129.943 332.035 128.892 332.677L128.559 332.885C128.031 333.22 127.636 333.496 127.303 334.072C127.034 334.535 127.302 335.009 126.774 335.388C125.789 336.096 122.871 335.707 121.686 335.789C119.764 335.921 117.992 335.948 116.083 335.667C108.283 334.522 100.06 334.115 92.4499 332.036C90.367 331.467 88.3238 330.767 86.2508 330.167L85.918 330.073C84.3221 329.632 82.909 329.354 81.8145 327.966C79.6476 325.219 80.8323 320.7 81.5065 317.543C81.8421 315.97 82.9453 313.902 82.5408 312.278C82.1884 310.864 81.3191 310.005 81.1718 308.451C80.7819 304.335 81.1713 300.111 80.9899 295.973C80.6414 288.028 80.9176 279.55 79.3719 271.733L79.2749 271.233C78.9478 269.501 78.7624 267.973 79.0673 266.205L79.1143 265.951C79.4559 264.216 79.2672 262.534 79.0247 260.809C78.7645 258.959 79.002 257.071 78.9101 255.197L78.8664 254.512C78.7712 252.819 78.9343 251.396 76.9439 251.816C68.9976 253.488 61.1308 255.511 53.2185 257.388C52.58 257.539 51.9541 258.037 51.3975 258.156C50.7686 258.29 50.5153 258.016 49.8307 257.97C49.3276 257.936 48.3536 258.056 47.8913 258.253C47.056 258.608 47.2395 258.892 46.7691 259.505C44.8577 261.994 42.9475 259.19 41.846 257.565C41.8349 262.149 42.631 266.743 43.1236 271.3L43.1888 271.921C43.3266 273.279 44.3101 276.366 43.3327 277.46C42.3457 278.565 38.8654 278.147 37.4488 278.126L37.3554 278.125C35.3432 278.122 32.5077 278.664 30.6639 277.769C29.2358 277.076 28.4811 275.379 27.7819 274.048C25.7229 270.13 24.8532 265.766 23.8079 261.494L23.4618 260.091C22.5459 256.351 21.7351 252.646 21.5473 248.785L21.4541 246.45C21.3639 243.975 21.3679 241.169 22.413 239.098C23.1488 237.64 24.2399 237.043 25.7288 236.558C27.4274 236.004 28.9963 235.215 30.6872 234.627C33.8663 233.521 36.9592 232.758 40.1918 232.09L40.7996 231.965C41.684 231.787 41.3842 231.996 41.9231 231.201C42.2109 230.776 42.3018 230.322 42.7076 229.941C43.8776 228.842 45.7921 228.95 47.2813 228.876L48.1233 228.833C49.6494 228.752 51.091 228.644 52.6322 228.351C54.0844 228.076 55.5887 228.147 56.9655 227.979C60.2434 227.576 63.8117 227.644 67.2309 227.494C68.9791 227.418 70.7272 227.341 72.4748 227.253L74.4246 227.151C75.8508 227.091 76.7488 227.22 76.9427 225.627C77.18 223.681 76.7971 221.492 76.7247 219.527L76.6066 216.182L76.3428 208.518C76.3188 207.798 76.2956 207.078 76.2741 206.358C76.2353 205.047 76.7359 202.888 76.2387 201.702C75.3285 199.528 69.1953 200.545 67.1568 200.017L66.7924 199.922C65.5653 199.596 64.2469 199.164 63.7996 198.011C63.1663 196.379 63.4613 194.491 63.5194 192.783L63.5252 192.579C63.6114 188.656 63.7673 184.752 63.7764 180.825C63.785 176.799 64.8529 172.958 64.6896 168.924C64.5264 164.887 64.5302 160.852 64.6987 156.813C64.8826 152.408 65.5387 148.037 65.5495 143.625C62.6946 147.032 60.2994 150.755 57.3507 154.115C54.3782 157.502 51.2687 160.6 47.8314 163.517C44.3515 166.47 41.1197 169.709 37.6208 172.63C34.1236 175.55 30.5308 178.336 27.0702 181.305L25.742 182.447C23.4642 184.397 21.2656 186.165 18.4018 187.325L16.5043 188.106C13.8281 189.198 11.1127 190.147 8.15287 189.575C0.183644 188.033 -0.527606 179.27 0.235758 172.682C1.16541 164.658 3.19573 157.213 5.93773 149.635C6.51154 148.049 7.48213 146.917 8.28943 145.484C9.18376 143.897 9.82004 142.113 10.5981 140.463C12.2902 136.876 14.4239 133.459 16.4969 130.081C18.432 126.927 20.5817 124.131 23.1707 121.514C24.3145 120.358 24.9576 118.56 25.5776 117.056C26.1355 115.703 26.0344 114.532 25.8262 113.219L25.6512 112.158C24.361 104.151 22.2393 96.4278 20.4877 88.5218C19.6514 84.7449 18.5055 81.1331 17.4181 77.4432L17.1861 76.6512C16.6291 74.7373 15.4794 68.0432 19.1355 68.3231C20.5157 68.4292 22.2458 70.3357 23.2606 71.2895L23.3482 71.3711C24.657 72.5761 25.864 73.8899 26.9436 75.3035C28.1791 76.9208 29.2634 78.6675 30.1323 80.5079C30.825 81.9756 31.3174 83.5675 32.316 84.871C31.5229 81.47 30.4128 78.1279 29.9307 74.6603L29.874 74.2395C29.5829 71.9999 29.3138 68.4683 30.8655 66.747C32.9626 64.4208 36.5404 68.4804 37.6828 70.1334C39.2298 72.3711 39.9832 75.6719 42.0205 77.5046C41.3713 73.2567 39.6778 68.0484 40.9685 63.7807C42.4991 58.7207 46.1203 65.6654 47.0026 67.3652C50.9249 74.9231 52.5808 83.5125 55.4955 91.491L55.7111 92.0737C56.3163 93.6892 56.7893 94.7503 58.6913 94.9252C60.2021 95.0647 61.8137 94.6476 63.3425 94.5421L63.8868 94.5132C66.2221 94.3646 65.4878 93.4836 64.7086 91.722C64.4368 91.1077 64.4083 90.4942 63.931 89.9908C63.492 89.5282 62.8601 89.4732 62.468 88.9027C61.9451 88.1404 62.1841 87.346 61.3988 86.8241C60.9874 86.5507 60.1663 86.7016 59.683 86.426C58.5023 85.7521 58.4396 84.1451 58.1078 82.9161L58.0748 82.7984C57.5123 80.8688 57.8236 79.0652 57.9817 77.1025L57.9999 76.8662C58.1412 74.9406 58.1941 73.0129 59.0777 71.2632L59.1858 71.0488C59.5498 70.3221 59.5616 70.2084 59.3399 69.4474L59.1535 68.8188C58.9841 68.2401 58.906 67.8538 59.0394 67.1004L59.1411 66.5351C59.3806 65.2599 59.7266 64.0591 61.1102 63.6105C62.8773 63.0372 63.1481 63.7619 63.6731 62.1944L63.7402 61.9863C64.3248 60.108 65.5426 60.2378 67.2886 60.4923L67.2832 59.6402C67.2872 58.4705 67.4138 57.141 68.5909 56.7388C69.3245 56.4882 70.0806 57.3102 70.6479 57.1206C71.0559 56.9841 71.0201 56.7708 71.2988 56.4853L71.3691 56.4181C72.3939 55.499 72.6434 52.923 74.0456 52.3693C75.3815 51.8422 76.1935 53.3138 76.9358 54.1775L77.313 53.6378C78.2203 52.3596 79.8931 50.1917 81.1498 50.3367C82.7678 50.5228 82.0704 52.567 83.8857 52.0404C85.2656 51.6401 86.5743 49.8431 88.1282 50.8199C89.2314 51.5133 89.2155 53.5636 90.5807 54.0158C92.1772 54.5442 92.4986 52.8693 94.0055 54.527C95.076 55.7049 95.5016 57.7495 96.7117 58.7198C97.4764 59.3333 98.5021 59.0865 99.2542 59.6919C99.6833 60.0371 100.14 60.9597 100.451 61.4205L100.632 61.6901C101.037 62.3048 101.32 62.8361 101.423 63.6238C101.474 64.0163 101.323 64.3619 101.42 64.7647C101.482 65.0175 101.771 65.1482 101.839 65.3782C102.1 66.2625 101.664 66.6241 101.707 67.3515C101.744 67.9774 102.698 68.5716 103.289 69.1923C104.398 70.3544 105.328 71.6712 106.337 72.9158C108.425 75.4862 111.206 77.6318 112.428 80.7972C113.651 83.9639 113.363 86.8525 111.354 89.557C109.344 92.2637 106.801 94.9411 103.637 96.2713C102.698 96.6663 100.162 96.9346 101.154 98.3211C101.934 99.4109 101.944 98.4302 102.503 97.8464C103.622 96.6788 104.428 97.9354 105.836 97.855C106.492 97.8176 107.006 97.527 107.701 97.5885C108.567 97.665 109.468 98.067 110.32 98.2523C118.1 99.9474 126.456 99.4745 134.331 98.8438C138.18 98.5351 141.944 97.4612 145.71 96.6436C149.619 95.7949 153.551 95.1793 157.34 93.8543L160.271 92.8287C166.7 90.5707 172.978 88.2463 178.888 84.7339L180.104 84.0074C186.041 80.441 191.83 76.6339 196.466 71.4433C197.645 70.1247 198.721 68.7474 199.522 67.171L199.787 66.633C200.24 65.7265 201.227 63.8274 200.955 63.0653C200.621 62.1268 198.716 61.9119 199.493 60.2748C200.036 59.1287 201.479 59.3668 202.547 59.2869L201.486 56.2844C196.623 59.0289 191.694 61.982 187.087 65.1349C185.318 66.3459 183.574 67.5956 181.817 68.8243L180.495 69.7409C178.715 70.9631 176.36 73.6083 174.388 71.5856C171.259 68.3768 168.944 64.2433 166.267 60.6716C163.466 56.9349 160.645 53.2007 157.833 49.4713C153.345 43.5179 148.216 37.5805 144.892 30.6354L144.766 30.3673C143.093 26.7321 142.502 22.4315 146.17 19.8718C149.609 17.472 152.801 14.7613 156.07 12.1372L156.771 11.5764C160.536 8.58249 164.31 5.37239 168.34 2.74093ZM86.2159 312.542C86.2081 315.987 85.2302 319.473 85.3435 322.876C85.3936 324.388 86.0147 324.372 87.3947 324.67L87.4997 324.693C89.0298 325.031 90.5557 325.382 92.0781 325.756C98.4767 327.329 105.042 327.837 111.375 329.641C114.547 330.544 117.791 330.547 121.042 330.941C121.936 331.049 123.382 331.621 124.26 331.491C124.951 331.389 126.008 330.42 125.899 329.555C125.696 327.935 119.322 326.419 117.712 325.699C114.85 324.419 112.023 322.945 109.47 321.121C107.657 319.825 105.936 318.19 104.924 316.178L104.659 315.64C103.937 314.156 103.779 313.796 101.777 313.609C96.5864 313.124 91.3923 313.132 86.2159 312.542ZM86.8759 294.092C86.3421 294.126 86.8922 305.125 86.9211 306.213L86.9318 306.506C86.9984 307.886 87.2879 308.046 88.848 307.911C90.6686 307.754 92.4555 307.944 94.2752 307.908C95.4728 307.883 96.5997 307.593 97.7922 307.809C98.4181 307.923 98.9923 308.194 99.6303 308.292L100.295 308.403C101.377 308.572 103.039 308.72 102.77 307.518C102.577 306.66 98.6503 306.464 97.9571 306.205C96.1125 305.516 94.4539 304.359 92.9789 303.075C90.0913 300.563 88.462 297.508 86.8759 294.092ZM90.4084 280.668C89.7109 280.497 87.1318 279.068 86.4942 279.53C85.8157 280.022 86.2301 281.657 86.2564 282.316C86.4007 285.922 85.873 289.501 87.3364 292.911L87.5036 293.296C90.2403 299.512 94.5735 305.492 101.94 306.206C104.341 306.439 103.99 288.314 104.112 286.072C104.183 284.776 104.835 282.497 104.438 281.26C103.945 279.724 103.075 280.409 101.523 280.777C97.939 281.627 93.9844 281.543 90.4084 280.668ZM104.397 275.935C103.641 275.613 101.531 276.3 100.746 276.357C96.9067 276.634 93.0177 276.862 89.1702 276.59L88.3972 276.531C87.0206 276.44 85.1963 276.582 86.9263 278.164C88.1615 279.293 90.5293 279.664 92.1902 279.921L92.3538 279.946C94.4362 280.269 96.5442 280.412 98.6418 280.223L99.035 280.184C100.414 280.031 103.027 280.159 104.228 279.408C105.069 278.882 105.365 276.346 104.397 275.935ZM103.243 263.881C99.8457 258.734 94.4669 254.802 88.0308 256.878C84.6517 257.968 85.6485 261.642 85.8127 264.539C85.9517 266.995 86.1504 269.436 86.1461 271.885L86.1369 272.785C86.1257 274.802 86.5058 275.168 88.7166 275.298C92.2461 275.507 95.7623 275.288 99.2917 275.124C100.519 275.067 103.096 275.439 104.23 274.937C105.342 274.445 105.165 273.638 105.264 272.456L105.274 272.344C105.612 268.868 105.179 266.816 103.243 263.881ZM41.5703 233.591C37.0737 236.197 32.3643 238.267 27.8211 240.755C25.7309 241.899 25.211 242.907 25.3148 245.218L25.3937 246.976C25.4873 249.028 25.5936 251.084 25.7869 253.126C26.2083 257.57 27.4268 261.837 28.7316 266.083L29.7533 269.391C30.2856 271.145 30.6704 272.525 32.6158 273.098C34.8977 273.77 37.3313 273.743 39.6856 273.749C38.9782 268.18 37.641 262.705 37.5488 257.069L37.5387 256.308C37.5184 254.086 37.6044 251.677 38.4931 249.65C38.9821 248.534 39.8312 247.606 40.2499 246.458C40.6656 245.32 40.5941 244.11 40.6609 242.917C40.8358 239.798 41.1106 236.682 41.5703 233.591ZM105.541 241.275C103.921 241.282 102.165 242.021 100.611 242.406C97.0384 243.292 93.4257 244.037 89.8055 244.706L88.7192 244.904C86.8797 245.236 86.0505 245.14 85.9307 247.084C85.8225 248.85 85.9073 250.659 85.9225 252.436L85.9247 253.027C85.9242 253.106 85.6503 256.241 85.8799 256.411C86.2193 256.662 88.8859 255.392 89.4184 255.285C91.173 254.932 92.9832 255.017 94.7042 255.504C97.8171 256.386 100.622 258.48 102.509 261.083C103.431 262.354 103.936 264.157 104.968 265.288L105.083 265.412C105.976 266.347 105.704 265.476 105.699 264.317C105.683 260.742 105.788 257.125 105.988 253.554C106.159 250.522 106.686 247.515 106.967 244.473L107.037 243.643C107.15 242.141 107.24 241.269 105.541 241.275ZM48.4845 234.678C48.0856 234.418 46.328 234.336 45.8855 234.533C44.4085 235.192 45.2945 237.701 45.3333 238.998L45.3346 239.078C45.338 241.429 45.5189 243.781 45.5116 246.143C45.5073 247.655 45.3402 249.166 45.6404 250.655L45.6908 250.88C45.9002 251.767 46.6668 254.626 47.4338 253.929C47.9813 253.432 46.6019 249.814 46.5283 249.102C46.3144 247.043 46.7288 245.119 47.1762 243.131L47.2374 242.86C47.716 240.734 48.1911 238.615 48.7408 236.507L48.789 236.332C49.0237 235.522 49.2595 235.183 48.4845 234.678ZM56.1143 235.336C56.3314 233.218 54.0792 234.222 52.6507 234.342L52.3052 234.373C50.5869 234.545 50.1822 234.863 49.6883 236.718L49.523 237.344C48.4076 241.495 46.7523 246.122 47.66 250.402L47.7761 250.943C48.1691 252.72 48.5952 253.857 50.6424 253.43C51.7973 253.189 52.9432 252.901 54.0908 252.629C54.3799 252.561 55.6525 252.447 55.8131 252.225C55.9687 252.011 55.6111 250.642 55.5814 250.344C55.0894 245.335 55.6034 240.319 56.1143 235.336ZM68.3651 231.61C66.2689 231.394 64.1619 232.028 62.1454 232.511C60.9172 232.805 58.6172 232.89 57.6712 233.778C56.5735 234.808 56.8677 237.277 56.7501 238.619L56.5725 240.6C56.4565 241.918 56.3557 243.236 56.3318 244.565C56.2987 246.413 56.1263 248.609 56.4727 250.439C56.8854 252.617 58.4324 251.337 59.9974 250.862C62.0997 250.223 64.2545 249.802 66.4214 249.452C67.6354 249.256 70.6091 249.449 71.5254 248.535C72.0915 247.97 68.7236 242.642 68.3496 241.699C67.0383 238.398 67.1421 234.923 68.3651 231.61ZM76.6252 234.627C75.2247 232.798 71.2265 229.745 69.1737 232.168C66.5731 235.237 68.9424 241.313 70.5277 244.238L71.0716 245.254C71.8577 246.697 72.7116 247.954 74.4878 248.038L75.2875 248.056C76.1815 248.068 77.4291 248.022 77.7866 247.476C78.699 246.081 77.6823 242.075 77.5876 240.476C77.4751 238.579 77.8344 236.208 76.6252 234.627ZM106.048 229.41C103.13 228.236 100.209 227.929 97.1434 228.489C94.1153 229.043 91.3367 230.064 88.6464 231.557C86.1142 232.962 85.9626 234.002 86.1332 236.718C86.2224 238.134 86.1422 239.553 86.0819 240.969C86.0518 241.677 85.6347 243.366 86.1948 243.894C86.785 244.451 88.543 243.78 89.2439 243.648C90.7134 243.371 92.1772 243.074 93.6406 242.764C96.9116 242.07 100.184 241.391 103.46 240.718C104.535 240.497 106.277 240.471 107.093 239.656C107.958 238.792 107.752 236.768 107.916 235.634C108.089 234.429 108.97 232.203 108.456 231.014C108.078 230.14 106.86 229.737 106.048 229.41ZM115.882 242.147C116.098 240.071 112.771 240.263 112.88 242.196C112.944 243.339 115.747 243.447 115.882 242.147ZM119.642 242.228C119.794 241.854 116.858 240.188 116.81 241.732C116.767 243.084 118.901 242.348 119.642 242.228ZM135.436 232.874C133.671 230.849 131.983 231.618 129.617 231.813L129.203 231.844C126.84 232.03 126.039 232.353 124.97 234.593L124.907 234.725C123.768 237.164 122.312 239.467 121.501 242.049C124.666 241.837 127.819 241.479 130.982 241.233C133.514 241.035 136.2 240.285 138.697 240.414C139.433 240.452 140.128 240.015 140.709 239.626L139.428 237.914C138.143 236.198 136.839 234.484 135.436 232.874ZM114.618 229.412C114.365 230.971 113.669 233.036 113.9 234.604C114.066 235.732 114.872 236.854 115.431 237.856L115.522 238.022C116.172 239.234 116.448 239.389 117.693 239.869C118.334 240.116 120.233 241.389 120.849 240.941C121.885 240.188 122.551 237.584 123.09 236.471L123.155 236.344C123.685 235.33 125.237 233.024 124.335 232.173C123.482 231.369 120.131 231.689 119 231.488L118.67 231.432C117.197 231.189 115.244 230.919 114.618 229.412ZM149.753 227.97L135.39 231.18C136.914 232.941 138.384 234.753 139.764 236.63L140.328 237.402C141.326 238.746 142.2 239.645 144.253 239.174C146.032 238.766 148.398 237.983 149.842 236.836C151.581 235.454 150.529 233.76 150.169 231.932C149.912 230.628 149.75 229.302 149.753 227.97ZM114.003 236.889C113.234 237.014 113.361 239.577 114.418 239.186C115.188 238.901 114.212 237.353 114.003 236.889ZM77.0323 233.253L77.0315 233.006C77.018 231.555 76.8115 230.15 74.8296 230.708C73.7371 231.015 76.713 233.008 77.0323 233.253ZM111.724 209.372C108.125 210.709 104.667 212.503 100.993 213.634C99.4382 214.113 97.9201 214.105 96.3468 214.361C94.8179 214.61 93.6044 215.612 92.2625 216.325C90.0443 217.503 85.154 218.348 85.0872 221.2C85.0067 224.634 85.6882 228.296 86.0173 231.717L86.9355 231.212C90.2078 229.417 93.5711 227.685 97.3049 227.13C99.2211 226.846 101.185 226.855 103.085 227.245C105.168 227.672 106.803 228.897 108.786 229.502C109.826 224.562 110.58 219.507 111.349 214.517L111.427 214.034C111.681 212.497 111.991 210.921 111.724 209.372ZM126.243 229.4C126.194 227.913 117.347 229.052 116.163 229.449L116.24 229.487C117.65 230.144 126.349 232.642 126.243 229.4ZM129.644 229.43L129.394 229.366C127.74 228.948 127.329 229.153 126.794 230.905C127.623 230.828 130.748 231.08 131.438 230.45C132.193 229.761 130.234 229.572 129.644 229.43ZM130.527 180.882L130.466 180.809C129.657 179.843 129.622 179.422 128.494 180.04C127.571 180.546 126.579 181.914 125.764 182.614C124.796 183.447 123.796 184.243 122.757 184.987C121.942 185.57 120.748 186.044 120.136 186.838C118.841 188.518 119.346 192.301 119.06 194.406L119.039 194.55C118.58 197.41 120.479 199.709 121.676 202.191L121.799 202.442C122.821 204.497 123.346 204.628 125.704 205.001C130.856 205.816 131.32 212.077 130.948 216.252C130.693 219.126 129.936 221.944 129.047 224.68C128.823 225.372 128.137 226.453 128.183 227.153C128.258 228.292 129.282 228.166 130.302 228.465C133.057 229.27 134.615 230.154 137.562 229.523L145.347 227.844C146.238 227.654 148.333 227.637 149.017 227.049C149.762 226.407 149.366 225.242 149.209 224.347L149.193 224.256C148.871 222.23 148.861 220.42 146.598 220.278L144.613 220.164C140.588 219.909 135.359 219.216 134.959 214.445C134.56 209.689 140.871 208.439 144.235 207.879C146.632 207.481 144.819 204.338 144.331 202.699C143.644 200.395 143.136 197.758 141.756 195.744L141.526 196.04C139.698 198.422 131.042 210.033 129.257 204.454C128.483 202.037 131.604 198.593 133.173 197.15C135.376 195.124 138.041 193.684 141.062 193.424C140.359 191.363 139.818 189.341 139.272 187.242C138.663 184.898 137.67 185.696 135.736 186.048C133.599 186.437 131.725 182.373 130.527 180.882ZM127.929 224.99C125.061 224.983 122.208 224.99 119.345 225.07L118.117 225.109C117.222 225.141 115.794 224.865 115.173 225.662C114.871 226.05 114.717 227.776 115.132 228.144C115.696 228.645 118.137 227.911 118.74 227.851C120.315 227.694 121.896 227.613 123.479 227.605C124.41 227.6 126.16 227.982 126.983 227.353C127.644 226.849 127.726 225.726 127.929 224.99ZM116.881 210.346C116.701 212.003 116.501 213.658 116.296 215.313L116.09 216.968C115.991 217.77 114.964 221 116.499 220.915C117.905 220.837 119.287 220.54 120.678 220.342L116.881 210.346ZM127.17 206.638L127.018 206.56C125.41 205.763 123.349 205.636 124.021 207.921C124.336 208.993 124.873 209.941 125.083 211.05L125.13 211.288C125.297 212.089 125.402 212.136 125.826 212.764C126.056 213.106 125.95 214.443 126.102 214.942C126.308 215.62 126.53 216.291 126.728 216.973C127.25 218.768 127.81 219.273 129.326 220.386L129.426 220.022C130.429 216.222 131.252 208.809 127.17 206.638ZM145.937 208.941C145.508 207.027 138.658 210.21 137.544 211.121C134.64 213.5 136.035 216.829 139.143 218.177L139.254 218.224C140.592 218.776 147.048 220.679 147.766 219.072C148.189 218.124 147.151 215.743 146.963 214.757C146.597 212.829 146.366 210.855 145.937 208.941ZM97.7374 175.19L97.587 175.159C95.9977 174.802 94.1193 173.521 94.2575 175.793C94.5681 180.894 94.1972 185.849 94.2316 190.928C94.245 192.892 94.4475 195.133 93.3593 196.774C92.1225 198.638 90.7056 200.235 88.7998 201.448C87.7935 202.089 86.7716 202.579 85.5512 202.608C84.6254 202.63 84.1042 202.153 83.5868 202.933C83.1512 203.591 83.9236 205.95 84.0003 206.794C84.1145 208.05 84.1658 209.313 84.2312 210.572C84.3674 213.184 84.5358 215.795 84.693 218.405C88.2044 217.558 91.2816 215.6 94.3863 213.84C90.874 210.548 94.6581 204.68 96.8065 201.704C99.7204 197.667 103.361 194.548 107.069 191.276L106.662 191.272C102.238 191.205 96.4722 190.172 96.0673 184.796C95.8596 182.041 97.1864 179.625 99.4619 178.115C100.351 177.524 105.852 175.974 105.952 175.349C103.262 175.343 100.385 175.686 97.7374 175.19ZM113.583 200.804C109.057 205.483 103.582 209.075 98.2389 212.74C99.8173 213.699 104.39 211.055 105.921 210.482C107.597 209.855 111.961 209.126 112.678 207.089C112.995 206.187 112.837 205.007 113.145 204.019L113.256 203.659C113.543 202.708 113.748 201.831 113.583 200.804ZM115.941 190.097C115.609 188.848 114.149 189.752 113.203 190.052C107.421 191.884 102.889 195.854 99.0819 200.501C97.2438 202.745 95.5786 205.137 94.5767 207.868L94.346 208.514C93.9658 209.551 93.5037 210.7 94.0468 211.731C94.8149 213.188 95.982 212.881 97.1408 212.146C102.43 208.792 107.284 204.887 112.172 200.992C114.603 199.056 114.452 196.204 115.142 193.356C115.31 192.666 116.136 190.832 115.941 190.097ZM141.203 195.325C142.337 193.04 136.8 195.722 136.327 195.999C133.883 197.426 131.107 199.743 130.366 202.603C129.412 206.28 133.74 203.548 134.958 202.417C136.065 201.39 137.004 200.192 137.997 199.058C138.983 197.931 140.532 196.675 141.203 195.325ZM126.255 174.62L126.191 174.624C125.341 174.727 123.654 177.934 123.228 178.508C121.911 180.284 120.638 182.111 119.267 183.845L118.99 184.19C118.096 185.279 117.481 185.714 116.847 184.078C116.204 182.415 116.22 180.611 115.229 179.063C111.423 173.116 97.4665 176.71 96.9456 183.724C96.6501 187.699 100.492 189.323 103.77 189.891C106.05 190.286 108.042 190.263 110.216 189.429C112.007 188.742 114.086 188.529 115.802 187.769C117.021 187.228 117.31 185.97 118.501 185.585C119.324 185.319 119.833 185.63 120.718 185.075C121.672 184.477 122.558 183.69 123.45 183.004C124.79 181.974 127.421 180.532 128.109 178.918C128.439 178.143 127.407 174.614 126.255 174.62ZM124.473 170.016C122.135 171.347 119.599 172.152 117.086 173.178C114.54 174.217 111.474 173.772 109.073 174.938C111.363 176.024 113.544 175.086 115.412 177.383C116.875 179.182 117.357 181.646 117.905 183.836C119.733 181.909 121.201 179.682 122.772 177.552C123.964 175.935 126.423 174.049 125.402 171.95L124.473 170.016ZM107.539 113.105C105.232 116.541 102.306 118.701 98.2535 119.806C93.6768 121.054 89.3792 120.194 84.8158 119.432C85.9471 124.867 86.4658 130.367 87.1878 135.861C87.8429 140.839 88.7398 145.784 89.5982 150.732L89.8311 152.081C90.5234 156.114 91.2423 160.115 92.0561 164.12L92.3659 165.622C92.7971 167.684 93.2292 168.552 95.331 169.021C97.0391 169.403 98.8334 169.656 100.561 169.949C104.668 170.645 109.445 169.851 113.452 168.851C115.53 168.333 117.609 167.532 119.741 167.287C120.558 167.192 121.773 167.386 122.475 166.853L122.796 166.613C123.06 166.411 122.908 166.465 122.884 165.926C122.846 165.07 121.859 163.763 121.486 162.955C121.005 161.915 120.531 160.875 120.107 159.811C119.335 157.873 118.604 155.905 117.893 153.945C116.356 149.708 115.213 145.192 114.715 140.728C114.231 136.383 112.714 131.879 111.52 127.644L111.388 127.174C110.083 122.464 108.697 117.858 107.539 113.105ZM42.5736 138.815C40.1952 140.527 39.1833 144.017 37.7199 146.447C35.9256 149.429 34.0176 152.343 32.1532 155.28C30.4209 158.01 28.8131 160.83 27.0552 163.545L26.4633 164.445C26.188 164.858 24.5497 166.855 25.9571 166.579C26.5758 166.458 28.0545 164.38 28.559 163.609L28.6685 163.438C30.0229 161.247 31.6948 159.317 33.3788 157.272C33.8544 156.695 34.202 156.076 34.5385 155.534C35.2213 154.435 36.3577 153.64 37.0453 152.534C37.6462 151.566 37.7147 150.452 38.2291 149.485C38.7714 148.467 39.5999 147.57 40.1612 146.566C40.8138 145.401 41.2127 143.911 41.6819 142.664C41.9123 142.052 42.4246 141.2 42.5146 140.557C42.5633 139.978 42.5827 139.397 42.5736 138.815ZM101.529 129.84C102.735 129.548 103.433 133.836 103.625 134.537L104.063 136.125C104.46 137.584 104.828 139.058 104.99 140.561L105.046 141.078C105.126 141.93 105.108 142.784 104.196 142.671C102.344 142.441 103.268 139.603 102.691 138.61C102.059 137.522 99.0377 137.862 97.9882 137.76C98.2108 138.83 99.483 142.02 98.9211 143.066C98.3655 144.1 97.8899 143.702 97.3613 142.895C96.0353 140.874 95.7934 137.072 95.5874 134.846L95.5736 134.72C95.4751 133.897 95.0574 131.355 95.7314 130.821C96.661 130.085 97.0198 131.765 97.149 132.524L97.1899 132.774C97.4104 134.112 97.2921 134.974 98.7664 135.196L98.8994 135.215C99.8733 135.338 101.692 135.323 101.607 134.332C101.564 133.836 100.612 130.062 101.529 129.84ZM106.439 133.545C107.598 133.023 110.606 141.531 108.529 141.833C106.75 142.09 105.222 134.094 106.439 133.545ZM105.083 130.897C105.241 129.005 107.474 129.903 107.388 131.413C107.277 133.369 104.933 132.698 105.083 130.897ZM82.1729 97.806L82.0948 97.9959C81.5399 99.3115 81.3629 98.9574 80.3468 98.4582C79.4443 98.0141 78.8175 98.0399 77.806 98.1366C76.567 98.2557 76.4248 98.7643 75.353 99.3962C74.0831 100.144 73.0427 99.5119 71.9325 98.7604C71.9528 101.426 69.5154 102.788 67.5574 104.088C65.3703 105.54 63.4722 107.417 61.1972 108.72C58.7772 110.106 56.2123 111.123 53.585 112.023L53.1207 112.18C50.2012 113.163 49.9565 114.526 49.3965 117.313C50.8276 117.281 51.7223 117.926 51.1817 119.319C50.9973 119.795 50.4657 120.115 50.2714 120.598C50.0828 121.067 50.1099 121.532 49.9238 121.981L49.6843 122.548C49.5659 122.828 49.4516 123.104 49.3508 123.382C49.2879 123.557 48.8739 124.092 48.8494 124.246C48.7744 124.72 48.9769 125.14 48.861 125.635C48.662 126.481 48.1011 127.127 48.0326 128.04C49.3491 127.272 50.389 125.757 51.4527 124.679C52.8023 123.313 54.1378 121.932 55.4664 120.545L61.3273 114.415C62.3049 113.394 63.2835 112.374 64.264 111.356C66.8755 108.644 69.5778 106.144 72.8346 104.201C74.5574 103.174 75.8316 103.218 77.7724 103.101C78.9721 103.028 81.2631 101.37 82.2121 101.869C82.9061 102.234 82.8695 102.951 83.8142 102.751C84.4802 102.609 84.5617 102.367 84.594 101.831C84.6534 100.857 82.876 98.3967 82.1729 97.806ZM45.1493 69.8389L45.0345 69.5678C44.6672 68.6714 43.8854 66.6447 43.2891 67.0149C42.9441 67.229 43.3732 69.7938 43.4029 70.1235C44.0013 76.8293 46.8202 83.1521 48.0234 89.728L48.1252 90.3089C48.2967 91.3325 48.4488 93.8552 46.6541 93.4352C45.4194 93.1467 44.7982 90.6404 44.3269 89.6701C42.9721 86.8817 41.544 84.1604 40.3197 81.3058L40.014 80.5875C38.7961 77.7101 37.6177 74.7934 35.746 72.2636L35.5808 72.0456C34.5595 70.73 32.7962 69.0405 32.3961 71.7473C31.9692 74.6354 33.1754 77.9448 33.9052 80.682C34.8073 84.0684 35.967 87.3628 37.1366 90.664C37.6208 92.0315 39.2617 94.9128 38.7473 96.3689C38.2678 97.7256 37.3735 97.3465 36.5348 96.5425C35.8071 95.8448 35.391 94.6518 34.8198 93.8247C33.8595 92.4348 32.8114 91.1253 31.9136 89.6894C29.9505 86.5489 28.4738 83.1789 26.7821 79.8961C25.2032 76.8339 22.9829 74.662 20.2146 72.6462C19.1487 74.4272 20.0831 76.6047 20.726 78.362L20.7703 78.4839C21.572 80.7018 22.2238 82.9377 22.8265 85.2171L24.0609 89.8578C24.8834 92.9532 25.694 96.0532 26.4275 99.1671C27.5437 103.904 28.1171 108.694 28.5681 113.533C28.9257 117.365 28.3277 120.018 26.406 123.089C29.9057 122.643 33.2358 121.682 36.6498 120.83C38.472 120.375 40.2999 119.941 42.1269 119.504C43.0557 119.282 46.3056 119.052 46.8186 118.208C47.4278 117.207 46.6226 114.345 46.6463 113.185C46.6769 111.653 46.8415 109.919 47.8693 108.684C48.8395 107.518 50.7668 107.264 52.1079 106.644C53.8793 105.825 55.6163 104.93 57.3868 104.111L57.5083 104.058C59.0727 103.399 65.0337 101.785 64.5561 99.7948C63.866 96.9153 57.0551 100.136 55.1519 98.7815C53.8104 97.8267 53.2883 95.35 52.7739 93.9008L52.2056 92.3015C51.8289 91.2348 51.4607 90.1654 51.1253 89.0841C50.2094 86.1336 49.4715 83.132 48.6555 80.1532C47.6962 76.6504 46.6506 73.1548 45.1493 69.8389ZM89.1164 61.3423C87.8805 60.6798 87.155 62.098 86.0311 62.7996C84.3756 63.8327 82.611 64.5799 80.9999 65.7114C79.5765 66.7109 78.1928 67.9005 76.5218 68.44L76.2981 68.5142C74.7403 69.046 74.1451 69.6018 74.1171 71.5005C74.0947 73.0611 74.712 74.7231 74.9761 76.2596C75.2699 77.9745 75.1217 79.9439 75.8023 81.5642C76.1565 82.4081 76.8733 83.0813 77.1843 83.9441L77.2473 84.1238C77.6028 85.1719 77.3483 85.1355 76.3249 85.2493C74.8865 85.4097 73.3934 85.2562 72.1298 86.2502C70.489 87.5412 69.8105 91.5264 71.9231 92.6244C73.374 93.3789 74.7284 92.6824 75.8355 91.7676C76.1862 91.4778 77.2175 90.1657 77.6418 90.1559C78.2863 90.1408 78.2027 90.6674 78.5926 91.0406C79.5856 91.9894 80.669 91.6734 81.7408 92.5913C82.8511 93.5422 83.654 94.9632 84.4413 96.2032L84.5802 96.42C86.4128 99.254 87.8723 102.388 87.5544 105.851C87.3825 107.718 86.934 107.636 85.5792 108.472C84.6172 109.066 84.0856 110.211 82.8217 109.401C83.2202 111.155 83.2839 113.866 84.1511 115.44C84.9039 116.805 86.2133 116.445 87.5901 116.243L87.6909 116.229C91.7236 115.664 95.6567 115.56 99.4481 113.904C101.201 113.138 102.919 112.191 104.561 111.212C106.205 110.233 106.659 109.465 106.295 107.621L106.268 107.49C105.909 105.788 105.566 104.904 103.986 104.163L103.855 104.103C102.198 103.366 100.821 102.477 99.7695 100.959C97.9515 98.3344 97.245 94.0456 100.647 92.5302L101.627 92.0925C104.848 90.6461 108.174 88.9882 109.931 85.702C111.452 82.8608 108.879 80.8875 106.964 79.1086C104.308 76.6418 102.354 72.7404 99.1866 70.9042C98.8937 74.0838 96.0082 70.5956 94.7309 70.1841C92.8109 69.5655 93.4101 71.8939 94.6219 72.6234L94.7339 72.6883C96.668 73.7716 103.687 76.039 99.8087 78.8794L99.6456 78.9949C98.458 79.81 95.9972 80.9611 95.6627 78.7337C95.5843 78.2079 95.9449 77.9104 95.982 77.4556C96.0518 76.6121 96.411 77.2707 95.8583 76.5235C95.3844 75.8821 94.2441 75.4367 93.6328 74.8804C92.0897 73.4768 91.6444 71.6932 91.4079 69.6919L91.3863 69.5036C91.1347 67.2371 91.5594 66.7307 93.3869 65.573C92.138 64.4084 90.585 62.1294 89.1164 61.3423ZM75.4629 86.3969L75.5349 86.3993C76.2749 86.4407 77.1716 87.2117 76.7162 88.0357C76.441 88.5329 75.4222 88.6521 74.9479 88.6939C72.507 88.9093 73.813 86.3788 75.4629 86.3969ZM92.2155 83.1608C91.462 80.3537 95.1559 82.6514 96.3959 82.8535C98.3125 83.1662 101.057 80.7782 101.714 83.4663C103.027 88.8347 93.2859 87.1415 92.2155 83.1608ZM83.8651 72.1656C85.559 71.5791 90.2272 73.9301 89.7692 76.0603C89.1134 79.1123 85.6036 74.1534 84.2594 76.1227C83.5483 77.1652 84.2623 78.3415 84.4805 79.2577C84.6183 79.8339 85.2621 79.6765 84.6727 80.2536C84.2993 80.6184 83.5368 80.1607 83.288 79.9687C81.3977 78.51 81.387 73.0237 83.8651 72.1656ZM170.22 7.36285C166.429 10.2621 162.734 13.2835 158.94 16.1789C157.175 17.5258 155.394 18.8521 153.625 20.1921C152.176 21.2897 149.728 22.4942 148.653 23.9443C147.496 25.5053 149.932 27.5276 150.883 28.8534C151.772 30.0937 152.621 31.3625 153.461 32.6369L154.466 34.1675C156.674 37.5278 158.864 40.9003 161.122 44.2276L162.094 45.6507C164.114 48.5858 166.055 51.5701 167.98 54.5657L169.629 57.1352C170.731 58.8553 171.834 60.5753 172.926 62.3018C173.518 63.2382 174.071 64.217 174.704 65.1263L174.96 65.4947C175.368 66.0671 175.446 66.0196 176.334 65.8004C177.988 65.392 179.814 63.9269 181.316 63.1307L183.131 62.1679C184.339 61.524 185.544 60.8736 186.737 60.2015L187.63 59.6931C191.257 57.6008 195.198 55.6787 198.579 53.2192C199.904 52.2545 197.098 48.4219 195.721 48.6768C194.54 48.8952 193.217 49.9201 192.112 50.4261C191 50.9348 189.879 51.422 188.751 51.8947L187.638 52.3582C185.697 53.1838 183.007 54.5376 180.93 53.7579C178.319 52.7777 179.297 49.9029 180.238 48.1007C177.151 47.3867 172.32 50.8564 169.463 48.4786C165.465 45.1524 172.881 41.3585 174.925 40.0568C173.822 39.4364 171.623 40.271 170.341 40.4993L170.223 40.5189C168.476 40.788 166.7 41.2592 164.917 41.2308C161.937 41.1831 160.295 38.1867 161.967 35.5896C163.664 32.9521 167.775 31.0735 170.462 29.6831C174.1 27.8006 177.587 25.7104 181.04 23.5114L180.045 22.1442C176.568 17.3542 173.157 12.5053 170.22 7.36285ZM180.846 10.9324C181.628 12.4955 182.355 14.0947 183.255 15.5951C184.026 16.8797 185.339 18.1329 185.938 19.4888C186.971 21.8279 184.52 25.5221 183.036 27.2138C181.068 29.4557 178.679 31.1354 176.092 32.5854C174.877 33.2665 173.654 33.9404 172.416 34.5807L171.671 34.9607C171.329 35.1331 169.237 35.8648 170.418 36.1098C171.581 36.351 173.709 35.3738 174.903 35.0987C176.605 34.7066 178.302 34.2917 179.994 33.8605C181.601 33.4513 183.208 33.0325 184.747 32.4079C185.716 32.0145 187.152 30.9746 188.228 31.527C192.998 33.9783 178.784 42.2424 177.212 43.2909C181.915 42.5724 186.882 41.058 191.236 39.1146L191.669 38.9188C193.48 38.0912 194.921 38.767 194.398 41.0305C193.954 42.9565 191.447 44.2157 189.999 45.3412C190.794 46.7998 199.354 39.3994 201.109 42.1057C201.623 42.8989 201.396 44.1826 201.874 45.1262C202.401 46.1687 202.862 47.1863 203.248 48.2925C204.08 50.6724 205.079 53.1078 205.706 55.548L205.766 55.7905C206.367 58.2929 206.04 59.4132 209.079 59.1128C211.565 58.8669 214.05 58.5939 216.541 58.394C218.759 58.2164 221.145 58.3587 223.319 57.8514C225.627 57.3137 225.485 55.1204 225.732 53.0743L225.747 52.9608C226.177 49.6241 225.96 46.1997 225.832 42.8416L225.814 42.3624C225.697 39.0323 225.455 35.6928 224.46 32.4921C222.761 27.0285 219.403 22.6103 214.562 19.5348C212.276 18.083 209.881 17.3284 207.233 16.9583L206.937 16.9188C203.76 16.5108 200.501 15.7215 197.373 15.0156C194.61 14.3918 191.83 14.2551 189.042 13.486C187.652 13.1025 186.296 12.6851 184.96 12.1692C183.624 11.6537 182.155 11.5067 180.846 10.9324ZM141.199 50.0691L141.512 49.2247C142 47.9369 142.881 45.8898 143.805 46.2415C145.163 46.7581 143.866 47.9753 143.792 48.6048C143.754 48.9352 144.078 49.2792 144.005 49.7281C143.82 50.8737 142.821 53.0944 141.905 53.8615C141.286 54.3789 140.519 53.768 140.304 53.1389C140.045 52.3803 140.889 50.853 141.199 50.0691ZM135.981 34.6511C136.298 36.2771 135.903 37.4375 135.045 38.7634C134.331 39.8664 132.788 40.2854 132.208 41.4252C131.771 42.2843 130.923 42.7277 129.961 42.5881L130.046 43.8914C126.839 43.8837 128.584 40.832 129.813 39.3716C131.284 37.6241 133.784 35.3894 135.981 34.6511ZM154.366 22.9024C155.405 22.0682 156.613 23.4067 157.189 24.2384C158.317 25.8667 158.814 27.8216 159.697 29.5871C157.155 30.9945 154.909 28.8183 153.959 26.3755C153.605 25.4682 153.444 23.6422 154.366 22.9024ZM121.79 20.1354C122.811 19.6083 124.374 19.9906 125.436 20.1563L126.214 20.2707C127.123 20.4084 127.738 20.5685 128.424 21.3804C128.666 21.6678 128.964 21.5515 129.121 21.9064C129.309 22.3321 128.354 22.3563 129.109 22.7929C128.258 23.4424 126.823 22.8661 125.772 22.8428L124.554 22.8238C123.616 22.8047 122.739 22.749 121.739 22.4621C120.3 22.0492 120.716 20.6903 121.79 20.1354ZM129.438 5.09828C130.722 4.85609 134.033 7.40925 135.064 8.33841L135.2 8.46307C136.045 9.25709 138.613 11.9173 136.904 12.8193C135.474 13.5735 131.048 10.4718 130.021 9.59122C129.097 8.79868 126.822 5.59237 129.438 5.09828ZM152.739 0.00182182C153.441 -0.0825183 154.065 2.78549 154.133 3.61735C154.219 4.67338 153.695 5.5443 152.866 6.31224C151.455 7.61995 150.406 0.282808 152.739 0.00182182Z" fill="#101F18"/>
<path fill-rule="evenodd" clip-rule="evenodd" d="M104.664 64.2142C104.319 63.6275 103.896 63.0913 103.394 62.6281C103.408 62.6409 103.423 62.6539 103.437 62.6666C103.405 62.6372 103.373 62.6083 103.342 62.5785C103.354 62.5902 103.366 62.6014 103.378 62.6123C99.1937 58.8964 92.4166 59.4352 91.3818 65.8416C91.4047 65.7873 91.4264 65.7332 91.4491 65.6788C89.7005 72.4607 87.3874 64.7159 79.0653 67.2498C75.4333 68.5406 73.5299 72.4969 72.3879 75.8637C71.6001 77.4222 72.1797 79.5029 73.0731 81.3443C75.0834 85.4867 79.681 86.3941 84.2562 85.0539C88.3883 83.8435 89.6731 81.4637 91.9878 76.4204C92.4026 75.5169 93.4302 74.056 95.0609 73.6928C96.5492 73.3614 96.866 73.8366 98.3481 74.7718C106.817 80.1154 107.496 69.586 104.664 64.2142Z" fill="#34654E"/>
<path d="M78.0178 74.1353C80.1734 73.0686 82.7986 72.3593 85.0377 72.248L85.1617 72.2425L85.207 72.2409L85.2116 72.2399C85.2312 72.2358 85.2512 72.2327 85.2719 72.2306L85.3036 72.228L85.3367 72.227L85.365 72.2273L85.6244 72.236L85.7238 72.2404C85.8486 72.2467 85.9447 72.2548 86.042 72.2673L86.0787 72.2722L86.149 72.2827C87.9562 72.5932 88.8864 73.8068 88.5298 75.3323C88.2273 76.6266 87.0652 77.7558 85.63 78.1433L85.5675 78.1597L85.5235 78.1703L85.4956 78.1838C84.5939 78.5949 82.1867 78.4737 80.0635 77.9503L79.9859 77.9309L79.9096 77.9115L79.7603 77.8722L79.6093 77.8307C78.39 77.4879 77.5441 77.063 77.12 76.5541C76.4626 75.7651 76.8027 74.8636 77.9747 74.1589L77.9961 74.1466L78.0178 74.1353Z" fill="#101F18"/>
<path fill-rule="evenodd" clip-rule="evenodd" d="M85.531 73.4614C85.356 73.4348 85.1777 73.4336 85.0003 73.4284C85.0197 73.4301 85.0386 73.432 85.0575 73.434C83.2818 73.4766 81.2336 74.0606 79.6837 74.8246C76.8106 76.5421 83.9752 77.6663 84.9934 77.0389C87.073 76.5764 88.0425 73.8778 85.531 73.4614Z" fill="white"/>
<path d="M100.302 65.724L100.399 65.689C101.301 65.3723 101.981 65.3758 102.45 65.7582C102.505 65.8025 102.548 65.8582 102.578 65.9214C103.056 66.9313 102.91 67.932 102.1 69.6469L102.062 69.7265L101.773 70.3157L101.588 70.6941L101.534 70.8082C101.499 70.8814 101.468 70.949 101.44 71.0127L101.399 71.1055L101.36 71.1969C101.35 71.2213 101.338 71.2449 101.324 71.2676C100.52 72.5778 99.5033 73.3041 98.4224 73.3423C97.4724 73.3759 96.5885 72.8561 96.0639 71.9779C95.5384 71.098 95.4595 70.0088 95.8641 69.0244C96.1722 68.2747 97.1845 67.4037 98.9009 66.4112L99.0292 66.3351C99.1114 66.2872 99.1979 66.2386 99.2877 66.1902C99.5666 66.0395 99.8404 65.9086 100.105 65.8006L100.204 65.7612L100.302 65.724Z" fill="#101F18"/>
<path fill-rule="evenodd" clip-rule="evenodd" d="M100.382 67.0983C100.045 67.1982 98.5221 68.0658 98.2923 68.2111C95.4533 70.0072 98.5163 73.7473 100.434 70.5481C100.837 69.5533 101.727 68.2838 101.232 67.2321C100.971 67.0154 100.677 67.0111 100.382 67.0983Z" fill="white"/>
<path fill-rule="evenodd" clip-rule="evenodd" d="M79.1065 67.9965C76.5183 68.962 74.5198 71.614 72.9991 76.1003C72.9873 76.1339 72.9735 76.1671 72.9574 76.199C72.4067 77.2893 72.6473 78.9616 73.6529 81.0349C75.6463 85.1428 80.289 85.4546 83.969 84.3765C87.8194 83.2492 88.9714 81.0425 91.2112 76.1601C91.7947 74.888 93.0514 73.3884 94.83 72.9918C96.3887 72.6448 97.0477 73.0842 98.0454 73.7494C98.2338 73.8752 98.4432 74.015 98.6843 74.1671C100.335 75.2089 102.594 76.1886 103.981 74.9356C105.631 73.4464 105.968 68.5084 103.916 64.6025C103.6 64.0664 103.219 63.5915 102.784 63.19L102.784 63.1896C102.78 63.1865 102.777 63.1831 102.774 63.1799C100.63 61.2783 97.6729 60.5634 95.4129 61.4006L95.4015 61.4049C93.6718 62.0501 92.5379 63.4848 92.1051 65.5679C92.1181 65.6599 92.1132 65.7562 92.0883 65.8523C91.6113 67.7031 91.0526 68.67 90.2198 69.0856C89.2374 69.5779 88.2022 69.1381 87.0064 68.6289C85.2502 67.8816 82.846 66.8586 79.1827 67.9686C79.1574 67.9776 79.1317 67.9871 79.1065 67.9965ZM85.2729 85.4942C84.9811 85.6031 84.6749 85.7045 84.3532 85.7986C78.9075 87.3938 74.2842 85.828 72.2872 81.712C71.0731 79.2093 70.837 77.1621 71.5858 75.6259C73.2861 70.6357 75.622 67.6674 78.7309 66.5679C78.7423 66.5636 78.7537 66.5599 78.7651 66.5564C82.9738 65.2748 85.7848 66.4711 87.645 67.2628C88.4957 67.6247 89.2284 67.9374 89.5749 67.7658C89.8062 67.6505 90.1538 67.2225 90.5357 65.8711C90.5362 65.8361 90.5393 65.8006 90.5451 65.7647C91.0013 62.9384 92.551 60.8983 94.9098 60.0185L94.9243 60.0131C97.7156 58.9789 101.163 59.7587 103.734 61.9989C103.753 62.0135 103.771 62.0288 103.788 62.0455L103.863 62.1141C103.872 62.1223 103.881 62.131 103.889 62.1396C104.408 62.6283 104.861 63.2001 105.237 63.8401C105.243 63.8496 105.248 63.8591 105.253 63.8685C107.259 67.6743 107.568 73.677 104.98 76.014C103.815 77.0663 101.63 77.818 97.839 75.425C97.5865 75.2657 97.3673 75.1196 97.1699 74.9881C96.2337 74.3638 96.0388 74.234 95.1144 74.4398C93.548 74.7884 92.7303 76.4105 92.583 76.7321C90.4309 81.4225 89.0541 84.0838 85.2729 85.4942Z" fill="#101F18"/>
</svg>
