<svg width="352" height="542" viewBox="0 0 352 542" fill="none" xmlns="http://www.w3.org/2000/svg">
<path fill-rule="evenodd" clip-rule="evenodd" d="M314.166 34.449C313.69 31.5959 309.071 16.0781 305.427 19.0337C294.207 33.0458 311.288 45.4045 314.166 34.449ZM269.369 5.03534C268.485 5.06389 267.074 5.21723 265.474 5.39115C259.237 6.06898 250.122 7.05952 258.153 2.19547C266.075 0.125652 274.251 -0.550324 282.245 1.50467C283.021 1.69352 283.799 1.87949 284.578 2.06564C291.707 3.76949 298.896 5.48776 305.111 9.55516C306.603 10.4573 306.645 10.4618 307.885 9.27936C312.477 4.90517 317.883 2.01149 323.99 0.447531C325.541 0.0818332 330.916 -0.823872 329.865 1.83944C325.308 3.17496 308.779 8.47161 310.42 14.2596C331.874 46.1052 296.557 49.364 299.716 24.7997C299.592 23.4504 300.48 21.7384 301.354 20.0543C302.647 17.5616 303.909 15.1298 301.808 14.025C292.418 8.35787 279.972 5.76834 269.369 5.03534ZM143.797 14.2144L143.797 14.2145C144.352 15.563 144.97 17.0628 146.079 16.5223C148.611 12.7836 149.169 8.97976 142.944 12.5658C143.249 12.886 143.515 13.5307 143.797 14.2144ZM141.364 9.17866C153.005 6.29131 151.899 8.88865 149.293 15.0053C148.593 16.649 147.784 18.547 147.086 20.661C144.893 25.5253 143.195 21.8649 141.478 18.165C140.548 16.162 139.613 14.1473 138.592 13.4676C134.845 10.6154 138.516 7.43019 141.364 9.17866ZM22.5057 17.3878C15.1146 8.54726 15.3473 11.3164 18.8025 20.3972C17.9125 21.986 16.2681 22.8496 14.6523 23.6981C13.983 24.0495 13.3187 24.3984 12.7149 24.7952C5.71492 32.3207 13.9258 29.4528 18.5632 27.8331L18.5634 27.833C18.894 27.7175 19.2064 27.6084 19.4938 27.5098C21.6206 27.2712 22.3357 29.2769 23.0664 31.326C23.8572 33.5439 24.6662 35.8128 27.3028 35.342C28.2735 34.1604 27.8157 32.2731 27.3631 30.407C26.8039 28.1014 26.2525 25.828 28.4125 24.9577C28.5042 24.9408 28.6056 24.9224 28.7157 24.9024L28.7172 24.9021L28.7188 24.9018C31.7675 24.3481 41.4193 22.5952 35.8735 19.2263C33.9891 18.385 31.8451 18.6604 29.7559 18.9288C27.0054 19.2822 24.3496 19.6233 22.5057 17.3878ZM21.8434 57H4V74.767C4.80767 74.9169 5.80724 75.1785 6.82546 75.6398C8.04613 76.193 9.35587 77.0623 10.361 78.4288C11.3829 79.8178 12 81.5999 12 83.8053C12 86.0107 11.3829 87.7928 10.361 89.1818C9.35587 90.5482 8.04613 91.4176 6.82546 91.9708C5.80724 92.4321 4.80767 92.6937 4 92.8436V103.767C4.80767 103.917 5.80724 104.178 6.82546 104.64C8.04613 105.193 9.35587 106.062 10.361 107.429C11.3829 108.818 12 110.6 12 112.805C12 115.011 11.3829 116.793 10.361 118.182C9.35587 119.548 8.04613 120.418 6.82546 120.971C5.80724 121.432 4.80767 121.694 4 121.844V132.767C4.80767 132.917 5.80724 133.178 6.82546 133.64C8.04613 134.193 9.35587 135.062 10.361 136.429C11.3829 137.818 12 139.6 12 141.805C12 144.011 11.3829 145.793 10.361 147.182C9.35587 148.548 8.04613 149.418 6.82546 149.971C5.80724 150.432 4.80767 150.694 4 150.844V161.767C4.80767 161.917 5.80724 162.178 6.82546 162.64C8.04613 163.193 9.35587 164.062 10.361 165.429C11.3829 166.818 12 168.6 12 170.805C12 173.011 11.3829 174.793 10.361 176.182C9.35587 177.548 8.04613 178.418 6.82546 178.971C5.80724 179.432 4.80767 179.694 4 179.844V190.767C4.80767 190.917 5.80724 191.178 6.82546 191.64C8.04613 192.193 9.35587 193.062 10.361 194.429C11.3829 195.818 12 197.6 12 199.805C12 202.011 11.3829 203.793 10.361 205.182C9.35587 206.548 8.04613 207.418 6.82546 207.971C5.80724 208.432 4.80767 208.694 4 208.844V219.767C4.80767 219.917 5.80724 220.178 6.82546 220.64C8.04613 221.193 9.35587 222.062 10.361 223.429C11.3829 224.818 12 226.6 12 228.805C12 231.011 11.3829 232.793 10.361 234.182C9.35587 235.548 8.04613 236.418 6.82546 236.971C5.80724 237.432 4.80767 237.694 4 237.844V248.767C4.80767 248.917 5.80724 249.178 6.82546 249.64C8.04613 250.193 9.35587 251.062 10.361 252.429C11.3829 253.818 12 255.6 12 257.805C12 260.011 11.3829 261.793 10.361 263.182C9.35587 264.548 8.04613 265.418 6.82546 265.971C5.80724 266.432 4.80767 266.694 4 266.844V277.767C4.80767 277.917 5.80724 278.178 6.82546 278.64C8.04613 279.193 9.35587 280.062 10.361 281.429C11.3829 282.818 12 284.6 12 286.805C12 289.011 11.3829 290.793 10.361 292.182C9.35587 293.548 8.04613 294.418 6.82546 294.971C5.80724 295.432 4.80767 295.694 4 295.844V306.767C4.80767 306.917 5.80724 307.178 6.82546 307.64C8.04613 308.193 9.35587 309.062 10.361 310.429C11.3829 311.818 12 313.6 12 315.805C12 318.011 11.3829 319.793 10.361 321.182C9.35587 322.548 8.04613 323.418 6.82546 323.971C5.80724 324.432 4.80767 324.694 4 324.844V335.767C4.80767 335.917 5.80724 336.178 6.82546 336.64C8.04613 337.193 9.35587 338.062 10.361 339.429C11.3829 340.818 12 342.6 12 344.805C12 347.011 11.3829 348.793 10.361 350.182C9.35587 351.548 8.04613 352.418 6.82546 352.971C5.80724 353.432 4.80767 353.694 4 353.844V364.767C4.80767 364.917 5.80724 365.178 6.82546 365.64C8.04613 366.193 9.35587 367.062 10.361 368.429C11.3829 369.818 12 371.6 12 373.805C12 376.011 11.3829 377.793 10.361 379.182C9.35587 380.548 8.04613 381.418 6.82546 381.971C5.80724 382.432 4.80767 382.694 4 382.844V401H21.8434C22.0044 400.292 22.2717 399.443 22.7193 398.58C23.2987 397.462 24.1954 396.294 25.5678 395.411C26.9493 394.523 28.6954 394 30.8454 394C32.9953 394 34.7415 394.523 36.1229 395.411C37.4953 396.294 38.392 397.462 38.9715 398.58C39.419 399.443 39.6863 400.292 39.8473 401H50.8743C51.0353 400.292 51.3026 399.443 51.7502 398.58C52.3296 397.462 53.2263 396.294 54.5987 395.411C55.9802 394.523 57.7264 394 59.8763 394C62.0262 394 63.7724 394.523 65.1538 395.411C66.5262 396.294 67.423 397.462 68.0024 398.58C68.4499 399.443 68.7172 400.292 68.8783 401H79.9052C80.0663 400.292 80.3336 399.443 80.7811 398.58C81.3605 397.462 82.2573 396.294 83.6297 395.411C85.0111 394.523 86.7573 394 88.9072 394C91.0571 394 92.8033 394.523 94.1848 395.411C95.5572 396.294 96.4539 397.462 97.0333 398.58C97.4809 399.443 97.7482 400.292 97.9092 401H108.936C109.097 400.292 109.364 399.443 109.812 398.58C110.391 397.462 111.288 396.294 112.661 395.411C114.042 394.523 115.788 394 117.938 394C120.088 394 121.834 394.523 123.216 395.411C124.588 396.294 125.485 397.462 126.064 398.58C126.512 399.443 126.779 400.292 126.94 401H137.967C138.128 400.292 138.395 399.443 138.843 398.58C139.422 397.462 140.319 396.294 141.692 395.411C143.073 394.523 144.819 394 146.969 394C149.119 394 150.865 394.523 152.247 395.411C153.619 396.294 154.516 397.462 155.095 398.58C155.543 399.443 155.81 400.292 155.971 401H166.998C167.159 400.292 167.426 399.443 167.874 398.58C168.453 397.462 169.35 396.294 170.722 395.411C172.104 394.523 173.85 394 176 394C178.15 394 179.896 394.523 181.278 395.411C182.65 396.294 183.547 397.462 184.126 398.58C184.574 399.443 184.841 400.292 185.002 401H196.029C196.19 400.292 196.457 399.443 196.905 398.58C197.484 397.462 198.381 396.294 199.753 395.411C201.135 394.523 202.881 394 205.031 394C207.181 394 208.927 394.523 210.308 395.411C211.681 396.294 212.578 397.462 213.157 398.58C213.605 399.443 213.872 400.292 214.033 401H225.06C225.221 400.292 225.488 399.443 225.936 398.58C226.515 397.462 227.412 396.294 228.784 395.411C230.166 394.523 231.912 394 234.062 394C236.212 394 237.958 394.523 239.339 395.411C240.712 396.294 241.609 397.462 242.188 398.58C242.636 399.443 242.903 400.292 243.064 401H254.091C254.252 400.292 254.519 399.443 254.967 398.58C255.546 397.462 256.443 396.294 257.815 395.411C259.197 394.523 260.943 394 263.093 394C265.243 394 266.989 394.523 268.37 395.411C269.743 396.294 270.639 397.462 271.219 398.58C271.666 399.443 271.934 400.292 272.095 401H283.122C283.283 400.292 283.55 399.443 283.998 398.58C284.577 397.462 285.474 396.294 286.846 395.411C288.228 394.523 289.974 394 292.124 394C294.274 394 296.02 394.523 297.401 395.411C298.774 396.294 299.67 397.462 300.25 398.58C300.697 399.443 300.965 400.292 301.126 401H312.153C312.314 400.292 312.581 399.443 313.029 398.58C313.608 397.462 314.505 396.294 315.877 395.411C317.259 394.523 319.005 394 321.155 394C323.305 394 325.051 394.523 326.432 395.411C327.805 396.294 328.701 397.462 329.281 398.58C329.728 399.443 329.996 400.292 330.157 401H348V382.844C347.193 382.694 346.193 382.432 345.175 381.971C343.954 381.418 342.645 380.548 341.639 379.182C340.618 377.793 340 376.011 340 373.805C340 371.6 340.618 369.818 341.639 368.429C342.645 367.062 343.954 366.193 345.175 365.64C346.193 365.178 347.193 364.917 348 364.767V353.844C347.193 353.694 346.193 353.432 345.175 352.971C343.954 352.418 342.645 351.548 341.639 350.182C340.618 348.793 340 347.011 340 344.805C340 342.6 340.618 340.818 341.639 339.429C342.645 338.062 343.954 337.193 345.175 336.64C346.193 336.178 347.193 335.917 348 335.767V324.844C347.193 324.694 346.193 324.432 345.175 323.971C343.954 323.418 342.645 322.548 341.639 321.182C340.618 319.793 340 318.011 340 315.805C340 313.6 340.618 311.818 341.639 310.429C342.645 309.062 343.954 308.193 345.175 307.64C346.193 307.178 347.193 306.917 348 306.767V295.844C347.193 295.694 346.193 295.432 345.175 294.971C343.954 294.418 342.645 293.548 341.639 292.182C340.618 290.793 340 289.011 340 286.805C340 284.6 340.618 282.818 341.639 281.429C342.645 280.062 343.954 279.193 345.175 278.64C346.193 278.178 347.193 277.917 348 277.767V266.844C347.193 266.694 346.193 266.432 345.175 265.971C343.954 265.418 342.645 264.548 341.639 263.182C340.618 261.793 340 260.011 340 257.805C340 255.6 340.618 253.818 341.639 252.429C342.645 251.062 343.954 250.193 345.175 249.64C346.193 249.178 347.193 248.917 348 248.767V237.844C347.193 237.694 346.193 237.432 345.175 236.971C343.954 236.418 342.645 235.548 341.639 234.182C340.618 232.793 340 231.011 340 228.805C340 226.6 340.618 224.818 341.639 223.429C342.645 222.062 343.954 221.193 345.175 220.64C346.193 220.178 347.193 219.917 348 219.767V208.844C347.193 208.694 346.193 208.432 345.175 207.971C343.954 207.418 342.645 206.548 341.639 205.182C340.618 203.793 340 202.011 340 199.805C340 197.6 340.618 195.818 341.639 194.429C342.645 193.062 343.954 192.193 345.175 191.64C346.193 191.178 347.193 190.917 348 190.767V179.844C347.193 179.694 346.193 179.432 345.175 178.971C343.954 178.418 342.645 177.548 341.639 176.182C340.618 174.793 340 173.011 340 170.805C340 168.6 340.618 166.818 341.639 165.429C342.645 164.062 343.954 163.193 345.175 162.64C346.193 162.178 347.193 161.917 348 161.767V150.844C347.193 150.694 346.193 150.432 345.175 149.971C343.954 149.418 342.645 148.548 341.639 147.182C340.618 145.793 340 144.011 340 141.805C340 139.6 340.618 137.818 341.639 136.429C342.645 135.062 343.954 134.193 345.175 133.64C346.193 133.178 347.193 132.917 348 132.767V121.844C347.193 121.694 346.193 121.432 345.175 120.971C343.954 120.418 342.645 119.548 341.639 118.182C340.618 116.793 340 115.011 340 112.805C340 110.6 340.618 108.818 341.639 107.429C342.645 106.062 343.954 105.193 345.175 104.64C346.193 104.178 347.193 103.917 348 103.767V92.8436C347.193 92.6937 346.193 92.4321 345.175 91.9708C343.954 91.4176 342.645 90.5482 341.639 89.1818C340.618 87.7928 340 86.0107 340 83.8053C340 81.5999 340.618 79.8178 341.639 78.4288C342.645 77.0623 343.954 76.193 345.175 75.6398C346.193 75.1785 347.193 74.9169 348 74.767V57H330.157C329.996 57.7078 329.728 58.5572 329.281 59.4205C328.701 60.5382 327.805 61.7061 326.432 62.5885C325.051 63.4768 323.305 64 321.155 64C319.005 64 317.259 63.4768 315.877 62.5885C314.505 61.7061 313.608 60.5382 313.029 59.4205C312.581 58.5572 312.314 57.7078 312.153 57H301.126C300.965 57.7078 300.697 58.5572 300.25 59.4205C299.67 60.5382 298.774 61.7061 297.401 62.5885C296.02 63.4768 294.274 64 292.124 64C289.974 64 288.228 63.4768 286.846 62.5885C285.474 61.7061 284.577 60.5382 283.998 59.4205C283.55 58.5572 283.283 57.7078 283.122 57H272.095C271.934 57.7078 271.666 58.5572 271.219 59.4205C270.639 60.5382 269.743 61.7061 268.37 62.5885C266.989 63.4768 265.243 64 263.093 64C260.943 64 259.197 63.4768 257.815 62.5885C256.443 61.7061 255.546 60.5382 254.967 59.4205C254.519 58.5572 254.252 57.7078 254.091 57H243.064C242.903 57.7078 242.636 58.5572 242.188 59.4205C241.609 60.5382 240.712 61.7061 239.339 62.5885C237.958 63.4768 236.212 64 234.062 64C231.912 64 230.166 63.4768 228.784 62.5885C227.412 61.7061 226.515 60.5382 225.936 59.4205C225.488 58.5572 225.221 57.7078 225.06 57H214.033C213.872 57.7078 213.605 58.5572 213.157 59.4205C212.578 60.5382 211.681 61.7061 210.308 62.5885C208.927 63.4768 207.181 64 205.031 64C202.881 64 201.135 63.4768 199.753 62.5885C198.381 61.7061 197.484 60.5382 196.905 59.4205C196.457 58.5572 196.19 57.7078 196.029 57H185.002C184.841 57.7078 184.574 58.5572 184.126 59.4205C183.547 60.5382 182.65 61.7061 181.278 62.5885C179.896 63.4768 178.15 64 176 64C173.85 64 172.104 63.4768 170.722 62.5885C169.35 61.7061 168.453 60.5382 167.874 59.4205C167.426 58.5572 167.159 57.7078 166.998 57H155.971C155.81 57.7078 155.543 58.5572 155.095 59.4205C154.516 60.5382 153.619 61.7061 152.247 62.5885C150.865 63.4768 149.119 64 146.969 64C144.819 64 143.073 63.4768 141.692 62.5885C140.319 61.7061 139.422 60.5382 138.843 59.4205C138.395 58.5572 138.128 57.7078 137.967 57H126.94C126.779 57.7078 126.512 58.5572 126.064 59.4205C125.485 60.5382 124.588 61.7061 123.216 62.5885C121.834 63.4768 120.088 64 117.938 64C115.788 64 114.042 63.4768 112.661 62.5885C111.288 61.7061 110.391 60.5382 109.812 59.4205C109.364 58.5572 109.097 57.7078 108.936 57H97.9092C97.7482 57.7078 97.4809 58.5572 97.0333 59.4205C96.4539 60.5382 95.5572 61.7061 94.1848 62.5885C92.8033 63.4768 91.0571 64 88.9072 64C86.7573 64 85.0111 63.4768 83.6297 62.5885C82.2573 61.7061 81.3605 60.5382 80.7811 59.4205C80.3336 58.5572 80.0663 57.7078 79.9052 57H68.8783C68.7172 57.7078 68.4499 58.5572 68.0024 59.4205C67.423 60.5382 66.5262 61.7061 65.1538 62.5885C63.7724 63.4768 62.0262 64 59.8763 64C57.7264 64 55.9802 63.4768 54.5987 62.5885C53.2263 61.7061 52.3296 60.5382 51.7502 59.4205C51.3026 58.5572 51.0353 57.7078 50.8743 57H39.8473C39.6863 57.7078 39.419 58.5572 38.9715 59.4205C38.392 60.5382 37.4953 61.7061 36.1229 62.5885C34.7415 63.4768 32.9953 64 30.8454 64C28.6954 64 26.9493 63.4768 25.5678 62.5885C24.1954 61.7061 23.2987 60.5382 22.7193 59.4205C22.2717 58.5572 22.0044 57.7078 21.8434 57ZM0 53V55V57V78.5553L1.99141 78.5553L1.99396 78.5553C1.99918 78.5554 2.01116 78.5556 2.02945 78.5562C2.06667 78.5573 2.12961 78.5598 2.21456 78.5653C2.38509 78.5763 2.64037 78.5992 2.9513 78.6461C3.58327 78.7416 4.39224 78.9288 5.17454 79.2833C5.95387 79.6364 6.64413 80.1264 7.13896 80.799C7.61715 81.4491 8 82.3857 8 83.8053C8 85.2249 7.61715 86.1615 7.13896 86.8116C6.64413 87.4842 5.95387 87.9742 5.17454 88.3273C4.39224 88.6818 3.58327 88.869 2.9513 88.9644C2.64037 89.0114 2.38509 89.0343 2.21456 89.0453C2.12961 89.0508 2.06667 89.0533 2.02945 89.0544C2.01116 89.055 1.99918 89.0552 1.99396 89.0553H1.99372L1.99141 89.0553L0 89.0553V107.555L1.99141 107.555L1.99396 107.555C1.99918 107.555 2.01116 107.556 2.02945 107.556C2.06667 107.557 2.12961 107.56 2.21456 107.565C2.38509 107.576 2.64037 107.599 2.9513 107.646C3.58327 107.742 4.39224 107.929 5.17454 108.283C5.95387 108.636 6.64413 109.126 7.13896 109.799C7.61715 110.449 8 111.386 8 112.805C8 114.225 7.61715 115.162 7.13896 115.812C6.64413 116.484 5.95387 116.974 5.17454 117.327C4.39224 117.682 3.58327 117.869 2.9513 117.964C2.64037 118.011 2.38509 118.034 2.21456 118.045C2.12961 118.051 2.06667 118.053 2.02945 118.054C2.01122 118.055 1.99901 118.055 1.99376 118.055H1.99372L1.99141 118.055L0 118.055V136.555L1.99141 136.555L1.99396 136.555L2.0048 136.556L2.02945 136.556C2.06667 136.557 2.12961 136.56 2.21456 136.565C2.38509 136.576 2.64037 136.599 2.9513 136.646C3.58327 136.742 4.39224 136.929 5.17454 137.283C5.95387 137.636 6.64413 138.126 7.13896 138.799C7.61715 139.449 8 140.386 8 141.805C8 143.225 7.61715 144.162 7.13896 144.812C6.64413 145.484 5.95387 145.974 5.17454 146.327C4.39224 146.682 3.58327 146.869 2.9513 146.964C2.64037 147.011 2.38509 147.034 2.21456 147.045C2.12961 147.051 2.06667 147.053 2.02945 147.054C2.01088 147.055 1.99881 147.055 1.99372 147.055L0 147.055V165.555L1.99372 165.555C1.99881 165.555 2.01088 165.556 2.02945 165.556C2.06667 165.557 2.12961 165.56 2.21456 165.565C2.38509 165.576 2.64037 165.599 2.9513 165.646C3.58327 165.742 4.39224 165.929 5.17454 166.283C5.95387 166.636 6.64413 167.126 7.13896 167.799C7.61715 168.449 8 169.386 8 170.805C8 172.225 7.61715 173.162 7.13896 173.812C6.64413 174.484 5.95387 174.974 5.17454 175.327C4.39224 175.682 3.58327 175.869 2.9513 175.964C2.64037 176.011 2.38509 176.034 2.21456 176.045C2.12961 176.051 2.06667 176.053 2.02945 176.054L2.00272 176.055L1.99372 176.055L0 176.055V194.555L1.99372 194.555C1.99881 194.555 2.01088 194.556 2.02945 194.556C2.06667 194.557 2.12961 194.56 2.21456 194.565C2.38509 194.576 2.64037 194.599 2.9513 194.646C3.58327 194.742 4.39224 194.929 5.17454 195.283C5.95387 195.636 6.64413 196.126 7.13896 196.799C7.61715 197.449 8 198.386 8 199.805C8 201.225 7.61715 202.162 7.13896 202.812C6.64413 203.484 5.95387 203.974 5.17454 204.327C4.39224 204.682 3.58327 204.869 2.9513 204.964C2.64037 205.011 2.38509 205.034 2.21456 205.045C2.12961 205.051 2.06667 205.053 2.02945 205.054L2.0112 205.055L1.99372 205.055L0 205.055V223.555L1.99372 223.555C1.99881 223.555 2.01088 223.556 2.02945 223.556C2.06667 223.557 2.12961 223.56 2.21456 223.565C2.38509 223.576 2.64037 223.599 2.9513 223.646C3.58327 223.742 4.39224 223.929 5.17454 224.283C5.95387 224.636 6.64413 225.126 7.13896 225.799C7.61715 226.449 8 227.386 8 228.805C8 230.225 7.61715 231.162 7.13896 231.812C6.64413 232.484 5.95387 232.974 5.17454 233.327C4.39224 233.682 3.58327 233.869 2.9513 233.964C2.64037 234.011 2.38509 234.034 2.21456 234.045C2.12961 234.051 2.06667 234.053 2.02945 234.054L2.0032 234.055L1.99284 234.055H0V252.555L1.99372 252.555L2.00638 252.556L2.02945 252.556C2.06667 252.557 2.12961 252.56 2.21456 252.565C2.38509 252.576 2.64037 252.599 2.9513 252.646C3.58327 252.742 4.39224 252.929 5.17454 253.283C5.95387 253.636 6.64413 254.126 7.13896 254.799C7.61715 255.449 8 256.386 8 257.805C8 259.225 7.61715 260.162 7.13896 260.812C6.64413 261.484 5.95387 261.974 5.17454 262.327C4.39224 262.682 3.58327 262.869 2.9513 262.964C2.64037 263.011 2.38509 263.034 2.21456 263.045C2.12961 263.051 2.06667 263.053 2.02945 263.054L1.99981 263.055L1.99372 263.055H0V281.555H1.99372L2.01807 281.556L2.02945 281.556C2.06667 281.557 2.12961 281.56 2.21456 281.565C2.38509 281.576 2.64037 281.599 2.9513 281.646C3.58327 281.742 4.39224 281.929 5.17454 282.283C5.95387 282.636 6.64413 283.126 7.13896 283.799C7.61715 284.449 8 285.386 8 286.805C8 288.225 7.61715 289.162 7.13896 289.812C6.64413 290.484 5.95387 290.974 5.17454 291.327C4.39224 291.682 3.58327 291.869 2.9513 291.964C2.64037 292.011 2.38509 292.034 2.21456 292.045C2.12961 292.051 2.06667 292.053 2.02945 292.054C2.01116 292.055 1.99918 292.055 1.99396 292.055H1.99372H0V310.555H1.99372H1.99396L2.00955 310.556L2.02945 310.556C2.06667 310.557 2.12961 310.56 2.21456 310.565C2.38509 310.576 2.64037 310.599 2.9513 310.646C3.58327 310.742 4.39224 310.929 5.17454 311.283C5.95387 311.636 6.64413 312.126 7.13896 312.799C7.61715 313.449 8 314.386 8 315.805C8 317.225 7.61715 318.162 7.13896 318.812C6.64413 319.484 5.95387 319.974 5.17454 320.327C4.39224 320.682 3.58327 320.869 2.9513 320.964C2.64037 321.011 2.38509 321.034 2.21456 321.045C2.12961 321.051 2.06667 321.053 2.02945 321.054C2.01088 321.055 1.99881 321.055 1.99372 321.055H0V339.555H1.99372H1.99681L2.0121 339.556L2.02945 339.556C2.06667 339.557 2.12961 339.56 2.21456 339.565C2.38509 339.576 2.64037 339.599 2.9513 339.646C3.58327 339.742 4.39224 339.929 5.17454 340.283C5.95387 340.636 6.64413 341.126 7.13896 341.799C7.61715 342.449 8 343.386 8 344.805C8 346.225 7.61715 347.162 7.13896 347.812C6.64413 348.484 5.95387 348.974 5.17454 349.327C4.39224 349.682 3.58327 349.869 2.9513 349.964C2.64037 350.011 2.38509 350.034 2.21456 350.045C2.12961 350.051 2.06667 350.053 2.02945 350.054L1.99432 350.055H0V368.555H1.99372H1.99396C1.99918 368.555 2.01116 368.556 2.02945 368.556C2.06667 368.557 2.12961 368.56 2.21456 368.565C2.38509 368.576 2.64037 368.599 2.9513 368.646C3.58327 368.742 4.39224 368.929 5.17454 369.283C5.95387 369.636 6.64413 370.126 7.13896 370.799C7.61715 371.449 8 372.386 8 373.805C8 375.225 7.61715 376.162 7.13896 376.812C6.64413 377.484 5.95387 377.974 5.17454 378.327C4.39224 378.682 3.58327 378.869 2.9513 378.964C2.64037 379.011 2.38509 379.034 2.21456 379.045C2.12961 379.051 2.06667 379.053 2.02945 379.054L2.01104 379.055L1.99314 379.055H0V401V403V405H25.5876V403.011L25.5882 402.99C25.5891 402.964 25.5913 402.915 25.5963 402.847C25.6064 402.711 25.6277 402.502 25.6718 402.247C25.7617 401.727 25.9378 401.062 26.2704 400.42C26.5982 399.788 27.0623 399.206 27.7312 398.776C28.391 398.352 29.3664 398 30.8454 398C32.3243 398 33.2998 398.352 33.9596 398.776C34.6284 399.206 35.0925 399.788 35.4203 400.42C35.7529 401.062 35.929 401.727 36.0189 402.247C36.0631 402.502 36.0843 402.711 36.0944 402.847C36.0994 402.915 36.1016 402.964 36.1025 402.99L36.1031 403.011V405H54.6186V403.011L54.6191 402.99C54.6196 402.978 54.6203 402.96 54.6214 402.938L54.6238 402.897L54.6273 402.847C54.6374 402.711 54.6586 402.502 54.7028 402.247C54.7926 401.727 54.9688 401.062 55.3014 400.42C55.6291 399.788 56.0932 399.206 56.7621 398.776C57.4219 398.352 58.3973 398 59.8763 398C61.3552 398 62.3307 398.352 62.9905 398.776C63.6593 399.206 64.1234 399.788 64.4512 400.42C64.7838 401.062 64.9599 401.727 65.0498 402.247C65.094 402.502 65.1152 402.711 65.1253 402.847C65.1303 402.915 65.1325 402.964 65.1334 402.99L65.134 403.011V405H83.6495V403.011V403.004L83.6501 402.99C83.651 402.964 83.6532 402.915 83.6582 402.847C83.6683 402.711 83.6895 402.502 83.7337 402.247C83.8236 401.727 83.9997 401.062 84.3323 400.42C84.6601 399.788 85.1242 399.206 85.793 398.776C86.4528 398.352 87.4283 398 88.9072 398C90.3862 398 91.3616 398.352 92.0214 398.776C92.6903 399.206 93.1544 399.788 93.4821 400.42C93.8147 401.062 93.9909 401.727 94.0808 402.247C94.1249 402.502 94.1461 402.711 94.1562 402.847C94.1613 402.915 94.1634 402.964 94.1644 402.99L94.1649 403.011V405H112.68V403.011L112.681 402.99C112.681 402.979 112.682 402.962 112.683 402.942C112.684 402.925 112.685 402.904 112.687 402.881L112.689 402.847C112.699 402.711 112.72 402.502 112.765 402.247C112.854 401.727 113.031 401.062 113.363 400.42C113.691 399.788 114.155 399.206 114.824 398.776C115.484 398.352 116.459 398 117.938 398C119.417 398 120.393 398.352 121.052 398.776C121.721 399.206 122.185 399.788 122.513 400.42C122.846 401.062 123.022 401.727 123.112 402.247C123.156 402.502 123.177 402.711 123.187 402.847C123.189 402.876 123.191 402.902 123.192 402.924C123.194 402.953 123.195 402.975 123.195 402.99L123.196 403.004V403.01V405H141.711V403.012L141.711 403.007L141.711 403.004L141.712 402.99C141.713 402.964 141.715 402.915 141.72 402.847C141.73 402.711 141.751 402.502 141.796 402.247C141.885 401.727 142.062 401.062 142.394 400.42C142.722 399.788 143.186 399.206 143.855 398.776C144.515 398.352 145.49 398 146.969 398C148.448 398 149.423 398.352 150.083 398.776C150.752 399.206 151.216 399.788 151.544 400.42C151.877 401.062 152.053 401.727 152.143 402.247C152.187 402.502 152.208 402.711 152.218 402.847C152.223 402.915 152.225 402.964 152.226 402.99L152.227 403.004L152.227 403.007L152.227 403.011V405H170.742V403.011L170.742 403.007L170.742 403.004L170.743 402.99C170.744 402.964 170.746 402.915 170.751 402.847C170.761 402.711 170.782 402.502 170.826 402.247C170.916 401.727 171.092 401.062 171.425 400.42C171.753 399.788 172.217 399.206 172.886 398.776C173.546 398.352 174.521 398 176 398C177.479 398 178.454 398.352 179.114 398.776C179.783 399.206 180.247 399.788 180.575 400.42C180.908 401.062 181.084 401.727 181.174 402.247C181.218 402.502 181.239 402.711 181.249 402.847C181.254 402.915 181.256 402.964 181.257 402.99L181.258 403.004L181.258 403.007L181.258 403.012V405H199.773V403.011L199.773 403.007L199.773 403.004L199.774 402.99C199.774 402.976 199.775 402.955 199.777 402.927C199.778 402.905 199.78 402.878 199.782 402.847C199.792 402.711 199.813 402.502 199.857 402.247C199.947 401.727 200.123 401.062 200.456 400.42C200.784 399.788 201.248 399.206 201.917 398.776C202.577 398.352 203.552 398 205.031 398C206.51 398 207.485 398.352 208.145 398.776C208.814 399.206 209.278 399.788 209.606 400.42C209.938 401.062 210.115 401.727 210.204 402.247C210.249 402.502 210.27 402.711 210.28 402.847C210.285 402.915 210.287 402.964 210.288 402.99L210.289 403.004V405H228.804V403.011L228.804 403.007L228.804 403.004L228.805 402.99C228.806 402.964 228.808 402.915 228.813 402.847C228.823 402.711 228.844 402.502 228.888 402.247C228.978 401.727 229.154 401.062 229.487 400.42C229.815 399.788 230.279 399.206 230.948 398.776C231.607 398.352 232.583 398 234.062 398C235.541 398 236.516 398.352 237.176 398.776C237.845 399.206 238.309 399.788 238.637 400.42C238.969 401.062 239.146 401.727 239.235 402.247C239.28 402.502 239.301 402.711 239.311 402.847C239.316 402.915 239.318 402.964 239.319 402.99L239.32 403.004V403.007L239.32 403.011V405H257.835L257.835 403.011V403.007L257.835 403.004V403L257.836 402.99C257.837 402.964 257.839 402.915 257.844 402.847C257.854 402.711 257.875 402.502 257.919 402.247C258.009 401.727 258.185 401.062 258.518 400.42C258.846 399.788 259.31 399.206 259.979 398.776C260.638 398.352 261.614 398 263.093 398C264.572 398 265.547 398.352 266.207 398.776C266.876 399.206 267.34 399.788 267.668 400.42C268 401.062 268.176 401.727 268.266 402.247C268.31 402.502 268.332 402.711 268.342 402.847C268.347 402.915 268.349 402.964 268.35 402.99L268.351 403V403.011V405H286.866L286.866 403.011L286.866 403L286.867 402.99C286.867 402.964 286.87 402.915 286.875 402.847C286.885 402.711 286.906 402.502 286.95 402.247C287.04 401.727 287.216 401.062 287.549 400.42C287.877 399.788 288.341 399.206 289.01 398.776C289.669 398.352 290.645 398 292.124 398C293.603 398 294.578 398.352 295.238 398.776C295.907 399.206 296.371 399.788 296.699 400.42C297.031 401.062 297.207 401.727 297.297 402.247C297.341 402.502 297.363 402.711 297.373 402.847C297.376 402.891 297.378 402.927 297.379 402.955L297.381 402.99L297.381 403V403.004L297.381 403.007L297.381 403.011V405H315.897V403.011L315.897 403.007L315.897 403.004V403L315.897 402.99C315.898 402.964 315.901 402.915 315.906 402.847C315.916 402.711 315.937 402.502 315.981 402.247C316.071 401.727 316.247 401.062 316.58 400.42C316.908 399.788 317.372 399.206 318.04 398.776C318.7 398.352 319.676 398 321.155 398C322.634 398 323.609 398.352 324.269 398.776C324.938 399.206 325.402 399.788 325.73 400.42C326.062 401.062 326.238 401.727 326.328 402.247C326.372 402.502 326.394 402.711 326.404 402.847L326.407 402.893L326.408 402.92C326.41 402.951 326.411 402.975 326.412 402.99L326.412 403V403.007L326.412 403.011L326.412 405H352V403H352V379.055H350.007C350.002 379.055 349.99 379.055 349.971 379.054C349.934 379.053 349.871 379.051 349.786 379.045C349.615 379.034 349.36 379.011 349.049 378.964C348.417 378.869 347.608 378.682 346.826 378.327C346.047 377.974 345.356 377.484 344.861 376.812C344.383 376.162 344 375.225 344 373.805C344 372.386 344.383 371.449 344.861 370.799C345.356 370.126 346.047 369.636 346.826 369.283C347.608 368.929 348.417 368.742 349.049 368.646C349.36 368.599 349.615 368.576 349.786 368.565C349.871 368.56 349.934 368.557 349.971 368.556C349.99 368.556 350.002 368.555 350.007 368.555H352V350.055H350.006L349.971 350.054C349.934 350.053 349.871 350.051 349.786 350.045C349.615 350.034 349.36 350.011 349.049 349.964C348.417 349.869 347.608 349.682 346.826 349.327C346.047 348.974 345.356 348.484 344.861 347.812C344.383 347.162 344 346.225 344 344.805C344 343.386 344.383 342.449 344.861 341.799C345.356 341.126 346.047 340.636 346.826 340.283C347.608 339.929 348.417 339.742 349.049 339.646C349.36 339.599 349.615 339.576 349.786 339.565C349.871 339.56 349.934 339.557 349.971 339.556L349.995 339.556L350.007 339.555H352V321.055H350.007C350.002 321.055 349.99 321.055 349.971 321.054C349.934 321.053 349.871 321.051 349.786 321.045C349.615 321.034 349.36 321.011 349.049 320.964C348.417 320.869 347.608 320.682 346.826 320.327C346.047 319.974 345.356 319.484 344.861 318.812C344.383 318.162 344 317.225 344 315.805C344 314.386 344.383 313.449 344.861 312.799C345.356 312.126 346.047 311.636 346.826 311.283C347.608 310.929 348.417 310.742 349.049 310.646C349.36 310.599 349.615 310.576 349.786 310.565C349.871 310.56 349.934 310.557 349.971 310.556C349.99 310.556 350.002 310.555 350.007 310.555H352V292.055H350.007L349.994 292.055L349.971 292.054L349.924 292.053C349.906 292.052 349.886 292.051 349.863 292.05C349.84 292.049 349.814 292.047 349.786 292.045C349.615 292.034 349.36 292.011 349.049 291.964C348.417 291.869 347.608 291.682 346.826 291.327C346.047 290.974 345.356 290.484 344.861 289.812C344.383 289.162 344 288.225 344 286.805C344 285.386 344.383 284.449 344.861 283.799C345.356 283.126 346.047 282.636 346.826 282.283C347.608 281.929 348.417 281.742 349.049 281.646C349.36 281.599 349.615 281.576 349.786 281.565C349.871 281.56 349.934 281.557 349.971 281.556L349.995 281.556L350.007 281.555H352V263.055H350.007C350.002 263.055 349.99 263.055 349.971 263.054C349.934 263.053 349.871 263.051 349.786 263.045C349.615 263.034 349.36 263.011 349.049 262.964C348.417 262.869 347.608 262.682 346.826 262.327C346.047 261.974 345.356 261.484 344.861 260.812C344.383 260.162 344 259.225 344 257.805C344 256.386 344.383 255.449 344.861 254.799C345.356 254.126 346.047 253.636 346.826 253.283C347.608 252.929 348.417 252.742 349.049 252.646C349.36 252.599 349.615 252.576 349.786 252.565C349.871 252.56 349.934 252.557 349.971 252.556L349.994 252.556L350.007 252.555L352 252.555V234.055H350.008C350.002 234.055 349.99 234.055 349.971 234.054C349.951 234.054 349.924 234.053 349.889 234.051C349.86 234.05 349.825 234.048 349.786 234.045C349.615 234.034 349.36 234.011 349.049 233.964C348.417 233.869 347.608 233.682 346.826 233.327C346.047 232.974 345.356 232.484 344.861 231.812C344.383 231.162 344 230.225 344 228.805C344 227.386 344.383 226.449 344.861 225.799C345.356 225.126 346.047 224.636 346.826 224.283C347.608 223.929 348.417 223.742 349.049 223.646C349.36 223.599 349.615 223.576 349.786 223.565C349.871 223.56 349.934 223.557 349.971 223.556C349.99 223.556 350.002 223.555 350.007 223.555L352 223.555V205.055L350.007 205.055L349.99 205.055L349.971 205.054C349.952 205.054 349.927 205.053 349.896 205.051C349.865 205.05 349.828 205.048 349.786 205.045C349.615 205.034 349.36 205.011 349.049 204.964C348.417 204.869 347.608 204.682 346.826 204.327C346.047 203.974 345.356 203.484 344.861 202.812C344.383 202.162 344 201.225 344 199.805C344 198.386 344.383 197.449 344.861 196.799C345.356 196.126 346.047 195.636 346.826 195.283C347.608 194.929 348.417 194.742 349.049 194.646C349.36 194.599 349.615 194.576 349.786 194.565C349.871 194.56 349.934 194.557 349.971 194.556L349.982 194.556L350.007 194.555L352 194.555V176.055L350.007 176.055C350.002 176.055 349.99 176.055 349.971 176.054L349.942 176.053L349.91 176.052C349.877 176.051 349.835 176.048 349.786 176.045C349.615 176.034 349.36 176.011 349.049 175.964C348.417 175.869 347.608 175.682 346.826 175.327C346.047 174.974 345.356 174.484 344.861 173.812C344.383 173.162 344 172.225 344 170.805C344 169.386 344.383 168.449 344.861 167.799C345.356 167.126 346.047 166.636 346.826 166.283C347.608 165.929 348.417 165.742 349.049 165.646C349.36 165.599 349.615 165.576 349.786 165.565C349.815 165.563 349.841 165.562 349.865 165.561C349.886 165.56 349.905 165.559 349.922 165.558C349.941 165.557 349.958 165.557 349.971 165.556C349.99 165.556 350.002 165.555 350.007 165.555L352 165.555V147.055L350.007 147.055C350.002 147.055 349.99 147.055 349.971 147.054C349.934 147.053 349.871 147.051 349.786 147.045C349.615 147.034 349.36 147.011 349.049 146.964C348.417 146.869 347.608 146.682 346.826 146.327C346.047 145.974 345.356 145.484 344.861 144.812C344.383 144.162 344 143.225 344 141.805C344 140.386 344.383 139.449 344.861 138.799C345.356 138.126 346.047 137.636 346.826 137.283C347.608 136.929 348.417 136.742 349.049 136.646C349.36 136.599 349.615 136.576 349.786 136.565C349.871 136.56 349.934 136.557 349.971 136.556C349.989 136.556 350.001 136.555 350.006 136.555L350.009 136.555L352 136.555V118.055L350.009 118.055L350.007 118.055C350.001 118.055 349.989 118.055 349.971 118.054C349.958 118.054 349.941 118.053 349.922 118.053L349.87 118.05L349.824 118.048L349.786 118.045C349.615 118.034 349.36 118.011 349.049 117.964C348.417 117.869 347.608 117.682 346.826 117.327C346.047 116.974 345.356 116.484 344.861 115.812C344.383 115.162 344 114.225 344 112.805C344 111.386 344.383 110.449 344.861 109.799C345.356 109.126 346.047 108.636 346.826 108.283C347.608 107.929 348.417 107.742 349.049 107.646C349.36 107.599 349.615 107.576 349.786 107.565C349.871 107.56 349.934 107.557 349.971 107.556C349.989 107.556 350.001 107.555 350.006 107.555L350.009 107.555L352 107.555V89.0553L350.009 89.0553L350.007 89.0553C350.002 89.0552 349.99 89.055 349.971 89.0544C349.952 89.0539 349.927 89.053 349.896 89.0515L349.845 89.0489L349.786 89.0453C349.615 89.0343 349.36 89.0114 349.049 88.9644C348.417 88.869 347.608 88.6818 346.826 88.3273C346.047 87.9742 345.356 87.4842 344.861 86.8116C344.383 86.1615 344 85.2249 344 83.8053C344 82.3857 344.383 81.4491 344.861 80.799C345.356 80.1264 346.047 79.6364 346.826 79.2833C347.608 78.9288 348.417 78.7416 349.049 78.6461C349.36 78.5992 349.615 78.5763 349.786 78.5653C349.871 78.5598 349.934 78.5573 349.971 78.5562C349.989 78.5556 350.001 78.5554 350.006 78.5553L350.009 78.5553L352 78.5553V55H352V53H326.412L326.412 54.9886L326.412 54.9931V55L326.412 55.0095C326.411 55.0364 326.409 55.0853 326.404 55.1531C326.394 55.2894 326.372 55.4977 326.328 55.7532C326.238 56.2734 326.062 56.9379 325.73 57.5795C325.402 58.2118 324.938 58.7939 324.269 59.224C323.609 59.6482 322.634 60 321.155 60C319.676 60 318.7 59.6482 318.04 59.224C317.372 58.7939 316.908 58.2118 316.58 57.5795C316.247 56.9379 316.071 56.2734 315.981 55.7532C315.937 55.4977 315.916 55.2894 315.906 55.1531C315.901 55.0853 315.898 55.0364 315.897 55.0095L315.897 55V54.9963L315.897 54.9931L315.897 54.9888V53H297.381V54.9888L297.381 54.9931L297.381 54.9963V55L297.381 55.0095C297.38 55.0364 297.378 55.0853 297.373 55.1531C297.363 55.2894 297.341 55.4977 297.297 55.7532C297.207 56.2734 297.031 56.9379 296.699 57.5795C296.371 58.2118 295.907 58.7939 295.238 59.224C294.578 59.6482 293.603 60 292.124 60C290.645 60 289.669 59.6482 289.01 59.224C288.341 58.7939 287.877 58.2118 287.549 57.5795C287.216 56.9379 287.04 56.2734 286.95 55.7532C286.906 55.4977 286.885 55.2894 286.875 55.1531C286.87 55.0853 286.867 55.0364 286.867 55.0095L286.866 55L286.866 54.9886L286.866 53H268.351V54.9888V55L268.35 55.0095C268.35 55.0202 268.349 55.0344 268.348 55.0519C268.347 55.0687 268.346 55.0885 268.345 55.1112L268.342 55.1531C268.332 55.2894 268.31 55.4977 268.266 55.7532C268.176 56.2734 268 56.9379 267.668 57.5795C267.34 58.2118 266.876 58.7939 266.207 59.224C265.547 59.6482 264.572 60 263.093 60C261.614 60 260.638 59.6482 259.979 59.224C259.31 58.7939 258.846 58.2118 258.518 57.5795C258.185 56.9379 258.009 56.2734 257.919 55.7532C257.875 55.4977 257.854 55.2894 257.844 55.1531C257.839 55.0853 257.837 55.0364 257.836 55.0095L257.835 55V54.9963L257.835 54.9931V54.9886L257.835 53H239.32V54.9888L239.32 54.9931V54.9963L239.319 55.0095L239.318 55.0323L239.317 55.0636C239.315 55.0881 239.313 55.118 239.311 55.1531C239.301 55.2894 239.28 55.4977 239.235 55.7532C239.146 56.2734 238.969 56.9379 238.637 57.5795C238.309 58.2118 237.845 58.7939 237.176 59.224C236.516 59.6482 235.541 60 234.062 60C232.583 60 231.607 59.6482 230.948 59.224C230.279 58.7939 229.815 58.2118 229.487 57.5795C229.154 56.9379 228.978 56.2734 228.888 55.7532C228.844 55.4977 228.823 55.2894 228.813 55.1531C228.808 55.0853 228.806 55.0364 228.805 55.0095L228.804 54.9963L228.804 54.9931L228.804 54.9888V53H210.289V54.9963L210.288 55.0095C210.287 55.0364 210.285 55.0853 210.28 55.1531C210.27 55.2894 210.249 55.4977 210.204 55.7532C210.115 56.2734 209.938 56.9379 209.606 57.5795C209.278 58.2118 208.814 58.7939 208.145 59.224C207.485 59.6482 206.51 60 205.031 60C203.552 60 202.577 59.6482 201.917 59.224C201.248 58.7939 200.784 58.2118 200.456 57.5795C200.123 56.9379 199.947 56.2734 199.857 55.7532C199.813 55.4977 199.792 55.2894 199.782 55.1531C199.777 55.0853 199.775 55.0364 199.774 55.0095L199.773 54.9963L199.773 54.9931L199.773 54.9888V53H181.258V54.9883L181.258 54.9931L181.258 54.9963L181.257 55.0095L181.256 55.0292L181.255 55.067C181.253 55.0909 181.251 55.1197 181.249 55.1531C181.239 55.2894 181.218 55.4977 181.174 55.7532C181.084 56.2734 180.908 56.9379 180.575 57.5795C180.247 58.2118 179.783 58.7939 179.114 59.224C178.454 59.6482 177.479 60 176 60C174.521 60 173.546 59.6482 172.886 59.224C172.217 58.7939 171.753 58.2118 171.425 57.5795C171.092 56.9379 170.916 56.2734 170.826 55.7532C170.782 55.4977 170.761 55.2894 170.751 55.1531C170.746 55.0853 170.744 55.0364 170.743 55.0095L170.742 54.9963L170.742 54.9931L170.742 54.9888V53H152.227V54.9888L152.227 54.9931L152.227 54.9963L152.226 55.0095C152.226 55.0216 152.225 55.038 152.224 55.0586C152.223 55.084 152.221 55.1157 152.218 55.1531C152.208 55.2894 152.187 55.4977 152.143 55.7532C152.053 56.2734 151.877 56.9379 151.544 57.5795C151.216 58.2118 150.752 58.7939 150.083 59.224C149.423 59.6482 148.448 60 146.969 60C145.49 60 144.515 59.6482 143.855 59.224C143.186 58.7939 142.722 58.2118 142.394 57.5795C142.062 56.9379 141.885 56.2734 141.796 55.7532C141.751 55.4977 141.73 55.2894 141.72 55.1531C141.715 55.0853 141.713 55.0364 141.712 55.0095L141.711 54.9963L141.711 54.9931L141.711 54.9883V53H123.196V54.9899L123.195 55.0095L123.195 55.0299L123.193 55.0664L123.19 55.1068L123.187 55.1531C123.177 55.2894 123.156 55.4977 123.112 55.7532C123.022 56.2734 122.846 56.9379 122.513 57.5795C122.185 58.2118 121.721 58.7939 121.052 59.224C120.393 59.6482 119.417 60 117.938 60C116.459 60 115.484 59.6482 114.824 59.224C114.155 58.7939 113.691 58.2118 113.363 57.5795C113.031 56.9379 112.854 56.2734 112.765 55.7532C112.72 55.4977 112.699 55.2894 112.689 55.1531C112.686 55.1127 112.684 55.0791 112.683 55.0528C112.682 55.0349 112.681 55.0204 112.681 55.0095L112.68 54.9888V53H94.1649V54.9888L94.1644 55.0095C94.1634 55.0364 94.1613 55.0853 94.1562 55.1531C94.1461 55.2894 94.1249 55.4977 94.0808 55.7532C93.9909 56.2734 93.8147 56.9379 93.4821 57.5795C93.1544 58.2118 92.6903 58.7939 92.0214 59.224C91.3616 59.6482 90.3862 60 88.9072 60C87.4283 60 86.4528 59.6482 85.793 59.224C85.1242 58.7939 84.6601 58.2118 84.3323 57.5795C83.9997 56.9379 83.8236 56.2734 83.7337 55.7532C83.6895 55.4977 83.6683 55.2894 83.6582 55.1531C83.6532 55.0853 83.651 55.0364 83.6501 55.0095L83.6495 54.9886V53H65.134V54.9888L65.1334 55.0095C65.1325 55.0364 65.1303 55.0853 65.1253 55.1531C65.1152 55.2894 65.094 55.4977 65.0498 55.7532C64.9599 56.2734 64.7838 56.9379 64.4512 57.5795C64.1234 58.2118 63.6593 58.7939 62.9905 59.224C62.3307 59.6482 61.3552 60 59.8763 60C58.3973 60 57.4219 59.6482 56.7621 59.224C56.0932 58.7939 55.6291 58.2118 55.3014 57.5795C54.9688 56.9379 54.7926 56.2734 54.7028 55.7532C54.6586 55.4977 54.6374 55.2894 54.6273 55.1531C54.6222 55.0853 54.6201 55.0364 54.6191 55.0095L54.6186 54.9887V53H36.1031V54.9887L36.1025 55.0095C36.1016 55.0364 36.0994 55.0853 36.0944 55.1531C36.0843 55.2894 36.0631 55.4977 36.0189 55.7532C35.929 56.2734 35.7529 56.9379 35.4203 57.5795C35.0925 58.2118 34.6284 58.7939 33.9596 59.224C33.2998 59.6482 32.3243 60 30.8454 60C29.3664 60 28.391 59.6482 27.7312 59.224C27.0623 58.7939 26.5982 58.2118 26.2704 57.5795C25.9378 56.9379 25.7617 56.2734 25.6718 55.7532C25.6277 55.4977 25.6064 55.2894 25.5963 55.1531C25.5913 55.0853 25.5891 55.0364 25.5882 55.0095L25.5876 54.9888V53H0ZM342.238 452.727C334.39 451.559 334.171 451.629 333.788 459.319C332.634 466.109 325.847 460.33 327.033 455.608C327.025 455.191 327.021 454.809 327.016 454.46V454.457C326.991 452.436 326.979 451.492 326.504 450.963C326.088 450.499 325.315 450.355 323.864 450.085L323.863 450.085C323.389 449.997 322.843 449.895 322.212 449.764C317.394 448.89 318.364 446.525 322.684 446.088C326.725 446.578 327.176 443.891 327.664 440.984C327.862 439.806 328.065 438.592 328.517 437.538C328.914 435.264 332.943 435.631 333.348 437.855C333.696 438.779 333.739 439.982 333.783 441.202C333.865 443.497 333.949 445.853 336.068 446.53C337.087 446.861 338.217 447.021 339.352 447.182L339.353 447.182C341.826 447.534 344.327 447.889 345.772 450.007C347.46 452.48 343.473 452.804 342.238 452.727ZM117.613 444.55C118 445.462 118.365 446.322 118.786 446.749C110.224 451.532 110.992 446.459 114.474 441.472C115.999 440.751 116.849 442.751 117.613 444.55ZM110.054 443.495C106.47 451.654 104.949 455.118 120.958 451.267C124.875 453.599 129.923 449.351 124.771 445.546C123.366 444.64 122.08 441.953 120.802 439.281C118.441 434.346 116.105 429.464 113.089 435.952C112.129 438.771 111.017 441.302 110.054 443.494L110.054 443.495L110.054 443.495ZM117.365 35.0059C114.74 34.8111 112.235 39.5064 115.683 39.9003C117.259 39.9926 117.951 39.1721 118.62 38.3795L118.62 38.3794C118.756 38.2178 118.891 38.0573 119.033 37.9059C120.605 36.491 118.927 34.9814 117.365 35.0059ZM28.4344 467.788L28.4351 467.788L28.4359 467.788L28.4369 467.788L28.4381 467.788C29.3647 467.88 30.2417 467.966 31.0321 468.071C31.5026 467.978 32.169 467.921 32.9178 467.858C35.6748 467.625 39.5491 467.298 38.8755 464.709C38.1883 464.12 37.4954 463.504 36.7929 462.879C32.2617 458.847 27.3308 454.46 20.9601 454.729C17.6047 454.931 14.645 458.14 14.5527 461.522C16.1938 466.581 23.1275 467.265 28.4344 467.788ZM38.4211 457.084L38.4227 457.085L38.4239 457.086C39.5205 457.906 40.6159 458.725 41.7217 459.504C45.0217 450.437 38.7756 443.789 32.1448 438.881C28.7875 435.781 24.4818 435.469 20.2845 435.164L20.2838 435.164L20.2832 435.164L20.2825 435.164L20.2819 435.164C18.644 435.045 17.0226 434.928 15.4806 434.646C23.9208 428.28 35.697 434.486 41.7979 441.805C47.9195 448.36 47.0582 453.109 46.3106 457.231C45.8476 459.784 45.4282 462.097 46.7382 464.45C65.7274 484.453 67.9418 515.527 62.2498 541.342C58.6753 544.3 59.4421 536.664 60.0248 530.862C60.2798 528.322 60.4996 526.134 60.3049 525.338C60.2895 505.714 57.3062 484.466 43.9763 469.238C42.6172 467.858 41.9708 467.679 40.3945 468.906C32.2214 473.728 20.9544 470.93 13.0258 466.775C6.54651 462.438 11.4735 450.734 18.411 449.846C26.3771 448.078 32.4161 452.593 38.4211 457.084ZM295.111 477.294C290.914 474.709 286.396 472.644 281.876 470.579L281.875 470.579C276.337 468.048 270.797 465.517 265.843 462.024C263.121 459.867 262.816 458.408 264.67 455.514C267.329 451.363 269.205 446.85 271.025 442.303C272.755 438.024 268.967 441.204 265.871 443.802L265.871 443.802C264.483 444.967 263.235 446.015 262.685 446.222C259.895 448.27 257.014 450.202 254.132 452.133C248.88 455.653 243.628 459.174 238.926 463.404C238.866 463.464 238.799 463.526 238.728 463.592C238.264 464.024 237.659 464.587 238.136 465.174C240.335 465.893 242.565 466.571 244.801 467.251L244.801 467.252C248.761 468.456 252.741 469.667 256.612 471.125C257.573 471.706 258.706 471.793 259.819 471.877C261.095 471.975 262.343 472.07 263.27 472.907C263.57 473.386 263.339 473.784 263.099 474.195C262.903 474.532 262.702 474.878 262.78 475.286C262.844 475.613 262.482 476.193 262.153 476.4C259.345 477.968 256.889 480.094 254.463 482.194L254.463 482.194L254.462 482.194C253.059 483.409 251.666 484.614 250.221 485.698C249.174 485.563 248.925 486.285 248.666 487.034C248.489 487.545 248.308 488.07 247.867 488.344C247.085 489.12 246.263 489.822 245.448 490.517C243.774 491.945 242.134 493.344 240.955 495.299C239.193 497.349 237.312 499.371 235.417 501.407L235.417 501.407C230.114 507.105 224.709 512.914 221.526 519.762C227.029 516.699 232.593 513.655 238.178 510.6L238.179 510.599C257.47 500.046 277.009 489.357 295.111 477.294ZM254.354 475.975C252.578 474.416 248.771 473.562 244.791 472.668C238.404 471.234 231.569 469.7 231.96 464.992C234.309 457.047 250.51 447.104 264.376 438.594C271.313 434.336 277.666 430.438 281.407 427.327C281.605 427.204 281.819 427.033 282.043 426.854L282.043 426.854L282.043 426.853C282.837 426.218 283.75 425.487 284.473 426.506C284.519 426.576 284.565 426.643 284.61 426.708C284.678 426.806 284.746 426.899 284.811 426.99C285.368 427.764 285.755 428.302 285.01 429.19C284.42 430.002 283.823 430.808 283.226 431.612C280.914 434.732 278.61 437.839 276.782 441.293C274.569 444.672 273.213 448.42 271.854 452.179L271.854 452.179L271.848 452.197L271.827 452.253C271.754 452.454 271.682 452.655 271.609 452.856C271.519 453.103 271.429 453.35 271.339 453.598C271.215 454.155 270.77 454.778 270.315 455.415C269.469 456.599 268.591 457.828 269.69 458.758C274.536 461.804 279.732 464.283 284.93 466.762L284.931 466.762C288.314 468.376 291.697 469.99 294.986 471.761C295.475 472.123 296.149 472.419 296.844 472.725C298.481 473.445 300.237 474.218 299.974 476.015C299.418 479.036 295.46 481.562 292.747 483.294C292.593 483.392 292.443 483.488 292.298 483.581C289.891 485.904 287.019 487.562 284.135 489.228C282.793 490.003 281.448 490.78 280.147 491.625C270.256 497.866 260.003 503.469 249.748 509.073L249.745 509.075L249.742 509.076L249.731 509.082C243.416 512.533 237.1 515.984 230.867 519.586C228.277 521.027 225.653 522.416 223.031 523.805C220.432 525.181 217.835 526.557 215.273 527.981C211.333 528.332 213.384 523.775 214.968 522.035C224.982 505.076 239.063 491.125 252.91 477.406C253.391 476.929 253.873 476.452 254.354 475.975ZM182.929 465.49C182.391 469.452 174.377 466.303 177.075 463.067C177.949 460.489 183.209 463.418 182.929 465.49ZM219.491 18.7689L219.491 18.7687C220.256 15.4544 221.349 10.7235 225.206 12.3197C230.347 14.8796 219.11 34.5489 219.001 20.6863C219.166 20.1743 219.32 19.5067 219.491 18.7689ZM102.491 491.584C99.9805 491.995 98.9822 495.098 98.3926 497.301C98.7229 499.6 101.576 496.201 103.064 494.428C103.397 494.031 103.661 493.716 103.814 493.565C104.293 492.476 103.677 491.514 102.491 491.584Z" fill="#101F18"/>
</svg>
