<svg width="22" height="22" viewBox="0 0 22 22" fill="none" xmlns="http://www.w3.org/2000/svg">
<path d="M16.4267 10.6517C16.383 10.5391 16.3176 10.4363 16.2342 10.3492L11.6508 5.76583C11.5654 5.68036 11.4639 5.61256 11.3522 5.56631C11.2406 5.52005 11.1209 5.49625 11 5.49625C10.7559 5.49625 10.5218 5.59322 10.3492 5.76583C10.2637 5.8513 10.1959 5.95277 10.1496 6.06444C10.1034 6.17611 10.0796 6.29579 10.0796 6.41666C10.0796 6.66077 10.1766 6.89489 10.3492 7.0675L13.3742 10.0833H6.41667C6.17355 10.0833 5.94039 10.1799 5.76849 10.3518C5.59658 10.5237 5.5 10.7569 5.5 11C5.5 11.2431 5.59658 11.4763 5.76849 11.6482C5.94039 11.8201 6.17355 11.9167 6.41667 11.9167H13.3742L10.3492 14.9325C10.2632 15.0177 10.1951 15.1191 10.1485 15.2308C10.102 15.3425 10.078 15.4623 10.078 15.5833C10.078 15.7043 10.102 15.8242 10.1485 15.9359C10.1951 16.0476 10.2632 16.1489 10.3492 16.2342C10.4344 16.3201 10.5358 16.3883 10.6475 16.4348C10.7592 16.4814 10.879 16.5053 11 16.5053C11.121 16.5053 11.2408 16.4814 11.3525 16.4348C11.4642 16.3883 11.5656 16.3201 11.6508 16.2342L16.2342 11.6508C16.3176 11.5637 16.383 11.4609 16.4267 11.3483C16.5183 11.1252 16.5183 10.8748 16.4267 10.6517Z" fill="#101F18"/>
</svg>
