<svg width="24" height="24" viewBox="0 0 24 24" fill="none" xmlns="http://www.w3.org/2000/svg">
<path d="M11.29 14.66C11.1053 14.8463 11.0011 15.0977 11 15.36C11.0003 15.4941 11.0275 15.6267 11.08 15.75C11.1703 15.9619 11.3309 16.1362 11.5348 16.2433C11.7387 16.3505 11.9733 16.3839 12.1991 16.3381C12.4248 16.2922 12.6278 16.1699 12.7737 15.9917C12.9196 15.8135 12.9996 15.5903 13 15.36C12.9989 15.0977 12.8947 14.8463 12.71 14.66C12.617 14.5663 12.5064 14.4919 12.3846 14.4411C12.2627 14.3904 12.132 14.3642 12 14.3642C11.868 14.3642 11.7373 14.3904 11.6154 14.4411C11.4936 14.4919 11.383 14.5663 11.29 14.66ZM19.63 3.66001C19.5138 3.56603 19.3781 3.49929 19.2327 3.46468C19.0873 3.43007 18.9361 3.42847 18.79 3.46001C17.7214 3.68396 16.6183 3.68681 15.5486 3.4684C14.4789 3.24998 13.4652 2.81493 12.57 2.19001C12.4026 2.07389 12.2037 2.01166 12 2.01166C11.7963 2.01166 11.5974 2.07389 11.43 2.19001C10.534 2.81321 9.51997 3.24649 8.45028 3.46318C7.3806 3.67987 6.27789 3.67539 5.21 3.45001C5.06394 3.41847 4.91266 3.42007 4.7673 3.45468C4.62193 3.48929 4.48617 3.55603 4.37 3.65001C4.25398 3.74413 4.16052 3.86305 4.09649 3.99803C4.03246 4.13301 3.99949 4.28062 4 4.43001V11.88C3.99911 13.3138 4.34077 14.727 4.99653 16.002C5.65229 17.277 6.60318 18.3768 7.77 19.21L11.42 21.81C11.5894 21.9306 11.7921 21.9954 12 21.9954C12.2079 21.9954 12.4106 21.9306 12.58 21.81L16.23 19.21C17.3968 18.3768 18.3477 17.277 19.0035 16.002C19.6592 14.727 20.0009 13.3138 20 11.88V4.43001C20.0005 4.28062 19.9675 4.13301 19.9035 3.99803C19.8395 3.86305 19.746 3.74413 19.63 3.65001V3.66001ZM18 11.88C18.0008 12.9948 17.7353 14.0936 17.2256 15.085C16.716 16.0765 15.977 16.9319 15.07 17.58L12 19.77L8.93 17.58C8.02303 16.9319 7.28398 16.0765 6.77435 15.085C6.26471 14.0936 5.99923 12.9948 6 11.88V5.58001C8.09643 5.75945 10.196 5.27304 12 4.19001C13.804 5.27304 15.9036 5.75945 18 5.58001V11.88ZM12 7.36001C11.4731 7.35967 10.9553 7.49813 10.4989 7.76146C10.0425 8.02478 9.66347 8.40367 9.4 8.86001C9.28044 9.08855 9.25382 9.35445 9.32568 9.60216C9.39754 9.84987 9.56234 10.0602 9.78564 10.1893C10.0089 10.3184 10.2735 10.3562 10.524 10.2948C10.7745 10.2335 10.9916 10.0777 11.13 9.86001C11.2177 9.70814 11.3438 9.582 11.4956 9.49424C11.6474 9.40648 11.8197 9.36019 11.995 9.36002C12.1704 9.35985 12.3427 9.4058 12.4947 9.49325C12.6467 9.58071 12.7731 9.7066 12.861 9.8583C12.949 10.01 12.9956 10.1822 12.996 10.3575C12.9965 10.5329 12.9508 10.7053 12.8635 10.8574C12.7763 11.0096 12.6506 11.1361 12.499 11.2243C12.3475 11.3125 12.1754 11.3593 12 11.36C11.7348 11.36 11.4804 11.4654 11.2929 11.6529C11.1054 11.8404 11 12.0948 11 12.36C11 12.6252 11.1054 12.8796 11.2929 13.0671C11.4804 13.2547 11.7348 13.36 12 13.36C12.7956 13.36 13.5587 13.0439 14.1213 12.4813C14.6839 11.9187 15 11.1557 15 10.36C15 9.56436 14.6839 8.8013 14.1213 8.23869C13.5587 7.67608 12.7956 7.36001 12 7.36001Z" fill="black"/>
</svg>
