<svg width="24" height="24" viewBox="0 0 24 24" fill="none" xmlns="http://www.w3.org/2000/svg">
<path fill-rule="evenodd" clip-rule="evenodd" d="M20 14V2H4V14C4 14 4 22 12 22C20 22 20 14 20 14ZM6 13.9916C6.00008 13.9963 6.0003 14.007 6.00084 14.0232C6.00201 14.0582 6.00465 14.1188 6.01054 14.2013C6.02237 14.3668 6.04699 14.6164 6.09779 14.9212C6.20096 15.5402 6.40357 16.335 6.78886 17.1056C7.17023 17.8683 7.71087 18.5702 8.4844 19.0859C9.08013 19.483 9.88638 19.8186 11 19.9456C11.6699 20.022 12.3293 19.9821 13 19.9456C14.1136 19.8186 14.9199 19.483 15.5156 19.0859C16.2891 18.5702 16.8298 17.8683 17.2111 17.1056C17.5964 16.335 17.799 15.5402 17.9022 14.9212C17.953 14.6164 17.9776 14.3668 17.9895 14.2013C17.9953 14.1188 17.998 14.0582 17.9992 14.0232C17.9994 14.016 17.9996 14.0099 17.9997 14.0049C17.9999 13.9987 18 13.9943 18 13.9917V4H13V19.9456C12.3293 19.9821 11.6699 20.022 11 19.9456L11 4H6V13.9916ZM18 13.9917L18 13.9899Z" fill="black"/>
</svg>
